<svg width="41" height="40" fill="none" xmlns="http://www.w3.org/2000/svg"><path d="M19.066 28.334h3.333v-6.667h6.667v-3.334h-6.667v-6.666h-3.333v6.667h-6.667v3.333h6.667v6.666zm1.667 8.333c-2.306 0-4.473-.43-6.5-1.292-2.028-.889-3.792-2.083-5.292-3.583S6.246 28.528 5.357 26.5c-.86-2.028-1.291-4.194-1.291-6.5 0-2.305.43-4.472 1.291-6.5.89-2.028 2.084-3.791 3.584-5.291 1.5-1.5 3.264-2.681 5.291-3.542 2.028-.89 4.195-1.333 6.5-1.333 2.306 0 4.473.444 6.5 1.333 2.028.86 3.792 2.041 5.292 3.542 1.5 1.5 2.68 3.263 3.542 5.291.889 2.028 1.333 4.195 1.333 6.5 0 2.306-.444 4.472-1.333 6.5-.861 2.028-2.042 3.792-3.542 5.292s-3.264 2.694-5.291 3.583c-2.028.861-4.195 1.292-6.5 1.292zm0-3.334c3.722 0 6.875-1.291 9.458-3.874 2.583-2.584 3.875-5.737 3.875-9.459 0-3.722-1.292-6.875-3.875-9.458s-5.736-3.875-9.458-3.875c-3.723 0-6.876 1.292-9.459 3.875C8.691 13.125 7.4 16.278 7.4 20c0 3.722 1.292 6.875 3.875 9.459 2.584 2.583 5.736 3.875 9.459 3.875z" fill="#8C9097"/></svg>