<svg width="41" height="40" fill="none" xmlns="http://www.w3.org/2000/svg"><path d="M12.4 21.667h16.666v-3.334H12.399v3.334zm8.333 15c-2.306 0-4.473-.438-6.5-1.313-2.028-.875-3.792-2.062-5.292-3.562S6.253 28.528 5.378 26.5 4.066 22.306 4.066 20c0-2.305.437-4.472 1.312-6.5.875-2.028 2.063-3.791 3.563-5.291 1.5-1.5 3.264-2.688 5.291-3.563 2.028-.875 4.195-1.313 6.5-1.313 2.306 0 4.473.438 6.5 1.313 2.028.875 3.792 2.063 5.292 3.563s2.688 3.263 3.563 5.291c.875 2.028 1.312 4.195 1.312 6.5 0 2.306-.437 4.472-1.312 6.5-.875 2.028-2.063 3.792-3.563 5.292s-3.264 2.687-5.291 3.562c-2.028.875-4.195 1.313-6.5 1.313zm0-3.334c3.722 0 6.875-1.291 9.458-3.874 2.583-2.584 3.875-5.737 3.875-9.459 0-3.722-1.292-6.875-3.875-9.458s-5.736-3.875-9.458-3.875c-3.723 0-6.876 1.292-9.459 3.875C8.691 13.125 7.4 16.278 7.4 20c0 3.722 1.292 6.875 3.875 9.459 2.584 2.583 5.736 3.875 9.459 3.875z" fill="#8C9097"/></svg>