<svg width="25" height="24" fill="none" xmlns="http://www.w3.org/2000/svg"><path fill-rule="evenodd" clip-rule="evenodd" d="M13.045 1.669a2 2 0 00-1.625 0c-.4.177-.66.49-.84.745-.178.25-.368.58-.577.94l-8.267 14.28c-.21.363-.4.692-.53.972-.131.284-.274.666-.229 1.102a2 2 0 00.813 1.41c.355.258.757.326 1.069.354.306.028.687.028 1.106.028h16.534c.42 0 .8 0 1.107-.028.311-.029.713-.096 1.068-.354a2 2 0 00.813-1.41c.045-.436-.097-.818-.229-1.102-.129-.28-.32-.61-.53-.972l-8.267-14.28c-.209-.36-.399-.69-.577-.94-.18-.255-.44-.568-.84-.745zM13.232 9a1 1 0 10-2 0v4a1 1 0 102 0V9zm-1 7a1 1 0 000 2h.01a1 1 0 100-2h-.01z" fill="#5F1604"/></svg>