<svg width="28" height="29" fill="none" xmlns="http://www.w3.org/2000/svg"><path fill-rule="evenodd" clip-rule="evenodd" d="M18.948 2.758H9.052c-.94 0-1.714 0-2.346.051-.656.054-1.258.169-1.825.457a4.667 4.667 0 00-2.04 2.04c-.288.566-.403 1.169-.456 1.825-.052.631-.052 1.406-.052 2.345v6.739c0 .78 0 1.426.036 1.954.038.547.118 1.054.32 1.541a4.666 4.666 0 002.525 2.526c.488.202.994.282 1.541.32.529.035 1.174.035 1.955.035h.04c.626 0 .75.008.851.031.177.042.34.124.48.24.08.067.16.162.536.663l1.723 2.297c.109.145.232.31.35.441.13.146.348.36.676.487.408.159.86.159 1.268 0 .328-.128.545-.341.676-.487.118-.132.241-.296.35-.441l1.723-2.297c.376-.501.456-.596.536-.663.14-.116.303-.198.48-.24.1-.023.225-.03.85-.03h.04c.782 0 1.427 0 1.955-.037.548-.037 1.054-.117 1.542-.32a4.667 4.667 0 002.525-2.525c.202-.487.282-.994.32-1.541.036-.528.036-1.173.036-1.954V9.476c0-.939 0-1.714-.052-2.345-.054-.656-.168-1.259-.457-1.825a4.667 4.667 0 00-2.04-2.04c-.566-.288-1.168-.403-1.824-.457-.632-.051-1.407-.051-2.346-.051zm-.04 8.408a1.167 1.167 0 00-1.65-1.65l-4.425 4.425-1.508-1.508a1.167 1.167 0 10-1.65 1.65l2.333 2.333a1.167 1.167 0 001.65 0l5.25-5.25z" fill="#32ACE9"/></svg>