<svg width="29" height="28" fill="none" xmlns="http://www.w3.org/2000/svg"><path d="M10.127 17.125c-.214 0-.359.021-.434.042v1.374c.089.021.2.027.353.027.559 0 .903-.282.903-.76 0-.426-.297-.683-.822-.683zm4.068.014a2.14 2.14 0 00-.474.042v3.045c.09.021.234.021.365.021.953.007 1.574-.518 1.574-1.629.007-.968-.56-1.479-1.465-1.479z" fill="#555659"/><path d="M16.816 2.332H7.483a2.333 2.333 0 00-2.334 2.333v18.667a2.333 2.333 0 002.334 2.333h14a2.333 2.333 0 002.333-2.333v-14l-7-7zm-5.252 16.555c-.36.338-.893.49-1.512.49-.12.002-.24-.005-.36-.021v1.664H8.65v-4.592a8.87 8.87 0 011.423-.096c.65 0 1.111.124 1.423.372.296.236.497.622.497 1.077-.001.457-.153.844-.428 1.106zm4.441 1.58c-.49.408-1.235.602-2.146.602-.546 0-.933-.035-1.195-.07v-4.57a9.26 9.26 0 011.422-.097c.883 0 1.457.159 1.905.497.484.36.788.932.788 1.755 0 .89-.326 1.505-.774 1.884zm4.311-3.237H18.53v1.063h1.67v.857h-1.67v1.87h-1.057v-4.653h2.844v.863zm-3.5-6.731H15.65V4.665l5.834 5.834h-4.667z" fill="#555659"/></svg>