<svg width="25" height="24" fill="none" xmlns="http://www.w3.org/2000/svg"><path d="M21.232 10h-18m13-8v4m-8-4v4m2.5 8l1.5-1v5m-1.25 0h2.5m-5.45 4h8.4c1.68 0 2.52 0 3.162-.327a3 3 0 001.311-1.311c.327-.642.327-1.482.327-3.162V8.8c0-1.68 0-2.52-.327-3.162a3 3 0 00-1.31-1.311C18.952 4 18.112 4 16.431 4h-8.4c-1.68 0-2.52 0-3.162.327a3 3 0 00-1.31 1.311c-.328.642-.328 1.482-.328 3.162v8.4c0 1.68 0 2.52.327 3.162a3 3 0 001.311 1.311C5.512 22 6.352 22 8.032 22z" stroke="#8C9097" stroke-width="2" stroke-linecap="round" stroke-linejoin="round"/></svg>