<svg width="25" height="25" fill="none" xmlns="http://www.w3.org/2000/svg"><path d="M12.232 13.827l-4.9 4.9a.948.948 0 01-.7.275.948.948 0 01-.7-.275.948.948 0 01-.275-.7c0-.284.092-.517.275-.7l4.9-4.9-4.9-4.9a.948.948 0 01-.275-.7c0-.284.092-.517.275-.7a.948.948 0 01.7-.275c.284 0 .517.091.7.275l4.9 4.9 4.9-4.9a.948.948 0 01.7-.275c.284 0 .517.091.7.275a.948.948 0 01.275.7.948.948 0 01-.275.7l-4.9 4.9 4.9 4.9a.948.948 0 01.275.7.948.948 0 01-.275.7.948.948 0 01-.7.275.949.949 0 01-.7-.275l-4.9-4.9z" fill="#555659"/></svg>