<svg width="201" height="65" fill="none" xmlns="http://www.w3.org/2000/svg"><path d="M84.232 54c2.74-.67 5.607-3.158 8.281-4.222C121.212 38.35 150.295 37.153 179.232 32" stroke="#00AEEF" stroke-width="2" stroke-linecap="round"/><mask id="a" maskUnits="userSpaceOnUse" x="1.232" y="4" width="149" height="25" fill="#000"><path fill="#fff" d="M1.232 4h149v25h-149z"/><path d="M13.552 20.704c.496 0 .848.136 1.056.408.208.256.312.528.312.816 0 .4-.2.824-.6 1.272-.4.448-.92.864-1.56 1.248-.624.368-1.296.672-2.016.912s-1.408.36-2.064.36c-.976 0-1.912-.264-2.808-.792-.88-.544-1.6-1.304-2.16-2.28-.544-.976-.816-2.136-.816-3.48 0-1.104.208-2.2.624-3.288.432-1.088 1-2.136 1.704-3.144a23.5 23.5 0 012.352-2.808 23.304 23.304 0 012.592-2.256c.88-.64 1.688-1.136 2.424-1.488.736-.368 1.328-.552 1.776-.552.56 0 .976.144 1.248.432.288.272.432.656.432 1.152 0 .4-.08.712-.24.936-.144.208-.376.392-.696.552a25.72 25.72 0 00-3.12 1.92 20.338 20.338 0 00-2.856 2.496c-.864.896-1.56 1.84-2.088 2.832-.528.992-.792 2-.792 3.024 0 1.12.224 1.968.672 2.544.448.576 1.056.864 1.824.864.384 0 .8-.08 1.248-.24.448-.176.888-.376 1.32-.6a20.09 20.09 0 011.248-.576c.4-.176.728-.264.984-.264zm22.457 5.52c-.624 0-1.08-.168-1.368-.504-.288-.32-.432-.968-.432-1.944 0-.832.136-1.912.408-3.24.272-1.328.576-2.76.912-4.296-1.776 1.984-3.824 3.248-6.144 3.792a14.62 14.62 0 01-1.632 2.64c-.624.8-1.304 1.448-2.04 1.944-.72.48-1.472.72-2.256.72-.976 0-1.816-.32-2.52-.96-.688-.64-1.032-1.624-1.032-2.952 0-.896.136-1.656.408-2.28.272-.64.584-1.12.936-1.44-.288-.608-.432-1.304-.432-2.088 0-1.056.288-1.992.864-2.808.576-.816 1.336-1.456 2.28-1.92.96-.464 2-.696 3.12-.696.624 0 1.216.16 1.776.48.576.304 1.04.776 1.392 1.416.368.624.552 1.416.552 2.376 0 .8-.12 1.68-.36 2.64 1.136-.672 2.256-1.592 3.36-2.76a22.404 22.404 0 003-3.936c.272-.432.656-.648 1.152-.648.416 0 .744.128.984.384.256.24.384.56.384.96 0 .08-.048.344-.144.792-.096.448-.224 1.032-.384 1.752l-.528 2.328c-.176.848-.352 1.712-.528 2.592-.176.88-.336 1.712-.48 2.496.416-.752.864-1.552 1.344-2.4a67.012 67.012 0 011.536-2.544 33.719 33.719 0 011.56-2.304c.512-.688.984-1.232 1.416-1.632.432-.416.8-.624 1.104-.624.608 0 1.12.176 1.536.528.416.352.624.712.624 1.08 0 .368-.04.936-.12 1.704-.08.768-.184 1.632-.312 2.592-.112.944-.232 1.896-.36 2.856-.128.96-.232 1.832-.312 2.616-.08.768-.12 1.344-.12 1.728 0 .32-.152.624-.456.912-.304.288-.648.432-1.032.432h-.168a.977.977 0 01-.528-.096c-.16-.064-.296-.304-.408-.72-.096-.416-.144-1.12-.144-2.112 0-.672.032-1.408.096-2.208.064-.8.144-1.6.24-2.4.112-.816.232-1.576.36-2.28-.416.688-.88 1.472-1.392 2.352-.496.864-1.016 1.752-1.56 2.664a52.56 52.56 0 01-1.608 2.496c-.512.752-.992 1.36-1.44 1.824-.432.464-.8.696-1.104.696zm-9.024-8.016c.208-.624.376-1.272.504-1.944.128-.688.192-1.36.192-2.016 0-.272-.056-.536-.168-.792-.112-.256-.304-.384-.576-.384-.544 0-1.08.112-1.608.336a3.313 3.313 0 00-1.272.96c-.336.416-.504.912-.504 1.488 0 .512.168.944.504 1.296.352.352.784.616 1.296.792a4.913 4.913 0 001.56.264h.072zm-.984 2.112a7.86 7.86 0 01-1.632-.216 5.805 5.805 0 01-1.44-.6c-.048.256-.096.504-.144.744-.048.224-.072.44-.072.648 0 .352.056.672.168.96.128.272.384.408.768.408.4 0 .8-.176 1.2-.528.416-.352.8-.824 1.152-1.416zm40.752-7.416c0 .192-.064.36-.192.504a1.3 1.3 0 01-.48.336c-.272.112-.744.256-1.416.432-.672.176-1.488.376-2.448.6-.944.224-1.96.456-3.048.696-1.088.224-2.176.44-3.264.648-.416 1.536-.84 3.12-1.272 4.752a649.367 649.367 0 01-1.296 4.776c-.16.56-.352.984-.576 1.272-.224.304-.608.456-1.152.456-.592 0-.992-.192-1.2-.576-.192-.368-.216-.872-.072-1.512.416-1.744.8-3.368 1.152-4.872.368-1.504.664-2.72.888-3.648-.96.16-1.8.288-2.52.384-.72.08-1.232.112-1.536.096a1.276 1.276 0 01-.84-.408 1.17 1.17 0 01-.312-.888c.032-.32.176-.592.432-.816.256-.24.56-.384.912-.432.496-.048 1.136-.12 1.92-.216s1.648-.208 2.592-.336c.208-.816.448-1.656.72-2.52.272-.88.552-1.72.84-2.52.304-.816.592-1.528.864-2.136.272-.608.52-1.048.744-1.32a1.76 1.76 0 01.648-.48c.272-.112.536-.168.792-.168.336 0 .608.12.816.36.208.24.312.52.312.84 0 .128-.008.264-.024.408a1.688 1.688 0 01-.096.384c-.304.8-.632 1.768-.984 2.904a167.783 167.783 0 00-1.056 3.744c1.2-.176 2.376-.352 3.528-.528 1.168-.192 2.224-.368 3.168-.528.96-.176 1.728-.328 2.304-.456.32-.112.592-.088.816.072.224.144.336.376.336.696zm-2.61 13.008a2.39 2.39 0 01-1.392-.432 2.908 2.908 0 01-.984-1.08c-.24-.464-.36-.96-.36-1.488 0-.992.216-1.96.648-2.904a12.293 12.293 0 011.752-2.688 19.01 19.01 0 012.352-2.328 20.93 20.93 0 012.568-1.848c.864-.512 1.648-.912 2.352-1.2.72-.288 1.28-.432 1.68-.432.464 0 .84.104 1.128.312.304.192.456.496.456.912a.484.484 0 01-.096.312.812.812 0 01.504.36c.128.192.192.48.192.864 0 .16-.04.576-.12 1.248-.08.672-.168 1.488-.264 2.448-.08.96-.12 1.96-.12 3 0 .16.024.304.072.432.048.112.152.168.312.168a5.32 5.32 0 001.944-.384c.672-.272 1.32-.6 1.944-.984.64-.4 1.216-.792 1.728-1.176.528-.4.968-.728 1.32-.984.368-.272.608-.408.72-.408.544 0 .816.272.816.816 0 .144-.176.448-.528.912-.336.448-.8.968-1.392 1.56a24.56 24.56 0 01-1.992 1.728c-.72.56-1.472 1.024-2.256 1.392-.768.368-1.512.552-2.232.552-.88 0-1.552-.208-2.016-.624-.448-.416-.768-.976-.96-1.68a11.065 11.065 0 01-.288-2.424 25.574 25.574 0 01-2.544 3.12c-.864.896-1.72 1.608-2.568 2.136-.848.528-1.64.792-2.376.792zm8.496-12.024a22.905 22.905 0 00-4.224 2.592c-1.248.96-2.24 1.968-2.976 3.024-.72 1.056-1.08 2.072-1.08 3.048 0 .272.128.408.384.408.304 0 .704-.176 1.2-.528A12.958 12.958 0 0067.6 21.04a27.311 27.311 0 001.776-1.968 31.307 31.307 0 001.656-2.256c.512-.768.92-1.504 1.224-2.208.112-.256.24-.496.384-.72zm12.825 11.784c-.896 0-1.672-.208-2.328-.624-.656-.4-1.16-.92-1.512-1.56a4.216 4.216 0 01-.528-2.016c0-1.152.176-2.216.528-3.192.352-.992.816-1.888 1.392-2.688.576-.816 1.2-1.536 1.872-2.16a15.892 15.892 0 011.992-1.56c.656-.432 1.24-.752 1.752-.96.512-.224.888-.336 1.128-.336.432 0 .736.096.912.288.192.176.288.472.288.888 0 .24-.176.528-.528.864-.336.336-.784.72-1.344 1.152-.544.432-1.12.92-1.728 1.464a17.312 17.312 0 00-1.752 1.824 9.703 9.703 0 00-1.344 2.208 6.688 6.688 0 00-.504 2.616c0 .352.064.624.192.816.144.192.376.288.696.288.912 0 1.888-.16 2.928-.48a24.695 24.695 0 003.144-1.248 42.859 42.859 0 002.976-1.584 59.388 59.388 0 002.424-1.464c.272-.192.504-.344.696-.456.192-.112.328-.168.408-.168.48 0 .72.248.72.744 0 .256-.192.6-.576 1.032-.448.56-1.056 1.136-1.824 1.728a22.303 22.303 0 01-2.52 1.704 27.534 27.534 0 01-2.808 1.464c-.944.432-1.832.776-2.664 1.032-.832.256-1.528.384-2.088.384zm28.023-12.768c0 .192-.064.36-.192.504a1.3 1.3 0 01-.48.336c-.272.112-.744.256-1.416.432-.672.176-1.488.376-2.448.6-.944.224-1.96.456-3.048.696-1.088.224-2.176.44-3.264.648-.416 1.536-.84 3.12-1.272 4.752a649.367 649.367 0 01-1.296 4.776c-.16.56-.352.984-.575 1.272-.224.304-.608.456-1.152.456-.593 0-.992-.192-1.2-.576-.193-.368-.217-.872-.073-1.512.416-1.744.8-3.368 1.153-4.872l.888-3.648c-.96.16-1.8.288-2.52.384-.72.08-1.233.112-1.537.096a1.276 1.276 0 01-.84-.408 1.17 1.17 0 01-.312-.888c.032-.32.176-.592.432-.816.257-.24.56-.384.913-.432a80.39 80.39 0 001.92-.216c.783-.096 1.647-.208 2.591-.336a47.33 47.33 0 01.72-2.52c.272-.88.552-1.72.84-2.52.304-.816.592-1.528.864-2.136.272-.608.52-1.048.744-1.32a1.76 1.76 0 01.648-.48c.272-.112.536-.168.792-.168.336 0 .608.12.816.36.208.24.312.52.312.84 0 .128-.008.264-.024.408a1.688 1.688 0 01-.096.384c-.304.8-.632 1.768-.984 2.904a167.783 167.783 0 00-1.056 3.744c1.2-.176 2.376-.352 3.528-.528 1.168-.192 2.224-.368 3.168-.528.96-.176 1.728-.328 2.304-.456.32-.112.592-.088.816.072.224.144.336.376.336.696zm17.884 13.176c-.368 0-.704-.152-1.008-.456-.288-.288-.432-.776-.432-1.464 0-.512.04-1.224.12-2.136.096-.928.272-2.12.528-3.576a24.726 24.726 0 01-1.752 3.072c-.608.896-1.208 1.6-1.8 2.112-.576.496-1.128.744-1.656.744-.848 0-1.52-.256-2.016-.768-.496-.528-.744-1.512-.744-2.952 0-.688.056-1.464.168-2.328.128-.864.288-1.728.48-2.592.192-.864.384-1.632.576-2.304.208-.688.392-1.2.552-1.536.128-.288.288-.512.48-.672.208-.16.472-.24.792-.24.512 0 .904.168 1.176.504.272.336.408.68.408 1.032 0 .272-.064.664-.192 1.176-.112.512-.256 1.08-.432 1.704-.16.624-.328 1.264-.504 1.92a43.968 43.968 0 00-.456 1.848c-.112.576-.168 1.064-.168 1.464 0 .496.192.744.576.744.224 0 .512-.216.864-.648.368-.432.752-1.008 1.152-1.728.416-.736.832-1.536 1.248-2.4.432-.88.824-1.768 1.176-2.664.368-.912.68-1.752.936-2.52.16-.48.376-.816.648-1.008.272-.192.584-.288.936-.288.544 0 .96.152 1.248.456.304.304.456.736.456 1.296 0 .256-.04.688-.12 1.296-.08.608-.184 1.32-.312 2.136-.112.816-.248 1.68-.408 2.592-.16.912-.32 1.808-.48 2.688-.144.88-.288 1.688-.432 2.424-.144.72-.264 1.296-.36 1.728-.16.64-.352 1.024-.576 1.152a1.344 1.344 0 01-.672.192zm9.268.144c-.688 0-1.176-.096-1.464-.288-.272-.192-.408-.472-.408-.84 0-.32.112-.592.336-.816.224-.24.72-.48 1.488-.72a22.645 22.645 0 002.544-.936c.816-.368 1.48-.768 1.992-1.2.528-.432.792-.888.792-1.368 0-.32-.112-.552-.336-.696a1.274 1.274 0 00-.744-.216c-.24 0-.592.04-1.056.12-.448.064-.944.152-1.488.264-.544.096-1.072.184-1.584.264-.496.064-.92.096-1.272.096-.832 0-1.448-.184-1.848-.552-.4-.384-.6-.872-.6-1.464 0-.32.168-.76.504-1.32a15.04 15.04 0 011.344-1.848 26.9 26.9 0 011.872-2.016 27.442 27.442 0 012.088-1.848c.72-.576 1.4-1.032 2.04-1.368.64-.352 1.184-.528 1.632-.528.512 0 .92.16 1.224.48.32.32.48.752.48 1.296 0 .256-.024.536-.072.84a1.7 1.7 0 01-.36.792c-.192.224-.488.384-.888.48-.4.096-.944.08-1.632-.048-.544.4-1.112.84-1.704 1.32-.576.464-1.12.952-1.632 1.464-.512.496-.936.984-1.272 1.464a12.556 12.556 0 012.016-.456 13.563 13.563 0 012.28-.192c.928 0 1.68.168 2.256.504.592.32 1.024.752 1.296 1.296.288.544.432 1.144.432 1.8 0 .736-.24 1.472-.72 2.208-.48.736-1.12 1.408-1.92 2.016-.8.608-1.688 1.096-2.664 1.464a8.311 8.311 0 01-2.952.552z"/></mask><path d="M13.552 20.704c.496 0 .848.136 1.056.408.208.256.312.528.312.816 0 .4-.2.824-.6 1.272-.4.448-.92.864-1.56 1.248-.624.368-1.296.672-2.016.912s-1.408.36-2.064.36c-.976 0-1.912-.264-2.808-.792-.88-.544-1.6-1.304-2.16-2.28-.544-.976-.816-2.136-.816-3.48 0-1.104.208-2.2.624-3.288.432-1.088 1-2.136 1.704-3.144a23.5 23.5 0 012.352-2.808 23.304 23.304 0 012.592-2.256c.88-.64 1.688-1.136 2.424-1.488.736-.368 1.328-.552 1.776-.552.56 0 .976.144 1.248.432.288.272.432.656.432 1.152 0 .4-.08.712-.24.936-.144.208-.376.392-.696.552a25.72 25.72 0 00-3.12 1.92 20.338 20.338 0 00-2.856 2.496c-.864.896-1.56 1.84-2.088 2.832-.528.992-.792 2-.792 3.024 0 1.12.224 1.968.672 2.544.448.576 1.056.864 1.824.864.384 0 .8-.08 1.248-.24.448-.176.888-.376 1.32-.6a20.09 20.09 0 011.248-.576c.4-.176.728-.264.984-.264zm22.457 5.52c-.624 0-1.08-.168-1.368-.504-.288-.32-.432-.968-.432-1.944 0-.832.136-1.912.408-3.24.272-1.328.576-2.76.912-4.296-1.776 1.984-3.824 3.248-6.144 3.792a14.62 14.62 0 01-1.632 2.64c-.624.8-1.304 1.448-2.04 1.944-.72.48-1.472.72-2.256.72-.976 0-1.816-.32-2.52-.96-.688-.64-1.032-1.624-1.032-2.952 0-.896.136-1.656.408-2.28.272-.64.584-1.12.936-1.44-.288-.608-.432-1.304-.432-2.088 0-1.056.288-1.992.864-2.808.576-.816 1.336-1.456 2.28-1.92.96-.464 2-.696 3.12-.696.624 0 1.216.16 1.776.48.576.304 1.04.776 1.392 1.416.368.624.552 1.416.552 2.376 0 .8-.12 1.68-.36 2.64 1.136-.672 2.256-1.592 3.36-2.76a22.404 22.404 0 003-3.936c.272-.432.656-.648 1.152-.648.416 0 .744.128.984.384.256.24.384.56.384.96 0 .08-.048.344-.144.792-.096.448-.224 1.032-.384 1.752l-.528 2.328c-.176.848-.352 1.712-.528 2.592-.176.88-.336 1.712-.48 2.496.416-.752.864-1.552 1.344-2.4a67.012 67.012 0 011.536-2.544 33.719 33.719 0 011.56-2.304c.512-.688.984-1.232 1.416-1.632.432-.416.8-.624 1.104-.624.608 0 1.12.176 1.536.528.416.352.624.712.624 1.08 0 .368-.04.936-.12 1.704-.08.768-.184 1.632-.312 2.592-.112.944-.232 1.896-.36 2.856-.128.96-.232 1.832-.312 2.616-.08.768-.12 1.344-.12 1.728 0 .32-.152.624-.456.912-.304.288-.648.432-1.032.432h-.168a.977.977 0 01-.528-.096c-.16-.064-.296-.304-.408-.72-.096-.416-.144-1.12-.144-2.112 0-.672.032-1.408.096-2.208.064-.8.144-1.6.24-2.4.112-.816.232-1.576.36-2.28-.416.688-.88 1.472-1.392 2.352-.496.864-1.016 1.752-1.56 2.664a52.56 52.56 0 01-1.608 2.496c-.512.752-.992 1.36-1.44 1.824-.432.464-.8.696-1.104.696zm-9.024-8.016c.208-.624.376-1.272.504-1.944.128-.688.192-1.36.192-2.016 0-.272-.056-.536-.168-.792-.112-.256-.304-.384-.576-.384-.544 0-1.08.112-1.608.336a3.313 3.313 0 00-1.272.96c-.336.416-.504.912-.504 1.488 0 .512.168.944.504 1.296.352.352.784.616 1.296.792a4.913 4.913 0 001.56.264h.072zm-.984 2.112a7.86 7.86 0 01-1.632-.216 5.805 5.805 0 01-1.44-.6c-.048.256-.096.504-.144.744-.048.224-.072.44-.072.648 0 .352.056.672.168.96.128.272.384.408.768.408.4 0 .8-.176 1.2-.528.416-.352.8-.824 1.152-1.416zm40.752-7.416c0 .192-.064.36-.192.504a1.3 1.3 0 01-.48.336c-.272.112-.744.256-1.416.432-.672.176-1.488.376-2.448.6-.944.224-1.96.456-3.048.696-1.088.224-2.176.44-3.264.648-.416 1.536-.84 3.12-1.272 4.752a649.367 649.367 0 01-1.296 4.776c-.16.56-.352.984-.576 1.272-.224.304-.608.456-1.152.456-.592 0-.992-.192-1.2-.576-.192-.368-.216-.872-.072-1.512.416-1.744.8-3.368 1.152-4.872.368-1.504.664-2.72.888-3.648-.96.16-1.8.288-2.52.384-.72.08-1.232.112-1.536.096a1.276 1.276 0 01-.84-.408 1.17 1.17 0 01-.312-.888c.032-.32.176-.592.432-.816.256-.24.56-.384.912-.432.496-.048 1.136-.12 1.92-.216s1.648-.208 2.592-.336c.208-.816.448-1.656.72-2.52.272-.88.552-1.72.84-2.52.304-.816.592-1.528.864-2.136.272-.608.52-1.048.744-1.32a1.76 1.76 0 01.648-.48c.272-.112.536-.168.792-.168.336 0 .608.12.816.36.208.24.312.52.312.84 0 .128-.008.264-.024.408a1.688 1.688 0 01-.096.384c-.304.8-.632 1.768-.984 2.904a167.783 167.783 0 00-1.056 3.744c1.2-.176 2.376-.352 3.528-.528 1.168-.192 2.224-.368 3.168-.528.96-.176 1.728-.328 2.304-.456.32-.112.592-.088.816.072.224.144.336.376.336.696zm-2.61 13.008a2.39 2.39 0 01-1.392-.432 2.908 2.908 0 01-.984-1.08c-.24-.464-.36-.96-.36-1.488 0-.992.216-1.96.648-2.904a12.293 12.293 0 011.752-2.688 19.01 19.01 0 012.352-2.328 20.93 20.93 0 012.568-1.848c.864-.512 1.648-.912 2.352-1.2.72-.288 1.28-.432 1.68-.432.464 0 .84.104 1.128.312.304.192.456.496.456.912a.484.484 0 01-.096.312.812.812 0 01.504.36c.128.192.192.48.192.864 0 .16-.04.576-.12 1.248-.08.672-.168 1.488-.264 2.448-.08.96-.12 1.96-.12 3 0 .16.024.304.072.432.048.112.152.168.312.168a5.32 5.32 0 001.944-.384c.672-.272 1.32-.6 1.944-.984.64-.4 1.216-.792 1.728-1.176.528-.4.968-.728 1.32-.984.368-.272.608-.408.72-.408.544 0 .816.272.816.816 0 .144-.176.448-.528.912-.336.448-.8.968-1.392 1.56a24.56 24.56 0 01-1.992 1.728c-.72.56-1.472 1.024-2.256 1.392-.768.368-1.512.552-2.232.552-.88 0-1.552-.208-2.016-.624-.448-.416-.768-.976-.96-1.68a11.065 11.065 0 01-.288-2.424 25.574 25.574 0 01-2.544 3.12c-.864.896-1.72 1.608-2.568 2.136-.848.528-1.64.792-2.376.792zm8.496-12.024a22.905 22.905 0 00-4.224 2.592c-1.248.96-2.24 1.968-2.976 3.024-.72 1.056-1.08 2.072-1.08 3.048 0 .272.128.408.384.408.304 0 .704-.176 1.2-.528A12.958 12.958 0 0067.6 21.04a27.311 27.311 0 001.776-1.968 31.307 31.307 0 001.656-2.256c.512-.768.92-1.504 1.224-2.208.112-.256.24-.496.384-.72zm12.825 11.784c-.896 0-1.672-.208-2.328-.624-.656-.4-1.16-.92-1.512-1.56a4.216 4.216 0 01-.528-2.016c0-1.152.176-2.216.528-3.192.352-.992.816-1.888 1.392-2.688.576-.816 1.2-1.536 1.872-2.16a15.892 15.892 0 011.992-1.56c.656-.432 1.24-.752 1.752-.96.512-.224.888-.336 1.128-.336.432 0 .736.096.912.288.192.176.288.472.288.888 0 .24-.176.528-.528.864-.336.336-.784.72-1.344 1.152-.544.432-1.12.92-1.728 1.464a17.312 17.312 0 00-1.752 1.824 9.703 9.703 0 00-1.344 2.208 6.688 6.688 0 00-.504 2.616c0 .352.064.624.192.816.144.192.376.288.696.288.912 0 1.888-.16 2.928-.48a24.695 24.695 0 003.144-1.248 42.859 42.859 0 002.976-1.584 59.388 59.388 0 002.424-1.464c.272-.192.504-.344.696-.456.192-.112.328-.168.408-.168.48 0 .72.248.72.744 0 .256-.192.6-.576 1.032-.448.56-1.056 1.136-1.824 1.728a22.303 22.303 0 01-2.52 1.704 27.534 27.534 0 01-2.808 1.464c-.944.432-1.832.776-2.664 1.032-.832.256-1.528.384-2.088.384zm28.023-12.768c0 .192-.064.36-.192.504a1.3 1.3 0 01-.48.336c-.272.112-.744.256-1.416.432-.672.176-1.488.376-2.448.6-.944.224-1.96.456-3.048.696-1.088.224-2.176.44-3.264.648-.416 1.536-.84 3.12-1.272 4.752a649.367 649.367 0 01-1.296 4.776c-.16.56-.352.984-.575 1.272-.224.304-.608.456-1.152.456-.593 0-.992-.192-1.2-.576-.193-.368-.217-.872-.073-1.512.416-1.744.8-3.368 1.153-4.872l.888-3.648c-.96.16-1.8.288-2.52.384-.72.08-1.233.112-1.537.096a1.276 1.276 0 01-.84-.408 1.17 1.17 0 01-.312-.888c.032-.32.176-.592.432-.816.257-.24.56-.384.913-.432a80.39 80.39 0 001.92-.216c.783-.096 1.647-.208 2.591-.336a47.33 47.33 0 01.72-2.52c.272-.88.552-1.72.84-2.52.304-.816.592-1.528.864-2.136.272-.608.52-1.048.744-1.32a1.76 1.76 0 01.648-.48c.272-.112.536-.168.792-.168.336 0 .608.12.816.36.208.24.312.52.312.84 0 .128-.008.264-.024.408a1.688 1.688 0 01-.096.384c-.304.8-.632 1.768-.984 2.904a167.783 167.783 0 00-1.056 3.744c1.2-.176 2.376-.352 3.528-.528 1.168-.192 2.224-.368 3.168-.528.96-.176 1.728-.328 2.304-.456.32-.112.592-.088.816.072.224.144.336.376.336.696zm17.884 13.176c-.368 0-.704-.152-1.008-.456-.288-.288-.432-.776-.432-1.464 0-.512.04-1.224.12-2.136.096-.928.272-2.12.528-3.576a24.726 24.726 0 01-1.752 3.072c-.608.896-1.208 1.6-1.8 2.112-.576.496-1.128.744-1.656.744-.848 0-1.52-.256-2.016-.768-.496-.528-.744-1.512-.744-2.952 0-.688.056-1.464.168-2.328.128-.864.288-1.728.48-2.592.192-.864.384-1.632.576-2.304.208-.688.392-1.2.552-1.536.128-.288.288-.512.48-.672.208-.16.472-.24.792-.24.512 0 .904.168 1.176.504.272.336.408.68.408 1.032 0 .272-.064.664-.192 1.176-.112.512-.256 1.08-.432 1.704-.16.624-.328 1.264-.504 1.92a43.968 43.968 0 00-.456 1.848c-.112.576-.168 1.064-.168 1.464 0 .496.192.744.576.744.224 0 .512-.216.864-.648.368-.432.752-1.008 1.152-1.728.416-.736.832-1.536 1.248-2.4.432-.88.824-1.768 1.176-2.664.368-.912.68-1.752.936-2.52.16-.48.376-.816.648-1.008.272-.192.584-.288.936-.288.544 0 .96.152 1.248.456.304.304.456.736.456 1.296 0 .256-.04.688-.12 1.296-.08.608-.184 1.32-.312 2.136-.112.816-.248 1.68-.408 2.592-.16.912-.32 1.808-.48 2.688-.144.88-.288 1.688-.432 2.424-.144.72-.264 1.296-.36 1.728-.16.64-.352 1.024-.576 1.152a1.344 1.344 0 01-.672.192zm9.268.144c-.688 0-1.176-.096-1.464-.288-.272-.192-.408-.472-.408-.84 0-.32.112-.592.336-.816.224-.24.72-.48 1.488-.72a22.645 22.645 0 002.544-.936c.816-.368 1.48-.768 1.992-1.2.528-.432.792-.888.792-1.368 0-.32-.112-.552-.336-.696a1.274 1.274 0 00-.744-.216c-.24 0-.592.04-1.056.12-.448.064-.944.152-1.488.264-.544.096-1.072.184-1.584.264-.496.064-.92.096-1.272.096-.832 0-1.448-.184-1.848-.552-.4-.384-.6-.872-.6-1.464 0-.32.168-.76.504-1.32a15.04 15.04 0 011.344-1.848 26.9 26.9 0 011.872-2.016 27.442 27.442 0 012.088-1.848c.72-.576 1.4-1.032 2.04-1.368.64-.352 1.184-.528 1.632-.528.512 0 .92.16 1.224.48.32.32.48.752.48 1.296 0 .256-.024.536-.072.84a1.7 1.7 0 01-.36.792c-.192.224-.488.384-.888.48-.4.096-.944.08-1.632-.048-.544.4-1.112.84-1.704 1.32-.576.464-1.12.952-1.632 1.464-.512.496-.936.984-1.272 1.464a12.556 12.556 0 012.016-.456 13.563 13.563 0 012.28-.192c.928 0 1.68.168 2.256.504.592.32 1.024.752 1.296 1.296.288.544.432 1.144.432 1.8 0 .736-.24 1.472-.72 2.208-.48.736-1.12 1.408-1.92 2.016-.8.608-1.688 1.096-2.664 1.464a8.311 8.311 0 01-2.952.552z" fill="#00AEEF"/><path d="M14.608 21.112l-.794.607.009.012.01.012.775-.631zM14.32 23.2l-.745-.666.745.666zm-1.56 1.248l.508.861.007-.004-.515-.857zm-2.016.912l.317.949-.317-.949zm-4.872-.432l-.525.85.009.006.009.006.507-.862zm-2.16-2.28l-.873.487.006.01.867-.497zM3.52 15.88l-.93-.37-.004.013.934.357zm1.704-3.144l-.813-.581-.006.008.82.573zm2.352-2.808l-.707-.707-.006.007.713.7zm2.592-2.256l-.588-.809-.007.005.595.804zm2.424-1.488l.432.902.008-.004.008-.004-.448-.894zm3.024-.12l-.727.687.02.02.02.02.687-.727zm.192 2.088l-.813-.581-.005.006-.004.006.822.569zm-.696.552l-.447-.895-.01.006.457.889zm-3.12 1.92l-.58-.815-.006.005.586.81zM9.136 13.12l.72.694.006-.006-.726-.688zm-2.088 2.832l.883.47-.883-.47zm-.12 5.568l.79-.614-.79.614zm3.072.624l.337.942.014-.005.015-.006-.366-.931zm1.32-.6l-.447-.894-.006.003-.007.003.46.888zm1.248-.576l.385.923.01-.004.008-.004-.403-.915zm.984-.264v1a.81.81 0 01.276.035c.022.008.005.005-.014-.02l.794-.607.795-.607c-.471-.617-1.19-.801-1.85-.801v1zm1.056.408l-.776.63c.086.106.088.16.088.186h2c0-.55-.205-1.04-.536-1.447l-.776.631zm.312.816h-1c0 .056-.03.252-.345.606l.745.666.746.666c.484-.542.854-1.194.854-1.938h-1zm-.6 1.272l-.745-.666c-.32.357-.755.712-1.33 1.056l.515.858.515.857c.706-.423 1.31-.9 1.791-1.439l-.746-.666zm-1.56 1.248l-.508-.861c-.56.33-1.167.605-1.824.824l.316.949.317.949a11.49 11.49 0 002.207-1l-.508-.861zm-2.016.912l-.316-.949a5.507 5.507 0 01-1.748.309v2c.78 0 1.574-.143 2.38-.411l-.316-.949zm-2.064.36v-1c-.785 0-1.547-.21-2.3-.653l-.508.861-.507.861c1.04.613 2.15.931 3.315.931v-1zm-2.808-.792l.526-.85c-.726-.45-1.334-1.083-1.818-1.928l-.868.498-.867.498c.635 1.107 1.468 1.994 2.502 2.633l.525-.851zm-2.16-2.28l.874-.487c-.446-.8-.69-1.785-.69-2.993h-2c0 1.48.3 2.815.943 3.967l.873-.487zm-.816-3.48h1c0-.975.184-1.95.558-2.93l-.934-.358-.934-.357a10.143 10.143 0 00-.69 3.645h1zm.624-3.288l.93.369a14.425 14.425 0 011.594-2.94l-.82-.573-.82-.573a16.423 16.423 0 00-1.813 3.348l.93.369zm1.704-3.144l.814.581A22.493 22.493 0 018.29 10.63l-.714-.701-.713-.7a24.504 24.504 0 00-2.452 2.927l.813.581zm2.352-2.808l.708.707a22.311 22.311 0 012.48-2.16l-.596-.803-.595-.804A24.3 24.3 0 006.87 9.221l.707.707zm2.592-2.256l.589.809c.845-.615 1.6-1.076 2.267-1.395l-.432-.902-.431-.902c-.806.385-1.667.916-2.58 1.581l.587.809zm2.424-1.488l.448.894c.694-.347 1.117-.446 1.328-.446v-2c-.684 0-1.446.269-2.223.658l.447.894zm1.776-.552v1c.401 0 .505.102.521.119l.727-.687.727-.687c-.528-.559-1.256-.745-1.975-.745v1zm1.248.432l-.686.727c.04.038.118.13.118.425h2c0-.697-.209-1.373-.745-1.879l-.687.727zm.432 1.152h-1c0 .282-.058.361-.053.355l.813.581.814.581c.325-.454.426-.999.426-1.517h-1zm-.24.936l-.822-.57c-.017.025-.092.113-.32.228l.446.894.448.894c.411-.205.8-.485 1.07-.877l-.822-.569zm-.696.552l-.458-.889a26.718 26.718 0 00-3.242 1.994l.58.815.58.815a24.719 24.719 0 012.999-1.846l-.459-.889zm-3.12 1.92l-.586-.81a21.339 21.339 0 00-2.996 2.618l.726.688.726.688a19.342 19.342 0 012.716-2.374l-.586-.81zM9.136 13.12l-.72-.694c-.921.956-1.674 1.974-2.25 3.056l.882.47.883.47c.48-.902 1.119-1.772 1.925-2.608l-.72-.694zm-2.088 2.832l-.882-.47c-.598 1.122-.91 2.29-.91 3.494h2c0-.845.216-1.692.675-2.554l-.883-.47zm-.792 3.024h-1c0 1.23.243 2.335.883 3.158l.79-.614.789-.614c-.256-.328-.462-.92-.462-1.93h-1zm.672 2.544l-.789.614c.649.834 1.556 1.25 2.613 1.25v-2c-.478 0-.787-.16-1.034-.478l-.79.614zm1.824.864v1c.523 0 1.054-.109 1.585-.298L10 22.144l-.336-.942a2.74 2.74 0 01-.912.182v1zm1.248-.24l.366.93c.48-.188.952-.402 1.415-.642l-.46-.888-.46-.888c-.402.209-.81.394-1.226.557l.365.931zm1.32-.6l.448.894c.431-.215.826-.397 1.185-.547l-.385-.923-.384-.923a21.1 21.1 0 00-1.31.605l.446.894zm1.248-.576l.403.915c.35-.154.53-.179.581-.179v-2c-.46 0-.937.15-1.386.349l.402.915zm22.073 4.752l.76-.65-.009-.01-.008-.009-.743.669zm-.024-5.184l-.98-.2.98.2zm.912-4.296l.977.214.812-3.712-2.534 2.831.745.667zm-6.144 3.792l-.228-.974-.465.11-.207.429.9.435zm-1.632 2.64l-.788-.615.788.615zm-2.04 1.944l.555.832.004-.003-.559-.829zm-4.776-.24l-.681.732.008.008.673-.74zm-.624-5.232l.917.4.003-.009-.92-.391zm.936-1.44l.673.74.548-.498-.317-.67-.904.428zm.432-4.896l.817.577-.817-.577zm2.28-1.92l-.435-.9-.006.003.441.897zm4.896-.216l-.496.868.014.009.015.007.467-.884zm1.392 1.416l-.876.482.007.013.008.013.861-.508zm.192 5.016l-.97-.242-.58 2.321 2.06-1.218-.51-.861zm3.36-2.76l-.722-.692-.005.005.727.687zm3-3.936l-.846-.533-.005.008-.005.008.856.517zm2.136-.264l-.73.684.023.024.023.021.684-.729zm.24 1.752l-.978-.21.978.21zm-.384 1.752l.975.222.001-.005-.976-.217zm-.528 2.328l-.975-.22-.002.008-.002.009.98.203zm-.528 2.592l-.98-.196.98.196zm-.48 2.496l-.983-.18 1.858.664-.875-.484zm1.344-2.4l-.867-.498-.003.005.87.493zm1.536-2.544l.844.536.005-.007-.849-.529zm1.56-2.304l-.802-.597.802.597zm1.416-1.632l.68.734.007-.007.007-.007-.694-.72zm2.64-.096l.646-.763-.646.763zm.192 5.376l-.991-.132-.001.007v.007l.992.118zm-.36 2.856l.991.132-.99-.132zm-.312 2.616l.995.104v-.002l-.995-.102zm-.576 2.64l-.688-.726.688.726zm-1.2.432v-1h-.041l-.042.004.083.996zm-.528-.096l.447-.894-.037-.019-.038-.015-.372.928zm-.408-.72l-.974.225.004.017.005.018.965-.26zm-.048-4.32l.997.08-.997-.08zm.24-2.4l-.99-.136-.002.008v.009l.992.119zm.36-2.28l.984.179-1.84-.696.856.517zm-1.392 2.352l-.864-.503-.003.005.867.498zm-1.56 2.664l.855.519.004-.007-.859-.512zm-1.608 2.496l-.824-.567-.002.004.826.563zm-1.44 1.824l-.72-.695-.006.007-.006.007.732.681zm-10.128-7.32v1h.72l.229-.684-.949-.316zm.504-1.944l.982.187.001-.004-.983-.183zm.024-2.808l.916-.4-.916.4zm-2.184-.048l-.39-.92-.01.004.4.916zm-1.272.96l-.778-.628.778.628zm0 2.784l-.723.69.008.009.008.008.707-.707zm1.296.792l-.325.946.009.003.316-.949zm.648 2.376l.86.511.869-1.462-1.7-.049-.029 1zm-1.632-.216l-.263.965.014.004.014.003.235-.972zm-1.44-.6l.51-.86-1.23-.729-.263 1.405.983.184zm-.144.744l.978.21.003-.014-.98-.196zm.096 1.608l-.932.362.013.033.014.03.905-.425zm1.968-.12l-.646-.763-.007.006-.008.006.661.751zm11.16 4.488v-1c-.456 0-.579-.12-.609-.155l-.759.651-.76.65c.547.638 1.336.854 2.128.854v-1zm-1.368-.504l.743-.669c.018.02-.038-.035-.09-.274a4.783 4.783 0 01-.085-1.001h-2c0 .53.039 1.015.132 1.435.09.409.251.839.557 1.178l.743-.669zm-.432-1.944h1c0-.736.122-1.742.388-3.04l-.98-.2-.98-.2c-.278 1.358-.428 2.512-.428 3.44h1zm.408-3.24l.98.2c.27-1.322.574-2.75.909-4.282l-.977-.214-.977-.214a325.98 325.98 0 00-.915 4.31l.98.2zm.912-4.296l-.745-.667c-1.656 1.85-3.53 2.994-5.627 3.485l.228.974.228.974c2.543-.597 4.765-1.981 6.661-4.099l-.745-.667zm-6.144 3.792l-.9-.435c-.435.9-.942 1.719-1.52 2.46l.788.615.789.615c.67-.859 1.25-1.8 1.743-2.82l-.9-.435zm-1.632 2.64l-.788-.615c-.569.729-1.174 1.3-1.81 1.73l.558.829.559.83c.835-.563 1.59-1.288 2.27-2.159l-.789-.615zm-2.04 1.944l-.555-.832c-.573.382-1.135.552-1.7.552v2c1 0 1.943-.31 2.81-.888l-.555-.832zm-2.256.72v-1c-.734 0-1.332-.232-1.847-.7l-.673.74-.673.74c.894.812 1.975 1.22 3.193 1.22v-1zm-2.52-.96l.681-.732c-.412-.384-.713-1.052-.713-2.22h-2c0 1.488.387 2.788 1.351 3.684l.681-.732zm-1.032-2.952h1c0-.8.122-1.416.325-1.88l-.917-.4-.917-.4c-.341.784-.49 1.688-.49 2.68h1zm.408-2.28l.92.391c.24-.564.481-.902.689-1.091l-.673-.74-.673-.74c-.496.451-.879 1.073-1.183 1.789l.92.391zm.936-1.44l.904-.428c-.215-.454-.336-1-.336-1.66h-2c0 .908.167 1.754.528 2.516l.904-.428zm-.432-2.088h1c0-.862.231-1.594.681-2.231l-.817-.577-.817-.577c-.702.995-1.047 2.135-1.047 3.385h1zm.864-2.808l.817.577c.474-.672 1.102-1.205 1.904-1.6l-.44-.897-.442-.897a6.943 6.943 0 00-2.656 2.24l.817.577zm2.28-1.92l.435.9a6.075 6.075 0 012.685-.596v-2a8.075 8.075 0 00-3.555.796l.435.9zm3.12-.696v1c.444 0 .866.112 1.28.348l.496-.868.496-.868a4.525 4.525 0 00-2.272-.612v1zm1.776.48l-.467.884c.383.202.713.524.983 1.014l.876-.482.876-.482c-.434-.79-1.032-1.412-1.801-1.818l-.467.884zm1.392 1.416l-.861.508c.252.428.413 1.03.413 1.868h2c0-1.082-.207-2.064-.69-2.884l-.862.508zm.552 2.376h-1c0 .702-.105 1.499-.33 2.397l.97.243.97.242c.256-1.02.39-1.984.39-2.882h-1zm-.36 2.64l.51.86c1.23-.728 2.422-1.711 3.577-2.933l-.727-.687-.727-.687c-1.053 1.114-2.101 1.97-3.142 2.586l.51.861zm3.36-2.76l.722.692a23.402 23.402 0 003.134-4.11l-.856-.518-.856-.517a21.408 21.408 0 01-2.866 3.76l.722.693zm3-3.936l.846.533c.096-.152.166-.181.306-.181v-2c-.852 0-1.55.403-1.998 1.115l.846.533zm1.152-.648v1c.195 0 .239.05.255.068l.73-.684.729-.684c-.464-.495-1.077-.7-1.714-.7v1zm.984.384l-.684.73c.026.023.068.064.068.23h2c0-.634-.213-1.233-.7-1.69l-.684.73zm.384.96h-1c0-.054.006-.081 0-.044a17.547 17.547 0 01-.122.626l.978.21.978.21c.049-.229.087-.418.114-.565.02-.11.052-.29.052-.437h-1zm-.144.792l-.978-.21a213.94 213.94 0 01-.382 1.745l.976.217.976.217c.16-.721.29-1.308.386-1.76l-.978-.209zm-.384 1.752l-.975-.222-.528 2.33.975.22.975.22.528-2.326-.975-.222zm-.528 2.328l-.979-.203c-.177.85-.353 1.717-.53 2.599l.981.196.98.196c.176-.878.352-1.74.527-2.585l-.979-.203zm-.528 2.592l-.98-.196a162.25 162.25 0 00-.483 2.511l.983.181.984.18c.143-.778.302-1.604.477-2.48l-.98-.196zm-.48 2.496l.875.484c.414-.749.86-1.546 1.34-2.391l-.87-.493-.871-.493c-.482.85-.931 1.654-1.349 2.409l.875.484zm1.344-2.4l.867.498a67.66 67.66 0 011.513-2.506l-.844-.536-.844-.536a67.964 67.964 0 00-1.56 2.582l.868.498zm1.536-2.544l.849.529a32.748 32.748 0 011.513-2.236l-.802-.597-.802-.597a34.727 34.727 0 00-1.607 2.372l.85.529zm1.56-2.304l.802.597c.49-.659.922-1.151 1.293-1.495l-.679-.734-.68-.734c-.492.456-1.005 1.052-1.538 1.769l.802.597zm1.416-1.632l.694.72c.178-.171.31-.268.398-.317.09-.051.087-.027.012-.027v-2c-.72 0-1.337.46-1.797.904l.693.72zm1.104-.624v1c.4 0 .676.11.89.291l.646-.763.646-.763c-.618-.523-1.367-.765-2.182-.765v1zm1.536.528l-.646.763c.302.256.27.362.27.317h2c0-.781-.448-1.395-.978-1.843l-.646.763zm.624 1.08h-1c0 .313-.035.838-.114 1.6l.994.104.995.104c.08-.774.125-1.385.125-1.808h-1zm-.12 1.704l-.994-.104c-.08.757-.182 1.611-.31 2.564l.992.132.991.132c.13-.967.234-1.84.316-2.62l-.995-.104zm-.312 2.592l-.993-.118c-.111.94-.23 1.887-.358 2.842l.991.132.991.132c.129-.965.25-1.921.362-2.87l-.993-.118zm-.36 2.856l-.991-.132a86.79 86.79 0 00-.316 2.646l.995.102.995.102c.079-.772.181-1.634.308-2.586l-.99-.132zm-.312 2.616l-.995-.104c-.08.776-.125 1.394-.125 1.832h2c0-.33.035-.864.115-1.624l-.995-.104zm-.12 1.728h-1a.097.097 0 01-.008.02.642.642 0 01-.136.166l.688.726.688.726c.439-.416.768-.966.768-1.638h-1zm-.456.912l-.688-.726c-.136.13-.24.158-.344.158v2c.664 0 1.248-.26 1.72-.706l-.688-.726zm-1.032.432v-1h-.168v2h.169v-1zm-.168 0l-.083-.996H43.4a.066.066 0 01.016.006l-.447.894-.447.894a1.96 1.96 0 001.058.198l-.083-.996zm-.528-.096l.371-.928c.117.046.191.11.23.15.038.038.05.064.047.057a.588.588 0 01-.032-.074 2.01 2.01 0 01-.058-.185l-.966.26-.965.26c.067.25.155.503.281.725.117.207.336.51.72.663l.372-.928zm-.408-.72l.974-.225c-.067-.295-.118-.898-.118-1.887h-2c0 .995.046 1.8.17 2.337l.974-.225zm-.144-2.112h1c0-.64.03-1.35.093-2.128l-.997-.08-.997-.08a29.202 29.202 0 00-.099 2.288h1zm.096-2.208l.997.08a60.6 60.6 0 01.236-2.36l-.993-.12-.993-.12a62.09 62.09 0 00-.244 2.44l.997.08zm.24-2.4l.99.136c.111-.804.229-1.55.354-2.237l-.984-.179-.984-.179c-.13.72-.253 1.495-.367 2.323l.991.136zm.36-2.28l-.856-.517c-.42.694-.886 1.482-1.4 2.366l.864.503.865.503c.51-.877.97-1.655 1.383-2.338l-.856-.517zm-1.392 2.352l-.867-.498a179.4 179.4 0 01-1.552 2.65l.86.512.858.512c.547-.916 1.07-1.809 1.568-2.678l-.867-.498zm-1.56 2.664l-.855-.519a51.588 51.588 0 01-1.577 2.448l.824.567.824.566a53.535 53.535 0 001.639-2.543l-.855-.519zm-1.608 2.496l-.826-.563c-.492.723-.937 1.282-1.333 1.692l.72.695.719.695c.5-.518 1.015-1.175 1.547-1.956l-.827-.563zm-1.44 1.824l-.732-.681a2.208 2.208 0 01-.401.357c-.09.057-.072.02.03.02v2c.405 0 .758-.153 1.036-.328.282-.178.548-.417.799-.687l-.732-.681zm-10.128-7.32l.949.316c.222-.668.401-1.359.537-2.073l-.982-.187-.982-.187c-.12.63-.277 1.235-.47 1.815l.948.316zm.504-1.944l.983.183c.139-.744.21-1.478.21-2.199h-2a9.98 9.98 0 01-.176 1.833l.983.183zm.192-2.016h1c0-.414-.086-.814-.252-1.193l-.916.401-.916.4a.958.958 0 01.084.392h1zm-.168-.792l.916-.4a1.642 1.642 0 00-.59-.72 1.611 1.611 0 00-.902-.264v2A.399.399 0 0126.73 14a.375.375 0 01-.133-.143l.916-.401zm-.576-.384v-1c-.685 0-1.354.142-1.998.415l.39.921.39.92a3.083 3.083 0 011.218-.256v-1zm-1.608.336l-.4-.916a4.313 4.313 0 00-1.65 1.248l.778.628.778.628c.23-.285.523-.51.895-.672l-.4-.916zm-1.272.96l-.778-.628c-.491.608-.726 1.33-.726 2.116h2c0-.366.101-.636.282-.86l-.778-.628zm-.504 1.488h-1c0 .754.257 1.438.78 1.987l.724-.691.724-.69c-.149-.156-.228-.336-.228-.606h-1zm.504 1.296l-.707.707c.469.469 1.035.81 1.678 1.03l.325-.945.325-.946a2.336 2.336 0 01-.914-.553l-.707.707zm1.296.792l-.316.949a5.913 5.913 0 001.876.315v-2c-.396 0-.809-.068-1.244-.213l-.316.949zm1.56.264v1h.073v-2h-.071v1zm-.912 2.112l.029-1a6.86 6.86 0 01-1.425-.188l-.236.972-.235.972a8.855 8.855 0 001.838.244l.03-1zm-1.632-.216l.263-.965a4.807 4.807 0 01-1.193-.495l-.51.86-.51.86c.516.306 1.08.54 1.687.705l.263-.965zm-1.44-.6l-.983-.184c-.047.252-.094.496-.142.732l.981.196.98.196c.05-.244.098-.496.147-.756l-.983-.184zm-.144.744l-.978-.21a4.089 4.089 0 00-.094.858h2c0-.13.015-.277.05-.439l-.978-.209zm-.072.648h-1c0 .459.073.904.236 1.322l.932-.362.932-.362a1.636 1.636 0 01-.1-.598h-1zm.168.96l-.905.426c.153.323.398.59.724.763.312.166.645.219.95.219v-2c-.08 0-.067-.015-.012.015a.357.357 0 01.148.151l-.905.426zm.768.408v1c.714 0 1.34-.319 1.86-.777l-.66-.751-.66-.75c-.28.245-.454.278-.54.278v1zm1.2-.528l.646.763c.52-.44.971-1.005 1.366-1.668L26 20.32l-.86-.511c-.309.52-.625.9-.938 1.164l.646.763zm41.712-8.328l.747.664-.747-.664zm-.48.336l.38.925.005-.002-.385-.923zm-1.416.432l-.253-.967.253.967zm-2.448.6l-.227-.974-.004.001.231.973zm-3.048.696l.202.98.014-.004-.216-.976zm-3.264.648l-.188-.982-.614.117-.163.604.965.261zm-1.272 4.752l.966.258v-.002l-.966-.256zm-1.296 4.776l.962.275.002-.01-.964-.265zm-.576 1.272l-.79-.614-.007.01-.008.01.805.594zm-2.352-.12l-.886.463.003.006.004.007.88-.476zm-.072-1.512l-.973-.232-.002.012.975.22zm1.152-4.872l-.971-.238-.003.01.974.228zm.888-3.648l.972.235.355-1.47-1.491.249.164.986zm-2.52.384l.11.994.011-.001.011-.002-.132-.991zm-1.536.096l-.095.995.021.003h.022l.052-.998zm-.84-.408l-.73.682.73-.682zm-.312-.888l-.995-.1-.003.027v.028l.998.045zm.432-.816l.659.753.013-.012.012-.011-.684-.73zm.912-.432l-.096-.995-.02.002-.019.002.135.991zm4.512-.552l.135.99.668-.09.166-.653-.969-.247zm.72-2.52l.954.3.002-.005-.956-.295zm.84-2.52l-.937-.35-.004.011.941.339zm1.608-3.456l-.763-.646-.009.01.772.636zm.648-.48l-.38-.925-.01.004-.01.005.4.916zm1.608.192l-.756.655.756-.655zm.288 1.248l.992.124.002-.014-.994-.11zM58.641 7l.935.355.001-.004L58.641 7zm-.984 2.904l-.955-.296-.004.012.96.284zm-1.056 3.744l-.965-.261-.399 1.472 1.51-.222-.146-.989zm3.528-.528l.151.989.011-.002-.162-.987zm3.168-.528l.167.986.013-.002-.18-.984zm2.304-.456l.217.976.058-.013.055-.02-.33-.943zm.816.072l-.581.814.02.014.02.013.541-.841zm.336.696h-1a.25.25 0 01.018-.086.25.25 0 01.043-.074l.747.664.747.664c.29-.326.445-.73.445-1.168h-1zm-.192.504l-.747-.664a.304.304 0 01-.117.077l.384.923.385.923a2.3 2.3 0 00.843-.595l-.748-.664zm-.48.336l-.38-.925c-.204.084-.618.214-1.29.39l.254.967.253.967c.673-.176 1.203-.334 1.544-.474l-.38-.925zm-1.416.432l-.253-.967c-.66.173-1.468.37-2.422.593l.227.974.227.974a94.37 94.37 0 002.474-.607l-.253-.967zm-2.448.6l-.23-.973c-.939.223-1.95.454-3.033.692l.215.977.216.976c1.092-.24 2.113-.474 3.063-.699l-.23-.973zm-3.048.696l-.201-.98c-1.084.224-2.167.439-3.25.646l.187.982.188.982a237.21 237.21 0 003.278-.65l-.202-.98zm-3.264.648l-.965-.261a867.697 867.697 0 00-1.274 4.757l.967.256.967.256c.431-1.63.855-3.212 1.27-4.747l-.965-.261zm-1.272 4.752l-.966-.258a644.705 644.705 0 01-1.294 4.768l.964.266.964.266c.433-1.57.865-3.165 1.298-4.784l-.966-.258zm-1.296 4.776l-.961-.275c-.144.502-.292.788-.404.933l.79.614.788.614c.336-.431.572-.993.749-1.611l-.962-.275zm-.576 1.272l-.805-.593c.01-.013.016-.009-.019.005a.93.93 0 01-.328.044v2c.714 0 1.471-.204 1.957-.863l-.805-.593zm-1.152.456v-1c-.194 0-.284-.032-.311-.046-.012-.005-.013-.007-.01-.004.005.004.004.005 0-.002l-.879.476-.88.476c.445.82 1.27 1.1 2.08 1.1v-1zm-1.2-.576l.887-.463c-.035-.066-.104-.294.017-.83l-.976-.219-.976-.22c-.167.745-.188 1.525.162 2.195l.886-.463zm-.072-1.512l.973.232c.416-1.745.8-3.37 1.153-4.876l-.974-.228-.974-.228c-.351 1.503-.735 3.125-1.15 4.868l.972.232zm1.152-4.872l.972.238c.368-1.505.664-2.722.888-3.651l-.972-.235-.972-.235c-.224.927-.52 2.142-.887 3.645l.971.238zm.888-3.648l-.164-.986a78.43 78.43 0 01-2.488.379l.132.991.132.991a80.496 80.496 0 002.553-.389l-.165-.986zm-2.52.384l-.11-.994c-.72.08-1.16.103-1.373.091l-.053.999-.052.999c.393.02.978-.021 1.699-.101l-.11-.994zm-1.536.096l.095-.995a.28.28 0 01-.204-.095l-.73.682-.732.682a2.28 2.28 0 001.476.722l.095-.996zm-.84-.408l.731-.682c-.026-.028-.049-.056-.044-.16l-.999-.046-.999-.045a2.168 2.168 0 00.58 1.615l.731-.682zm-.312-.888l.995.1c.005-.052.018-.096.096-.163l-.659-.753-.658-.753c-.435.38-.71.881-.769 1.47l.995.099zm.432-.816l.684.73a.624.624 0 01.363-.171l-.135-.991-.135-.99a2.621 2.621 0 00-1.46.692l.683.73zm.912-.432l.096.995a81.883 81.883 0 001.946-.218l-.122-.993-.121-.993c-.78.096-1.411.167-1.895.214l.096.995zm1.92-.216l.122.993c.789-.097 1.657-.21 2.605-.338l-.135-.991-.134-.99c-.94.127-1.8.238-2.58.333l.122.993zm2.592-.336l.97.247c.202-.797.437-1.619.704-2.467l-.954-.3-.954-.3a48.53 48.53 0 00-.735 2.573l.97.247zm.72-2.52l.956.295c.267-.866.543-1.692.825-2.476l-.94-.339-.942-.339c-.293.816-.578 1.67-.854 2.564l.955.295zm.84-2.52l.937.35c.299-.803.579-1.494.84-2.078l-.913-.408-.913-.408a37.484 37.484 0 00-.888 2.195l.937.349zm.864-2.136l.913.408c.262-.585.466-.926.603-1.092l-.772-.636-.772-.636c-.31.378-.602.917-.885 1.548l.913.408zm.744-1.32l.764.646a.761.761 0 01.285-.21l-.4-.916-.402-.916a2.76 2.76 0 00-1.01.75l.763.646zm.648-.48l.38.925a1.08 1.08 0 01.412-.093v-2c-.405 0-.798.089-1.173.243l.381.925zm.792-.168v1c.024 0 .04.002.046.004.007 0 .009.002.006 0a.027.027 0 01-.004-.001l.003.002a.135.135 0 01.01.01l.755-.655.756-.655a2.027 2.027 0 00-1.572-.705v1zm.816.36l-.756.655c.05.057.068.104.068.185h2c0-.559-.19-1.072-.556-1.495l-.756.655zm.312.84h-1c0 .087-.005.186-.018.298l.994.11.994.11c.02-.176.03-.349.03-.518h-1zm-.024.408l-.992-.124a.69.69 0 01-.04.157L58.64 7l.936.351c.074-.197.126-.4.152-.611l-.992-.124zM58.641 7l-.935-.355a50.937 50.937 0 00-1.004 2.963l.955.296.955.296c.348-1.123.67-2.07.964-2.845L58.64 7zm-.984 2.904l-.959-.284c-.338 1.145-.693 2.4-1.062 3.767l.965.261.965.261a171.93 171.93 0 011.05-3.721l-.959-.284zm-1.056 3.744l.145.99c1.202-.177 2.38-.353 3.534-.53l-.15-.988-.152-.988c-1.15.175-2.324.35-3.522.527l.145.989zm3.528-.528l.162.987a653.08 653.08 0 003.173-.53l-.167-.985-.167-.986c-.942.16-1.996.335-3.163.527l.162.987zm3.168-.528l.18.984a66.784 66.784 0 002.341-.464l-.217-.976-.217-.976a65.46 65.46 0 01-2.267.448l.18.984zm2.304-.456l.33.944c.058-.02.062-.01.026-.014a.255.255 0 01-.121-.044l.581-.814.581-.814c-.55-.393-1.18-.393-1.727-.202l.33.944zm.816.072l-.54.841a.32.32 0 01-.108-.125c-.024-.048-.016-.065-.016-.02h2c0-.58-.224-1.17-.795-1.537l-.54.841zM62.751 25.48l.57-.822-.011-.008-.012-.007-.547.837zm-.984-1.08l-.888.46.003.006.004.006.881-.472zm.288-4.392l-.903-.429-.006.013.91.416zm1.752-2.688l-.762-.647.762.647zm2.352-2.328l.639.77.001-.002-.64-.768zm2.568-1.848l-.51-.86-.007.004.517.856zm2.352-1.2l-.371-.929-.007.003.378.926zm2.808-.12l-.585.81.025.019.026.016.534-.845zm.36 1.224l-.78-.625-.994 1.242 1.55.357.224-.974zm.504.36l.832-.555-.832.555zm-.192 4.56l-.995-.1v.009l-.001.008.996.083zm-.048 3.432l-.936.351.008.022.01.02.918-.393zm2.256-.216l.364.932.011-.005-.375-.927zm1.944-.984l.524.852.006-.004-.53-.848zm1.728-1.176l.6.8.004-.003-.604-.797zm1.32-.984l.588.809.007-.005-.595-.804zm1.008 1.32l-.796-.604-.004.004.8.6zm-1.392 1.56l.698.717.01-.01-.708-.707zm-1.992 1.728l.614.79.003-.002-.617-.788zm-2.256 1.392l-.425-.905-.007.003.432.902zm-4.248-.072l-.68.733.006.006.007.006.667-.745zm-.96-1.68l-.971.238.003.012.004.013.964-.263zm-.288-2.424l1-.018-.055-3.08-1.764 2.525.82.573zm-2.544 3.12l-.72-.694.72.694zM66.52 25.12l-.528-.849.528.849zm6.12-11.232l.842.54 1.908-2.968-3.182 1.526.432.902zm-4.224 2.592l.61.793.006-.005-.616-.788zm-2.976 3.024l-.82-.572-.006.009.826.563zm.504 2.928l-.566-.824-.006.004-.006.005.578.815zM67.6 21.04l.698.717.01-.01-.708-.707zm1.776-1.968l.773.635.007-.008-.78-.627zm2.88-4.464l-.916-.4-.002.004.918.396zm-8.112 11.304v-1a1.39 1.39 0 01-.822-.254l-.57.822-.569.822a3.39 3.39 0 001.961.61v-1zm-1.392-.432l.547-.837a1.909 1.909 0 01-.65-.715l-.88.472-.882.472a3.91 3.91 0 001.318 1.445l.547-.837zm-.984-1.08l.889-.46a2.193 2.193 0 01-.249-1.028h-2c0 .686.158 1.34.472 1.947l.888-.459zm-.36-1.488h1c0-.842.183-1.668.558-2.488l-.91-.416-.909-.416a7.91 7.91 0 00-.739 3.32h1zm.648-2.904l.904.429c.408-.86.943-1.684 1.61-2.47l-.762-.647-.762-.647a13.29 13.29 0 00-1.893 2.906l.903.429zm1.752-2.688l.763.647a18.012 18.012 0 012.228-2.206l-.639-.769-.639-.77a20.008 20.008 0 00-2.475 2.45l.762.648zm2.352-2.328l.64.768A19.928 19.928 0 0169.244 14l-.517-.856-.517-.856a21.932 21.932 0 00-2.69 1.936l.64.768zm2.568-1.848l.51.86c.835-.494 1.574-.87 2.22-1.134l-.378-.926-.378-.926c-.761.312-1.59.736-2.483 1.266l.51.86zm2.352-1.2l.372.928c.691-.276 1.106-.36 1.308-.36v-2c-.597 0-1.303.204-2.051.503l.371.929zm1.68-.432v1c.318 0 .47.07.543.123l.585-.811.586-.81c-.504-.365-1.104-.502-1.714-.502v1zm1.128.312l-.534.845c.007.005.004.004-.002-.003a.103.103 0 01-.016-.023c-.007-.014.008.006.008.093h2c0-.696-.278-1.35-.922-1.758l-.534.846zm.456.912h-1a.53.53 0 01.123-.313l.781.625.781.625c.238-.298.315-.64.315-.937h-1zm-.096.312l-.225.974a.22.22 0 01-.074-.034c-.025-.018-.033-.032-.029-.025l.832-.555.832-.555a1.81 1.81 0 00-1.11-.78l-.226.975zm.504.36l-.832.555c-.02-.031-.012-.034 0 .022.012.055.024.147.024.287h2c0-.463-.071-.986-.36-1.419l-.832.555zm.192.864h-1v.027l-.005.072c-.004.06-.01.139-.02.237-.02.198-.048.461-.088.794l.993.118.993.118c.077-.647.127-1.133.127-1.366h-1zm-.12 1.248l-.993-.118c-.08.68-.17 1.503-.266 2.467l.995.099.995.1c.096-.957.183-1.766.262-2.43l-.993-.118zm-.264 2.448l-.996-.083a36.91 36.91 0 00-.124 3.083h2c0-1.014.04-1.987.117-2.917l-.997-.083zm-.12 3h-1c0 .26.04.526.136.783l.936-.351.937-.351a.215.215 0 01-.009-.081h-1zm.072.432l-.919.394c.11.257.301.474.56.613.24.129.482.161.671.161v-2a.6.6 0 01.276.077.75.75 0 01.331.361l-.919.394zm.312.168v1a6.33 6.33 0 002.308-.452l-.364-.932-.363-.932a4.323 4.323 0 01-1.58.316v1zm1.944-.384l.376.927a14.039 14.039 0 002.092-1.06l-.524-.851-.524-.852a12.15 12.15 0 01-1.795.91l.375.926zm1.944-.984l.53.848c.66-.412 1.26-.82 1.798-1.224l-.6-.8-.6-.8c-.486.364-1.038.74-1.658 1.128l.53.848zm1.728-1.176l.604.797c.525-.398.96-.722 1.304-.972l-.588-.809-.588-.809c-.36.261-.805.594-1.336.996l.604.797zm1.32-.984l.595.804c.17-.125.285-.2.354-.24.035-.02.041-.02.024-.014a.793.793 0 01-.252.042v-2c-.208 0-.378.057-.47.093-.104.04-.203.09-.288.139-.17.096-.359.225-.557.372l.594.804zm.72-.408v1c.056 0 .064.007.041 0a.366.366 0 01-.136-.089.365.365 0 01-.088-.136c-.008-.023 0-.015 0 .041h2c0-.426-.108-.93-.498-1.32-.39-.389-.893-.496-1.319-.496v1zm.816.816h-1c0-.08.012-.14.02-.171.007-.033.015-.052.017-.057.002-.006-.005.013-.034.063a5.26 5.26 0 01-.327.473l.796.604.797.604c.187-.246.347-.476.465-.679a2.49 2.49 0 00.164-.333c.041-.105.102-.286.102-.504h-1zm-.528.912l-.8-.6c-.297.397-.726.88-1.299 1.453l.707.707.707.707c.611-.61 1.11-1.168 1.485-1.667l-.8-.6zm-1.392 1.56l-.697-.717c-.563.548-1.2 1.1-1.911 1.657l.616.788.617.788a25.554 25.554 0 002.073-1.8l-.698-.716zm-1.992 1.728l-.614-.79c-.664.517-1.353.942-2.067 1.277l.425.905.425.905c.855-.4 1.67-.904 2.445-1.508l-.614-.789zm-2.256 1.392l-.432-.902c-.657.315-1.254.454-1.8.454v2c.895 0 1.786-.23 2.664-.65l-.432-.902zm-2.232.552v-1c-.734 0-1.131-.174-1.348-.369l-.668.745-.667.745c.71.637 1.658.879 2.683.879v-1zm-2.016-.624l.68-.733c-.286-.266-.522-.651-.675-1.21l-.965.263-.965.263c.232.849.636 1.584 1.245 2.15l.68-.733zm-.96-1.68l.972-.238c-.156-.634-.245-1.367-.26-2.204l-1 .018-1 .018c.017.955.12 1.838.317 2.643l.971-.237zm-.288-2.424l-.82-.573a24.573 24.573 0 01-2.443 2.999l.72.694.719.694a26.576 26.576 0 002.644-3.241l-.82-.573zm-2.544 3.12l-.72-.694c-.82.85-1.613 1.506-2.376 1.981l.528.849.529.849c.932-.58 1.851-1.35 2.76-2.29l-.72-.695zM66.52 25.12l-.528-.849c-.745.463-1.354.641-1.848.641v2c.979 0 1.953-.35 2.905-.943l-.529-.849zm6.12-11.232l-.432-.902a23.904 23.904 0 00-4.408 2.706l.616.788.616.788a21.905 21.905 0 014.04-2.478l-.432-.902zm-4.224 2.592l-.61-.793c-1.311 1.01-2.38 2.089-3.186 3.245l.82.572.82.572c.667-.956 1.582-1.892 2.766-2.803l-.61-.793zm-2.976 3.024l-.826-.563c-.798 1.17-1.254 2.38-1.254 3.611h2c0-.721.265-1.544.907-2.485l-.827-.563zm-1.08 3.048h-1c0 .276.064.668.368.991a1.37 1.37 0 001.016.417v-2c.043 0 .254.014.44.213.177.187.176.375.176.379h-1zm.384.408v1c.635 0 1.255-.34 1.779-.713l-.579-.815-.578-.816a3.03 3.03 0 01-.496.297c-.125.054-.16.047-.126.047v1zm1.2-.528l.567.824c.57-.392 1.166-.896 1.787-1.5l-.698-.716-.697-.717c-.564.549-1.072.973-1.525 1.285l.566.824zM67.6 21.04l.707.707a28.3 28.3 0 001.842-2.04l-.773-.635-.772-.635a26.322 26.322 0 01-1.71 1.896l.706.707zm1.776-1.968l.78.627c.61-.759 1.18-1.535 1.708-2.328l-.832-.555-.832-.555a30.3 30.3 0 01-1.603 2.184l.78.627zm1.656-2.256l.832.555c.54-.809.978-1.597 1.31-2.367l-.918-.396-.918-.396a13.08 13.08 0 01-1.138 2.05l.832.554zm1.224-2.208l.916.4c.092-.209.195-.402.31-.58l-.842-.54-.84-.54a6.14 6.14 0 00-.46.86l.916.4zm10.881 10.44l.536-.845-.008-.004-.007-.005-.52.854zm-1.512-1.56l-.881.473.005.009.876-.482zm0-5.208l.94.34.003-.006-.943-.334zm1.392-2.688l.812.584.005-.007-.817-.577zm1.872-2.16l-.672-.74-.008.007.68.733zm1.992-1.56l.545.838.005-.003-.55-.835zm1.752-.96l.376.926.013-.004.012-.006-.4-.916zm2.04-.048l-.737.676.03.032.031.03.676-.738zm-.24 1.752l-.69-.723-.009.008-.008.008.707.707zm-1.344 1.152l-.61-.792-.012.009.622.783zm-1.728 1.464l.667.745-.667-.745zm-1.752 1.824l-.768-.64-.005.005-.004.006.777.629zm-1.344 2.208l-.915-.403-.004.008-.003.008.922.387zm-.312 3.432l-.832.555.015.023.017.022.8-.6zm3.624-.192l.294.956.01-.003-.304-.953zm3.144-1.248l.43.903.006-.003-.436-.9zm2.976-1.584l-.5-.867-.006.004.506.863zm2.424-1.464l.54.841.02-.011.017-.013-.577-.817zm.696-.456l.504.864-.504-.864zm.552 1.608l-.747-.664-.017.019-.017.02.781.625zm-1.824 1.728l-.61-.792-.008.006.618.786zm-2.52 1.704l-.506-.863-.006.004.512.859zm-2.808 1.464l-.41-.912-.006.003.416.909zm-2.664 1.032l-.294-.956.294.956zm-2.088.384v-1c-.736 0-1.32-.169-1.792-.469l-.536.845-.535.845c.84.532 1.807.779 2.863.779v-1zm-2.328-.624l.52-.854a3.155 3.155 0 01-1.156-1.188l-.876.482-.876.482c.44.8 1.07 1.446 1.867 1.932l.521-.854zm-1.512-1.56l.881-.473a3.218 3.218 0 01-.409-1.543h-2c0 .866.224 1.7.647 2.489l.881-.473zm-.528-2.016h1c0-1.049.16-1.997.469-2.853l-.94-.339-.942-.34c-.395 1.097-.587 2.277-.587 3.532h1zm.528-3.192l.943.334a9.692 9.692 0 011.26-2.438l-.81-.584-.812-.584a11.681 11.681 0 00-1.523 2.938l.942.334zm1.392-2.688l.817.577a12.76 12.76 0 011.736-2.004l-.68-.733-.681-.733a14.765 14.765 0 00-2.009 2.316l.817.577zm1.872-2.16l.672.74a14.91 14.91 0 011.865-1.462l-.545-.838-.545-.838c-.693.45-1.4 1.005-2.119 1.657l.672.741zm1.992-1.56l.55.835c.622-.41 1.147-.693 1.578-.869l-.376-.926-.376-.926c-.592.24-1.236.596-1.926 1.05l.55.836zm1.752-.96l.4.916a4.86 4.86 0 01.552-.21c.146-.043.194-.042.176-.042v-2c-.469 0-1.015.195-1.529.42l.401.916zm1.128-.336v1a.9.9 0 01.251.026c.022.006-.022-.003-.076-.062l.737-.676.737-.676c-.459-.5-1.114-.612-1.649-.612v1zm.912.288l-.676.737c-.054-.05-.064-.09-.06-.075.008.022.024.09.024.226h2c0-.533-.118-1.172-.612-1.625l-.676.737zm.288.888h-1c0-.124.044-.173.015-.126a1.467 1.467 0 01-.233.267l.69.723.69.723c.374-.356.838-.9.838-1.587h-1zm-.528.864l-.707-.707c-.295.295-.707.65-1.248 1.067l.611.792.61.792c.58-.447 1.064-.86 1.441-1.237l-.707-.707zm-1.344 1.152l-.622-.783a39.7 39.7 0 00-1.773 1.502l.667.745.667.745a37.762 37.762 0 011.683-1.426l-.622-.783zm-1.728 1.464l-.667-.745a18.309 18.309 0 00-1.853 1.929l.768.64.768.64a16.316 16.316 0 011.65-1.719l-.666-.745zm-1.752 1.824l-.777-.63c-.6.743-1.095 1.555-1.482 2.435l.915.403.915.403c.317-.72.719-1.38 1.206-1.982l-.777-.629zm-1.344 2.208l-.922-.387a7.687 7.687 0 00-.582 3.003h2c0-.823.146-1.562.426-2.229l-.922-.387zm-.504 2.616h-1c0 .453.079.95.36 1.37l.832-.554.832-.555c.015.022.008.022-.003-.022a1.082 1.082 0 01-.02-.239h-1zm.192.816l-.8.6c.392.523.975.688 1.496.688v-2c-.063 0-.065-.01-.031.004a.355.355 0 01.136.108l-.8.6zm.696.288v1c1.029 0 2.105-.18 3.222-.524l-.294-.956-.294-.956c-.962.296-1.839.436-2.634.436v1zm2.928-.48l.303.953a25.695 25.695 0 003.272-1.298l-.43-.903-.431-.903c-1 .477-2.006.877-3.017 1.198l.303.953zm3.144-1.248l.436.9a43.854 43.854 0 003.046-1.621l-.506-.863-.506-.863a41.863 41.863 0 01-2.906 1.547l.436.9zm2.976-1.584l.5.866a60.413 60.413 0 002.465-1.489l-.54-.841-.542-.841c-.654.42-1.448.9-2.382 1.439l.5.866zm2.424-1.464l.577.817a8.93 8.93 0 01.623-.41l-.504-.863-.504-.864a11.25 11.25 0 00-.769.503l.577.817zm.696-.456l.504.864a1.802 1.802 0 01.123-.065l-.038.012a.622.622 0 01-.18.021v-2c-.24 0-.439.074-.544.117a3.057 3.057 0 00-.369.187l.504.864zm.408-.168v1c.078 0-.046.018-.178-.119-.127-.13-.102-.239-.102-.137h2c0-.394-.095-.875-.461-1.253-.373-.385-.856-.491-1.259-.491v1zm.72.744h-1c0-.11.037-.134-.017-.037-.049.086-.142.22-.306.405l.747.664.748.664c.22-.247.414-.501.557-.759.138-.247.271-.57.271-.937h-1zm-.576 1.032l-.78-.625c-.385.48-.93 1.002-1.654 1.561l.61.792.61.792c.811-.625 1.483-1.255 1.995-1.895l-.78-.625zm-1.824 1.728l-.618-.786a21.312 21.312 0 01-2.408 1.627l.506.863.506.863a23.305 23.305 0 002.633-1.781l-.619-.786zm-2.52 1.704l-.512-.859c-.88.525-1.781.995-2.706 1.411l.41.912.41.912a28.516 28.516 0 002.91-1.517l-.512-.859zm-2.808 1.464l-.416-.91c-.912.418-1.759.745-2.542.986l.294.956.294.956c.88-.271 1.81-.632 2.786-1.079l-.416-.909zm-2.664 1.032l-.294-.956c-.783.241-1.373.34-1.794.34v2c.699 0 1.502-.157 2.382-.428l-.294-.956zm25.743-11.88l.748.664-.748-.664zm-.48.336l.381.925.004-.002-.385-.923zm-1.416.432l-.253-.967.253.967zm-2.448.6l-.227-.974-.003.001.23.973zm-3.048.696l.202.98.014-.004-.216-.976zm-3.264.648l-.187-.982-.614.117-.164.604.965.261zm-1.272 4.752l.967.258v-.002l-.967-.256zm-1.296 4.776l.962.275.003-.01-.965-.265zm-.575 1.272l-.79-.614-.008.01-.008.01.806.594zm-2.352-.12l-.887.463.003.006.004.007.88-.476zm-.073-1.512l-.972-.232-.003.012.975.22zm1.153-4.872l-.972-.238-.002.01.974.228zm.888-3.648l.972.235.354-1.47-1.49.249.164.986zm-2.52.384l.11.994.01-.001.012-.002-.133-.991zm-1.537.096l-.094.995.02.003h.022l.052-.998zm-.84-.408l-.73.682.73-.682zm-.312-.888l-.995-.1-.002.027-.002.028 1 .045zm.432-.816l.659.753.013-.012.012-.011-.684-.73zm.913-.432l-.097-.995-.02.002-.019.002.136.991zm4.511-.552l.135.99.668-.09.167-.653-.97-.247zm.72-2.52l.954.3.002-.005-.956-.295zm.84-2.52l-.937-.35-.003.011.94.339zm1.608-3.456l-.763-.646-.008.01.771.636zm.648-.48l-.38-.925-.01.004-.01.005.4.916zm1.608.192l-.755.655.755-.655zm.288 1.248l.993.124.001-.014-.994-.11zm-.096.384l.935.355.002-.004-.937-.351zm-.984 2.904l-.955-.296-.003.012.958.284zm-1.056 3.744l-.965-.261-.398 1.472 1.509-.222-.146-.989zm3.528-.528l.152.989.011-.002-.163-.987zm3.168-.528l.168.986.013-.002-.181-.984zm2.304-.456l.217.976.058-.013.056-.02-.331-.943zm.816.072l-.581.814.02.014.021.013.54-.841zm.336.696h-1a.26.26 0 01.018-.086.239.239 0 01.043-.074l.747.664.748.664c.29-.326.444-.73.444-1.168h-1zm-.192.504l-.747-.664a.304.304 0 01-.117.077l.384.923.385.923a2.3 2.3 0 00.843-.595l-.748-.664zm-.48.336l-.38-.925c-.204.084-.618.214-1.289.39l.253.967.254.967c.673-.176 1.203-.334 1.543-.474l-.381-.925zm-1.416.432l-.253-.967c-.66.173-1.467.37-2.422.593l.227.974.228.974c.965-.225 1.79-.428 2.474-.607l-.254-.967zm-2.448.6l-.23-.973c-.939.223-1.949.454-3.033.692l.215.977.216.976c1.092-.24 2.114-.474 3.063-.699l-.231-.973zm-3.048.696l-.201-.98c-1.084.224-2.167.439-3.25.646l.187.982.188.982c1.093-.209 2.186-.426 3.278-.65l-.202-.98zm-3.264.648l-.965-.261a868.535 868.535 0 00-1.273 4.757l.966.256.967.256c.432-1.63.855-3.212 1.271-4.747l-.966-.261zm-1.272 4.752l-.966-.258a630.4 630.4 0 01-1.294 4.768l.964.266.965.266c.432-1.57.865-3.165 1.298-4.784l-.967-.258zm-1.296 4.776l-.961-.275c-.143.502-.291.788-.404.933l.79.614.789.614c.335-.431.571-.993.748-1.611l-.962-.275zm-.575 1.272l-.806-.593c.01-.013.016-.009-.019.005a.929.929 0 01-.328.044v2c.714 0 1.472-.204 1.958-.863l-.805-.593zm-1.152.456v-1c-.194 0-.284-.032-.312-.046-.012-.005-.013-.007-.009-.004.004.004.004.005 0-.002l-.88.476-.879.476c.444.82 1.27 1.1 2.08 1.1v-1zm-1.2-.576l.886-.463c-.035-.066-.103-.294.017-.83l-.975-.219-.976-.22c-.168.745-.188 1.525.16 2.195l.888-.463zm-.073-1.512l.973.232c.416-1.745.8-3.37 1.153-4.876l-.974-.228-.973-.228c-.352 1.503-.736 3.125-1.151 4.868l.972.232zm1.153-4.872l.97.238c.369-1.505.665-2.722.89-3.651l-.972-.235-.973-.235c-.223.927-.519 2.142-.887 3.645l.972.238zm.888-3.648l-.165-.986c-.953.158-1.781.285-2.488.379l.132.991.133.991a80.454 80.454 0 002.552-.389l-.164-.986zm-2.52.384l-.11-.994c-.72.08-1.16.103-1.374.091l-.053.999-.052.999c.394.02.978-.021 1.699-.101l-.11-.994zm-1.537.096l.095-.995a.28.28 0 01-.204-.095l-.73.682-.732.682a2.28 2.28 0 001.477.722l.094-.996zm-.84-.408l.731-.682c-.025-.028-.048-.056-.043-.16l-1-.046-.999-.045a2.168 2.168 0 00.58 1.615l.732-.682zm-.312-.888l.995.1c.006-.052.019-.096.096-.163l-.659-.753-.658-.753c-.435.38-.71.881-.769 1.47l.995.099zm.432-.816l.684.73a.624.624 0 01.364-.171l-.135-.991-.136-.99a2.621 2.621 0 00-1.46.692l.683.73zm.913-.432l.096.995a81.304 81.304 0 001.945-.218l-.121-.993-.122-.993c-.78.096-1.41.167-1.895.214l.097.995zm1.92-.216l.121.993c.79-.097 1.657-.21 2.605-.338l-.135-.991-.134-.99c-.94.127-1.8.238-2.58.333l.123.993zm2.591-.336l.97.247c.203-.797.437-1.619.704-2.467l-.954-.3-.953-.3a48.38 48.38 0 00-.736 2.573l.97.247zm.72-2.52l.956.295c.268-.866.543-1.692.825-2.476l-.941-.339-.94-.339c-.294.816-.579 1.67-.855 2.564l.955.295zm.84-2.52l.938.35a35.13 35.13 0 01.839-2.078l-.913-.408-.912-.408a37.805 37.805 0 00-.889 2.195l.937.349zm.864-2.136l.913.408c.262-.585.466-.926.603-1.092l-.772-.636-.771-.636c-.311.378-.603.917-.885 1.548l.912.408zm.744-1.32l.764.646a.768.768 0 01.285-.21l-.401-.916-.4-.916a2.754 2.754 0 00-1.011.75l.763.646zm.648-.48l.381.925a1.08 1.08 0 01.411-.093v-2a3.07 3.07 0 00-1.172.243l.38.925zm.792-.168v1c.025 0 .04.002.047.004.007 0 .008.002.006 0h-.003a.008.008 0 00-.002-.001l.004.002a.106.106 0 01.009.01l.755-.655.756-.655a2.027 2.027 0 00-1.572-.705v1zm.816.36l-.755.655a.247.247 0 01.067.185h2a2.24 2.24 0 00-.556-1.495l-.756.655zm.312.84h-1a2.8 2.8 0 01-.017.298l.993.11.994.11c.02-.176.03-.349.03-.518h-1zm-.024.408l-.992-.124a.712.712 0 01-.04.157l.936.351.937.351c.074-.197.126-.4.152-.611l-.993-.124zm-.096.384l-.934-.355a50.597 50.597 0 00-1.005 2.963l.955.296.956.296c.348-1.123.669-2.07.963-2.845L105.375 7zm-.984 2.904l-.958-.284c-.339 1.145-.693 2.4-1.063 3.767l.965.261.966.261c.366-1.354.716-2.594 1.049-3.721l-.959-.284zm-1.056 3.744l.146.99c1.201-.177 2.379-.353 3.534-.53l-.152-.988-.151-.988c-1.149.175-2.324.35-3.522.527l.145.989zm3.528-.528l.163.987c1.169-.192 2.227-.369 3.173-.53l-.168-.985-.167-.986c-.942.16-1.996.335-3.163.527l.162.987zm3.168-.528l.181.984a66.754 66.754 0 002.34-.464l-.217-.976-.216-.976a65.12 65.12 0 01-2.268.448l.18.984zm2.304-.456l.331.944c.057-.02.061-.01.026-.014a.252.252 0 01-.122-.044l.581-.814.582-.814c-.551-.393-1.181-.393-1.728-.202l.33.944zm.816.072l-.54.841a.32.32 0 01-.108-.125c-.023-.048-.016-.065-.016-.02h2c0-.58-.224-1.17-.795-1.537l-.541.841zm17.212 13.416l.707-.707-.707.707zm-.312-3.6l-.994-.103-.001.008-.001.008.996.087zm.528-3.576l.985.173-1.884-.61.899.437zm-1.752 3.072l-.827-.561.827.561zm-1.8 2.112l.653.758.001-.002-.654-.756zm-3.672-.024l-.729.685.006.005.005.006.718-.696zm-.576-5.28l-.989-.147-.001.01-.001.008.991.129zm.48-2.592l.976.217-.976-.217zm.576-2.304l-.957-.29-.002.008-.002.007.961.275zm.552-1.536l.903.43.006-.012.005-.012-.914-.406zm.48-.672l-.609-.793-.016.012-.015.013.64.768zm1.968.264l-.777.63.777-.63zm.216 2.208l-.97-.242-.004.014-.003.014.977.214zm-.432 1.704l-.962-.271-.003.011-.003.012.968.248zm-.504 1.92l-.966-.26.966.26zm-.456 1.848l-.976-.217-.003.013-.002.013.981.191zm1.272 1.56l-.761-.649-.007.009-.007.008.775.632zM128.083 19l-.87-.492-.004.006.874.486zm1.248-2.4l-.897-.44-.004.006.901.434zm1.176-2.664l-.927-.374-.004.008.931.366zm.936-2.52l-.948-.316.948.316zm.648-1.008l-.576-.817.576.817zm2.184.168l-.726.688.01.01.009.01.707-.708zm.336 2.592l-.991-.13.991.13zm-.312 2.136l-.988-.155-.001.01-.001.009.99.136zm-.408 2.592l-.985-.173.985.173zm-.48 2.688l-.984-.179-.001.009-.002.008.987.162zm-.432 2.424l.981.196.001-.004-.982-.192zm-.36 1.728l.97.242.004-.012.002-.013-.976-.217zm-.576 1.152l-.496-.868.496.868zm-.672.192v-1c-.058 0-.15-.013-.301-.163l-.707.707-.707.707c.458.458 1.037.749 1.715.749v-1zm-1.008-.456l.707-.707c-.006-.007-.139-.162-.139-.757h-2c0 .781.156 1.602.725 2.171l.707-.707zm-.432-1.464h1c0-.469.037-1.147.116-2.049l-.996-.087-.996-.087a26.934 26.934 0 00-.124 2.223h1zm.12-2.136l.995.103c.093-.895.264-2.061.518-3.506l-.985-.173-.985-.173c-.258 1.467-.438 2.685-.537 3.646l.994.103zm.528-3.576l-.899-.437a23.729 23.729 0 01-1.68 2.948l.827.561.828.561a25.851 25.851 0 001.824-3.196l-.9-.437zm-1.752 3.072l-.827-.561c-.576.849-1.121 1.479-1.627 1.917l.654.756.654.756c.678-.586 1.334-1.364 1.974-2.307l-.828-.561zm-1.8 2.112l-.652-.758c-.473.408-.802.502-1.004.502v2c.854 0 1.63-.402 2.309-.986l-.653-.758zm-1.656.744v-1c-.632 0-1.025-.183-1.298-.464l-.718.696-.718.696c.72.743 1.671 1.072 2.734 1.072v-1zm-2.016-.768l.729-.685c-.215-.229-.473-.865-.473-2.267h-2c0 1.478.239 2.81 1.015 3.637l.729-.685zm-.744-2.952h1c0-.636.052-1.367.16-2.2l-.992-.128-.991-.129a19.135 19.135 0 00-.177 2.457h1zm.168-2.328l.989.146c.125-.84.281-1.68.467-2.521l-.976-.217-.976-.217a38.147 38.147 0 00-.493 2.662l.989.147zm.48-2.592l.976.217c.189-.85.376-1.598.562-2.246l-.962-.275-.961-.275a40.73 40.73 0 00-.591 2.362l.976.217zm.576-2.304l.957.29c.205-.676.371-1.13.498-1.396l-.903-.43-.903-.43c-.193.406-.394.976-.606 1.677l.957.289zm.552-1.536l.914.406a.854.854 0 01.206-.31l-.64-.768-.64-.768a2.82 2.82 0 00-.754 1.034l.914.406zm.48-.672l.61.793a.098.098 0 01.034-.016.527.527 0 01.148-.017v-2c-.491 0-.983.126-1.401.447l.609.793zm.792-.24v1c.272 0 .353.076.399.133l.777-.629.777-.63c-.497-.614-1.201-.874-1.953-.874v1zm1.176.504l-.777.63c.162.199.185.328.185.402h2c0-.63-.248-1.189-.631-1.661l-.777.629zm.408 1.032h-1c0 .146-.039.441-.162.934l.97.242.97.242c.133-.531.222-1.02.222-1.418h-1zm-.192 1.176l-.977-.214a28.65 28.65 0 01-.417 1.647l.962.271.963.271c.18-.638.329-1.226.446-1.761l-.977-.214zm-.432 1.704l-.968-.248c-.159.62-.327 1.256-.502 1.909l.966.259.966.26c.177-.66.346-1.304.507-1.932l-.969-.248zm-.504 1.92l-.966-.26a45.913 45.913 0 00-.466 1.891l.976.217.976.217c.125-.56.273-1.162.446-1.806l-.966-.259zm-.456 1.848l-.981-.19a8.787 8.787 0 00-.187 1.654h2c0-.314.045-.734.15-1.273l-.982-.191zm-.168 1.464h-1c0 .35.063.795.354 1.17.328.424.798.574 1.222.574v-2c.01 0 .066.002.144.035a.558.558 0 01.215.167c.052.067.067.12.07.13.002.008-.005-.013-.005-.076h-1zm.576.744v1c.425 0 .764-.197.984-.362.235-.176.453-.406.655-.654l-.775-.632-.775-.632a1.95 1.95 0 01-.305.318c-.025.019-.022.012.008 0a.54.54 0 01.208-.038v1zm.864-.648l.761.648c.426-.499.846-1.136 1.265-1.89l-.874-.486-.874-.486c-.381.686-.728 1.2-1.039 1.566l.761.648zM128.083 19l.871.492c.428-.757.854-1.577 1.278-2.458l-.901-.434-.901-.434a39.785 39.785 0 01-1.217 2.342l.87.492zm1.248-2.4l.898.44c.444-.903.847-1.816 1.209-2.738l-.931-.366-.931-.366c-.341.87-.722 1.733-1.142 2.59l.897.44zm1.176-2.664l.928.374c.374-.927.693-1.787.957-2.578l-.949-.316-.948-.316a43.306 43.306 0 01-.915 2.462l.927.374zm.936-2.52l.949.316c.126-.377.248-.487.276-.507l-.577-.817-.576-.817c-.516.364-.826.926-1.02 1.509l.948.316zm.648-1.008l.577.817a.583.583 0 01.359-.105v-2a2.58 2.58 0 00-1.512.471l.576.817zm.936-.288v1c.356 0 .475.094.522.144l.726-.688.726-.688c-.529-.558-1.242-.768-1.974-.768v1zm1.248.456l-.707.707c.065.065.163.21.163.589h2c0-.742-.205-1.46-.749-2.003l-.707.707zm.456 1.296h-1c0 .184-.031.558-.111 1.165l.991.131.992.13c.08-.608.128-1.098.128-1.426h-1zm-.12 1.296l-.991-.13a90.472 90.472 0 01-.309 2.111l.988.155.988.155c.129-.822.234-1.542.316-2.16l-.992-.131zm-.312 2.136l-.99-.136a71.848 71.848 0 01-.403 2.555l.985.173.985.173c.162-.923.3-1.8.414-2.629l-.991-.136zm-.408 2.592l-.985-.173c-.159.91-.319 1.804-.479 2.682l.984.179.984.179c.16-.882.321-1.78.481-2.694l-.985-.173zm-.48 2.688l-.987-.162c-.142.872-.284 1.67-.426 2.394l.981.192.982.192a80.99 80.99 0 00.437-2.454l-.987-.162zm-.432 2.424l-.98-.196a88.763 88.763 0 01-.356 1.707l.976.217.976.217c.099-.442.22-1.026.365-1.749l-.981-.196zm-.36 1.728l-.97-.242a2.925 2.925 0 01-.188.563c-.025.049-.037.063-.032.056a.433.433 0 01.118-.093l.496.868.496.868c.363-.207.579-.542.711-.805.141-.282.25-.615.339-.973l-.97-.242zm-.576 1.152l-.496-.868a.358.358 0 01-.176.06v2a2.34 2.34 0 001.168-.324l-.496-.868zm7.132.048l-.577.817.011.008.011.007.555-.832zm-.072-1.656l.707.707.012-.012.012-.013-.731-.682zm1.488-.72l-.291-.957-.007.002.298.955zm2.544-.936l.403.915.008-.003-.411-.912zm1.992-1.2l-.633-.774-.006.005-.006.005.645.764zm.456-2.064l-.569.822.014.01.014.01.541-.842zm-1.8-.096l.141.99.015-.002.014-.002-.17-.986zm-1.488.264l.174.985.014-.003.014-.003-.202-.979zm-1.584.264l.128.992.013-.002.013-.002-.154-.988zm-3.12-.456l-.693.721.008.008.008.007.677-.736zm-.096-2.784l-.858-.514.858.514zm1.344-1.848l.768.64-.768-.64zm1.872-2.016l.699.715-.699-.715zm2.088-1.848l.623.783.002-.002-.625-.781zm2.04-1.368l.465.885.008-.004.009-.005-.482-.876zm2.856-.048l-.725.689.009.009.009.01.707-.708zm.408 2.136l.986.164.002-.008-.988-.156zm-.36.792l.759.65.011-.012.011-.013-.781-.625zm-2.52.432l.183-.983-.426-.08-.349.257.592.806zm-1.704 1.32l.627.779.003-.002-.63-.777zm-1.632 1.464l.696.718.005-.005.006-.006-.707-.707zm-1.272 1.464l-.819-.573-1.712 2.445 2.839-.92-.308-.952zm2.016-.456l.147.99.011-.002.01-.002-.168-.986zm4.536.312l-.504.864.014.008.014.008.476-.88zm1.296 1.296l-.894.447.005.01.005.01.884-.467zm-.288 4.008l-.838-.546.838.546zm-1.92 2.016l.605.796-.605-.796zm-2.664 1.464l.353.936-.353-.936zm-2.952.552v-1a3.65 3.65 0 01-.689-.053c-.167-.033-.223-.069-.22-.067l-.555.832-.555.832c.549.366 1.295.456 2.019.456v-1zm-1.464-.288l.577-.817c-.006-.004-.005-.004.001.003a.04.04 0 01.008.01.045.045 0 01.007.013c.004.008.004.011.003.005-.001-.006-.004-.023-.004-.054h-2c0 .653.263 1.256.831 1.657l.577-.817zm-.408-.84h1c0-.04.007-.058.009-.063.002-.005.008-.02.034-.046l-.707-.707-.707-.707c-.414.414-.629.94-.629 1.523h1zm.336-.816l.731.682c-.01.012.043-.044.245-.142a6.05 6.05 0 01.81-.305l-.298-.955-.298-.954a8.06 8.06 0 00-1.086.414c-.294.142-.601.326-.835.578l.731.682zm1.488-.72l.29.957a23.618 23.618 0 002.657-.978l-.403-.915-.403-.915c-.761.335-1.571.633-2.431.894l.29.957zm2.544-.936l.411.912c.874-.395 1.624-.84 2.226-1.348l-.645-.764-.645-.764c-.422.356-1 .71-1.758 1.052l.411.912zm1.992-1.2l.633.774c.658-.538 1.159-1.251 1.159-2.142h-2c0 .07-.027.268-.425.594l.633.774zm.792-1.368h1c0-.58-.224-1.17-.795-1.537l-.541.841-.541.841a.328.328 0 01-.108-.124c-.023-.049-.015-.066-.015-.021h1zm-.336-.696l.569-.822a2.273 2.273 0 00-1.313-.394v2c.114 0 .156.026.175.038l.569-.822zm-.744-.216v-1c-.328 0-.748.052-1.226.135l.17.985.17.986c.45-.078.734-.106.886-.106v-1zm-1.056.12l-.141-.99c-.473.067-.989.16-1.549.274l.202.98.202.98a23.913 23.913 0 011.427-.254l-.141-.99zm-1.488.264l-.174-.985c-.538.095-1.059.182-1.564.261l.154.988.154.988a82.41 82.41 0 001.604-.267l-.174-.985zm-1.584.264l-.128-.992c-.47.06-.848.088-1.144.088v2c.408 0 .878-.037 1.4-.104l-.128-.992zm-1.272.096v-1c-.71 0-1.032-.16-1.171-.288l-.677.736-.677.736c.661.608 1.571.816 2.525.816v-1zm-1.848-.552l.693-.721c-.19-.182-.293-.403-.293-.743h-2c0 .844.297 1.599.907 2.185l.693-.721zm-.6-1.464h1c0 .005.001-.058.06-.213.057-.15.153-.345.301-.592l-.857-.515-.858-.514c-.35.584-.646 1.224-.646 1.834h1zm.504-1.32l.857.515a14.17 14.17 0 011.255-1.723l-.768-.64-.768-.64a15.953 15.953 0 00-1.434 1.974l.858.514zm1.344-1.848l.768.64a25.852 25.852 0 011.803-1.94l-.699-.716-.699-.715c-.71.693-1.357 1.39-1.941 2.09l.768.641zm1.872-2.016l.699.715a26.299 26.299 0 012.012-1.78l-.623-.783-.623-.783a28.587 28.587 0 00-2.164 1.916l.699.715zm2.088-1.848l.625.78c.683-.546 1.309-.963 1.88-1.263l-.465-.885-.465-.885c-.709.372-1.443.867-2.2 1.472l.625.781zm2.04-1.368l.482.876c.575-.316.945-.404 1.15-.404v-2c-.691 0-1.409.264-2.114.652l.482.876zm1.632-.528v1c.286 0 .414.08.499.169l.725-.689.725-.689c-.523-.55-1.211-.791-1.949-.791v1zm1.224.48l-.707.707c.095.096.187.253.187.589h2c0-.752-.228-1.459-.773-2.003l-.707.707zm.48 1.296h-1c0 .195-.018.422-.06.684l.988.156.988.156c.054-.346.084-.679.084-.996h-1zm-.072.84l-.986-.164a.709.709 0 01-.155.331l.781.625.781.625a2.69 2.69 0 00.565-1.253l-.986-.164zm-.36.792l-.759-.65c-.011.011-.089.092-.362.158l.233.972.233.972c.527-.126 1.041-.365 1.414-.801l-.759-.651zm-.888.48l-.233-.972c-.2.048-.583.059-1.216-.06l-.183.984-.183.983c.743.138 1.448.181 2.048.037l-.233-.972zm-1.632-.048l-.592-.806c-.559.41-1.139.86-1.742 1.35l.63.776.63.777a44.992 44.992 0 011.666-1.291l-.592-.806zm-1.704 1.32l-.627-.779c-.604.486-1.174.998-1.712 1.536l.707.707.707.707c.486-.486 1.004-.95 1.552-1.392l-.627-.779zm-1.632 1.464l-.696-.718a11.231 11.231 0 00-1.395 1.609l.819.573.819.573a9.26 9.26 0 011.149-1.319l-.696-.718zm-1.272 1.464l.308.951a11.58 11.58 0 011.855-.418l-.147-.989-.147-.99a13.57 13.57 0 00-2.178.495l.309.951zm2.016-.456l.168.986a12.56 12.56 0 012.112-.178v-2c-.824 0-1.64.069-2.448.206l.168.986zm2.28-.192v1c.817 0 1.377.15 1.752.368l.504-.864.504-.864c-.778-.453-1.721-.64-2.76-.64v1zm2.256.504l-.476.88c.432.233.707.522.878.863l.894-.447.894-.447c-.373-.747-.962-1.322-1.714-1.729l-.476.88zm1.296 1.296l-.884.468c.207.39.316.828.316 1.332h2a4.79 4.79 0 00-.548-2.268l-.884.468zm.432 1.8h-1c0 .507-.163 1.056-.558 1.662l.838.546.838.546c.565-.866.882-1.79.882-2.754h-1zm-.72 2.208l-.838-.546c-.409.627-.965 1.217-1.687 1.766l.605.796.605.796c.878-.667 1.602-1.421 2.153-2.266l-.838-.546zm-1.92 2.016l-.605-.796a9.49 9.49 0 01-2.412 1.324l.353.936.353.936a11.49 11.49 0 002.916-1.604l-.605-.796zm-2.664 1.464l-.353-.936a7.311 7.311 0 01-2.599.488v2a9.31 9.31 0 003.305-.616l-.353-.936z" fill="#00AEEF" mask="url(#a)"/></svg>