<svg width="25" height="24" fill="none" xmlns="http://www.w3.org/2000/svg"><path fill-rule="evenodd" clip-rule="evenodd" d="M5.394 7h7.677c.527 0 .982 0 1.356.03.396.033.789.104 1.167.297a3 3 0 011.311 1.311c.193.378.265.772.297 1.167.03.375.03.83.03 1.356v7.678c0 .527 0 .982-.03 1.356-.032.395-.104.789-.297 1.167a3 3 0 01-1.31 1.311c-.379.193-.772.264-1.168.296-.374.031-.829.031-1.356.031H5.394c-.527 0-.982 0-1.357-.03-.395-.033-.788-.104-1.167-.297a3 3 0 01-1.31-1.311c-.193-.378-.265-.772-.297-1.167a17.9 17.9 0 01-.03-1.357v-7.677c0-.527 0-.981.03-1.356.032-.395.104-.789.296-1.167A3 3 0 012.87 7.327c.379-.193.772-.264 1.167-.296C4.412 7 4.867 7 5.394 7z" fill="#82849D"/><path d="M19.071 1h-7.677c-.527 0-.982 0-1.357.03-.395.033-.788.104-1.167.297a3 3 0 00-1.31 1.311c-.193.378-.265.772-.297 1.167-.027.336-.03.736-.03 1.195h5.88c.489 0 1.019 0 1.477.037.52.043 1.205.148 1.912.508a5 5 0 012.186 2.185c.36.707.465 1.393.507 1.912.038.459.038.989.037 1.477V17c.46 0 .86-.003 1.195-.03.396-.033.789-.104 1.167-.297a3 3 0 001.311-1.311c.193-.378.265-.772.297-1.167.03-.375.03-.83.03-1.356V5.16c0-.527 0-.981-.03-1.356-.032-.395-.104-.789-.297-1.167a3 3 0 00-1.31-1.311c-.379-.193-.772-.264-1.168-.296C20.053 1 19.598 1 19.071 1z" fill="#82849D"/></svg>