<svg width="25" height="24" fill="none" xmlns="http://www.w3.org/2000/svg"><path fill-rule="evenodd" clip-rule="evenodd" d="M6.991 3h4.241a1 1 0 110 2h-4.2c-.856 0-1.438.001-1.889.038-.438.036-.662.1-.819.18a2 2 0 00-.874.874c-.08.157-.144.38-.18.82-.037.45-.038 1.032-.038 1.888v8.4c0 .857.001 1.44.038 1.89.036.438.1.662.18.818a2 2 0 00.874.874c.157.08.381.145.82.18.45.037 1.032.038 1.888.038h8.4c.857 0 1.44 0 1.89-.037.438-.036.662-.101.818-.18a2 2 0 00.874-.875c.08-.156.145-.38.18-.819.038-.45.038-1.032.038-1.889V13a1 1 0 112 0v4.242c0 .805 0 1.469-.044 2.01-.046.562-.144 1.079-.392 1.564a4 4 0 01-1.748 1.748c-.485.247-1.002.346-1.564.392-.54.044-1.205.044-2.01.044H6.99c-.805 0-1.47 0-2.01-.044-.563-.046-1.08-.145-1.565-.392a4 4 0 01-1.748-1.748c-.247-.485-.345-1.002-.391-1.564-.045-.541-.045-1.205-.045-2.01V8.758c0-.805 0-1.47.045-2.01.046-.563.144-1.08.391-1.565a4 4 0 011.748-1.748c.486-.247 1.002-.346 1.565-.392C5.52 3 6.186 3 6.99 3z" fill="#32ACE9"/><path fill-rule="evenodd" clip-rule="evenodd" d="M18.025 1.793a3.121 3.121 0 114.415 4.414l-9.563 9.563-.06.059c-.287.288-.54.542-.845.73a3 3 0 01-.868.358c-.348.084-.707.084-1.114.083H8.232a1 1 0 01-1-1v-1.758c0-.407 0-.765.083-1.114a3 3 0 01.36-.867c.187-.305.44-.559.729-.846l.059-.06 9.562-9.562z" fill="#32ACE9"/></svg>