<svg width="25" height="24" fill="none" xmlns="http://www.w3.org/2000/svg"><g clip-path="url(#clip0_89_607)" fill="#555659"><path d="M15.22 11.928A3 3 0 0012.232 9l2.988 2.928z"/><path d="M10.072 7.08a5.256 5.256 0 012.16-.48 5.4 5.4 0 015.4 5.4 5.208 5.208 0 01-.348 1.86l3.348 3.108a16.8 16.8 0 003.6-4.968s-3.6-8.4-12-8.4a11.556 11.556 0 00-4.8 1.02l2.64 2.46zM2.632 2.4l-1.2 1.2 3.06 2.88A16.668 16.668 0 00.232 12s3.6 8.4 12 8.4c1.944.01 3.858-.469 5.568-1.392l4.032 3.792 1.2-1.2-20.4-19.2zm9.6 15a5.4 5.4 0 01-5.4-5.4 5.34 5.34 0 01.72-2.64l1.836 1.728a2.98 2.98 0 00-.156.912 2.988 2.988 0 004.092 2.784l1.848 1.74a5.364 5.364 0 01-2.94.876z"/></g><defs><clipPath id="clip0_89_607"><path fill="#fff" transform="translate(.232)" d="M0 0h24v24H0z"/></clipPath></defs></svg>