<svg width="25" height="24" fill="none" xmlns="http://www.w3.org/2000/svg"><path fill-rule="evenodd" clip-rule="evenodd" d="M15.474 1H8.99c-.805 0-1.47 0-2.01.044-.563.046-1.08.145-1.565.392a4 4 0 00-1.748 1.748c-.247.485-.345 1.002-.391 1.564-.045.541-.045 1.206-.045 2.01v10.483c0 .805 0 1.47.045 2.01.046.563.144 1.08.391 1.565a4 4 0 001.748 1.748c.486.247 1.002.346 1.565.392C7.52 23 8.186 23 8.99 23h4.31a.5.5 0 00.348-.841l-.037-.038a3 3 0 014.118-4.36l2.382-2.382a3 3 0 01.608-.47c.223-.13.334-.195.386-.254a.424.424 0 00.103-.18c.024-.074.024-.173.024-.37V6.759c0-.805 0-1.47-.044-2.01-.046-.563-.144-1.08-.392-1.565a4 4 0 00-1.748-1.748c-.485-.247-1.002-.346-1.564-.392C16.944 1 16.28 1 15.474 1zM8.232 9a1 1 0 100 2h6a1 1 0 100-2h-6zm-1 5a1 1 0 011-1h2a1 1 0 110 2h-2a1 1 0 01-1-1zm1-9a1 1 0 000 2h8a1 1 0 100-2h-8z" fill="#C99903"/><path d="M22.94 18.207a1 1 0 10-1.415-1.414l-3.793 3.793-1.293-1.293a1 1 0 00-1.414 1.414l2 2a1 1 0 001.415 0l4.5-4.5z" fill="#C99903"/></svg>