<svg width="33" height="32" fill="none" xmlns="http://www.w3.org/2000/svg"><g clip-path="url(#clip0_22_1452)"><path d="M23.617 6.154a2.463 2.463 0 012.455 2.277l.007.184v14.77a2.462 2.462 0 01-2.277 2.455l-.185.006H8.847a2.461 2.461 0 01-2.455-2.277l-.006-.184V8.615A2.463 2.463 0 018.663 6.16l.185-.006h14.769zm-3.692 13.538H12.54v2.462h7.385v-2.462zM3.309 12.308a.615.615 0 01.606.504l.01.111v6.154a.615.615 0 01-.616.615C2.08 19.692.232 18.258.232 16s1.847-3.692 3.077-3.692zm25.846 0c1.231 0 3.077 1.434 3.077 3.692s-1.846 3.692-3.076 3.692a.615.615 0 01-.616-.615v-6.154a.615.615 0 01.616-.615zm-8.615 0c-1.015 0-1.846.83-1.846 1.846 0 .955.736 1.748 1.669 1.837l.177.009.177-.009a1.852 1.852 0 001.67-1.837 1.852 1.852 0 00-1.847-1.846zm-8.615 0c-.955 0-1.748.736-1.838 1.669l-.008.177.008.177A1.852 1.852 0 0011.925 16c1.015 0 1.846-.83 1.846-1.846s-.83-1.846-1.846-1.846z" fill="#15C4CA"/></g><defs><clipPath id="clip0_22_1452"><path fill="#fff" transform="translate(.232)" d="M0 0h32v32H0z"/></clipPath></defs></svg>