<svg width="21" height="20" fill="none" xmlns="http://www.w3.org/2000/svg"><path d="M18.904 8.367h-.672v-.034h-7.5v3.333h4.71a4.998 4.998 0 01-9.71-1.667 5 5 0 015-5 4.97 4.97 0 013.317 1.267l2.358-2.357a8.295 8.295 0 00-5.675-2.243 8.334 8.334 0 108.172 6.701z" fill="#E3AC00"/><path d="M3.36 6.12l2.738 2.01A4.998 4.998 0 0110.733 5c1.274 0 2.434.481 3.316 1.267l2.358-2.357a8.295 8.295 0 00-5.675-2.243A8.329 8.329 0 003.36 6.121z" fill="#FF3D00"/><path d="M10.732 18.334a8.294 8.294 0 005.588-2.164l-2.58-2.182A4.962 4.962 0 0110.732 15a4.998 4.998 0 01-4.7-3.31l-2.718 2.093a8.327 8.327 0 007.418 4.55z" fill="#08C273"/><path d="M18.904 8.369h-.672v-.035h-7.5v3.333h4.71a5.017 5.017 0 01-1.703 2.322l.001-.001 2.58 2.182c-.183.166 2.746-2.003 2.746-6.17 0-.558-.058-1.104-.162-1.631z" fill="#1976D2"/><g clip-path="url(#clip0_22_2084)"><path d="M8.306 2.527a7.91 7.91 0 00.541 15.112 8.45 8.45 0 004.045.044A7.142 7.142 0 0016.13 16a7.18 7.18 0 002-3.282 9.288 9.288 0 00.201-4.198h-7.44v3.087H15.2a3.715 3.715 0 01-1.583 2.44 4.524 4.524 0 01-1.74.687 5.162 5.162 0 01-1.888 0 4.65 4.65 0 01-1.757-.766A4.913 4.913 0 016.42 11.54a4.788 4.788 0 010-3.078c.237-.7.63-1.337 1.147-1.864a4.646 4.646 0 014.682-1.223 4.288 4.288 0 011.705 1c.486-.483.97-.968 1.455-1.453.25-.262.522-.51.768-.778a7.65 7.65 0 00-2.545-1.57 8 8 0 00-5.326-.047z" fill="#F4F6FF"/><path d="M8.306 2.527a8 8 0 015.326.046 7.65 7.65 0 012.544 1.578c-.25.267-.514.517-.769.777-.485.485-.97.967-1.453 1.448a4.287 4.287 0 00-1.705-1 4.646 4.646 0 00-4.683 1.217A4.906 4.906 0 006.42 8.457L3.827 6.451a7.941 7.941 0 014.48-3.924z" fill="#E33629"/><path d="M3.14 8.437c.14-.69.37-1.359.687-1.988L6.42 8.46a4.787 4.787 0 000 3.08c-.864.666-1.727 1.336-2.592 2.01a7.916 7.916 0 01-.687-5.113z" fill="#E3AC00"/><path d="M10.891 8.52h7.44a9.287 9.287 0 01-.201 4.197 7.18 7.18 0 01-2 3.282c-.836-.652-1.676-1.3-2.513-1.952a3.714 3.714 0 001.583-2.443h-4.31V8.52z" fill="#587DBD"/><path d="M3.826 13.55c.864-.668 1.728-1.338 2.591-2.01.334.98.97 1.829 1.815 2.427a4.652 4.652 0 001.76.76 5.162 5.162 0 001.888 0 4.526 4.526 0 001.741-.688c.836.653 1.676 1.3 2.513 1.953a7.142 7.142 0 01-3.238 1.683 8.451 8.451 0 01-4.045-.043 7.963 7.963 0 01-5.025-4.082z" fill="#08C273"/></g><defs><clipPath id="clip0_22_2084"><path fill="#fff" transform="translate(2.732 2)" d="M0 0h16v16H0z"/></clipPath></defs></svg>