<svg width="28" height="29" fill="none" xmlns="http://www.w3.org/2000/svg"><rect x="13.417" y=".016" width="1.167" height="7" rx=".583" fill="#C4C4C4"/><rect y="14.598" width="1.167" height="7" rx=".583" transform="rotate(-90 0 14.598)" fill="#000"/><rect x="7.505" y="26.434" width="1.167" height="7" rx=".583" transform="rotate(-150 7.505 26.434)" fill="#2B2B2B"/><rect x="21.505" y="25.848" width="1.167" height="7" rx=".583" transform="rotate(150 21.505 25.848)" fill="#575757"/><rect x="26.416" y="20.512" width="1.167" height="7" rx=".583" transform="rotate(120 26.416 20.512)" fill="#6D6D6D"/><rect x="25.833" y="6.512" width="1.167" height="7" rx=".583" transform="rotate(60 25.833 6.512)" fill="#989898"/><rect x="14.583" y="28.016" width="1.167" height="7" rx=".583" transform="rotate(180 14.583 28.016)" fill="#414141"/><rect x="28" y="13.434" width="1.167" height="7" rx=".583" transform="rotate(90 28 13.434)" fill="#828282"/><rect x="20.495" y="1.598" width="1.167" height="7" rx=".583" transform="rotate(30 20.495 1.598)" fill="#AEAEAE"/><rect x="6.495" y="2.184" width="1.167" height="7" rx=".583" transform="rotate(-30 6.495 2.184)" fill="#D9D9D9"/><rect x="1.584" y="7.52" width="1.167" height="7" rx=".583" transform="rotate(-60 1.584 7.52)" fill="#EFEFEF"/><rect x="2.167" y="21.52" width="1.167" height="7" rx=".583" transform="rotate(-120 2.167 21.52)" fill="#161616"/></svg>