<svg width="24" height="25" fill="none" xmlns="http://www.w3.org/2000/svg"><path d="M12 20.016c-2.233 0-4.125-.775-5.675-2.325C4.775 16.14 4 14.249 4 12.016c0-2.234.775-4.125 2.325-5.675C7.875 4.79 9.767 4.016 12 4.016c1.15 0 2.25.237 3.3.712A7.612 7.612 0 0118 6.766v-2.75h2v7h-7v-2h4.2a5.837 5.837 0 00-2.187-2.2 5.927 5.927 0 00-3.013-.8c-1.667 0-3.083.583-4.25 1.75C6.583 8.932 6 10.349 6 12.016c0 1.666.583 3.083 1.75 4.25 1.167 1.166 2.583 1.75 4.25 1.75a5.862 5.862 0 003.475-1.1 5.81 5.81 0 002.175-2.9h2.1c-.467 1.766-1.417 3.208-2.85 4.325-1.433 1.116-3.067 1.675-4.9 1.675z" fill="#32ACE9"/></svg>