<svg width="28" height="29" fill="none" xmlns="http://www.w3.org/2000/svg"><path d="M28 14.016c0 7.732-6.268 14-14 14s-14-6.268-14-14 6.268-14 14-14 14 6.268 14 14zm-25.9 0c0 6.572 5.328 11.9 11.9 11.9s11.9-5.328 11.9-11.9c0-6.573-5.328-11.9-11.9-11.9S2.1 7.443 2.1 14.016z" fill="#EFEFEF"/><path d="M1.05 14.016c-.58 0-1.054.47-1.01 1.049A14 14 0 1015.048.055C14.471.012 14 .485 14 1.065c0 .58.471 1.046 1.049 1.097A11.9 11.9 0 112.146 15.064c-.05-.577-.516-1.048-1.096-1.048z" fill="#3EB917"/></svg>