<svg width="25" height="25" fill="none" xmlns="http://www.w3.org/2000/svg"><path d="M8.37 2.05c.795 0 1.386 0 1.898.137a4 4 0 012.828 2.829c.137.511.137 1.102.136 1.897v.538c0 .56 0 .84-.108 1.054a1 1 0 01-.438.437c-.213.109-.493.109-1.053.109h-2.4a3 3 0 100 6h2.4c.56 0 .84 0 1.054.109a1 1 0 01.437.437c.108.214.108.494.108 1.054v.538c0 .795.001 1.386-.136 1.897a4 4 0 01-2.828 2.829c-.512.137-1.103.136-1.898.136h-.672c-.67 0-1.223 0-1.675-.031-.47-.032-.903-.1-1.321-.274a4 4 0 01-2.165-2.164c-.173-.418-.242-.852-.274-1.322-.03-.452-.03-1.005-.03-1.675V7.517c0-.67 0-1.223.03-1.676.032-.469.1-.903.274-1.32a4 4 0 012.165-2.166c.418-.173.852-.241 1.32-.273.453-.031 1.006-.031 1.676-.031h.672z" fill="#8C9097"/><path d="M15.525 6.344a1 1 0 011.414 0l5 5a1 1 0 010 1.414l-5 5a1 1 0 01-1.414-1.414l3.293-3.293H9.232a1 1 0 110-2h9.586l-3.293-3.293a1 1 0 010-1.414z" fill="#8C9097"/></svg>