<svg width="28" height="20" fill="none" xmlns="http://www.w3.org/2000/svg"><g clip-path="url(#clip0_22_15446)"><path d="M5.141 19.902v-1.324c0-.508-.324-.838-.88-.838-.278 0-.579.088-.787.375-.162-.243-.394-.375-.74-.375a.761.761 0 00-.65.308v-.264H1.6v2.118h.486v-1.17c0-.375.208-.551.532-.551.324 0 .487.198.487.551v1.17h.486v-1.17c0-.375.231-.551.532-.551.325 0 .487.198.487.551v1.17h.532zm7.2-2.118h-.786v-.64h-.487v.64h-.44v.419h.44v.97c0 .486.209.773.764.773.209 0 .44-.066.602-.155l-.139-.397a.79.79 0 01-.416.11c-.232 0-.324-.132-.324-.353v-.948h.787v-.42zm4.122-.045a.66.66 0 00-.579.31v-.265h-.486v2.118h.486V18.71c0-.353.162-.551.463-.551.093 0 .208.022.301.044l.139-.441c-.093-.023-.232-.023-.324-.023m-6.228.221c-.232-.154-.556-.22-.903-.22-.556 0-.926.264-.926.684 0 .353.277.551.764.617l.231.022c.255.044.394.11.394.221 0 .154-.185.265-.51.265a1.32 1.32 0 01-.74-.22l-.232.352c.255.177.602.265.95.265.648 0 1.018-.287 1.018-.684 0-.375-.301-.574-.764-.64l-.232-.022c-.208-.022-.37-.066-.37-.199 0-.154.162-.242.417-.242.278 0 .555.11.694.176l.209-.375zm12.92-.22a.66.66 0 00-.58.308v-.264h-.486v2.118h.486V18.71c0-.353.162-.551.463-.551.093 0 .209.022.301.044l.14-.441c-.093-.022-.232-.022-.325-.022zm-6.206 1.103c0 .64.463 1.103 1.18 1.103.325 0 .556-.066.788-.243l-.232-.375a.964.964 0 01-.578.199c-.394 0-.672-.265-.672-.684 0-.397.278-.662.672-.684a.97.97 0 01.579.198l.231-.375c-.232-.176-.463-.242-.787-.242-.718 0-1.18.463-1.18 1.103zm4.492 0v-1.06h-.486v.265c-.162-.198-.394-.308-.695-.308-.625 0-1.111.463-1.111 1.103 0 .64.486 1.103 1.111 1.103.324 0 .556-.11.695-.309v.265h.486v-1.06zm-1.783 0c0-.375.255-.684.671-.684.394 0 .672.287.672.684a.665.665 0 01-.672.684c-.416-.023-.671-.31-.671-.684zm-5.811-1.103c-.649 0-1.112.44-1.112 1.103 0 .662.463 1.103 1.135 1.103.324 0 .648-.088.903-.287l-.232-.33a1.14 1.14 0 01-.648.22c-.301 0-.602-.133-.672-.508h1.644v-.176c.024-.684-.393-1.125-1.018-1.125zm0 .397c.3 0 .509.176.555.507h-1.157a.577.577 0 01.602-.507zm12.062.706v-1.898h-.486v1.103c-.162-.198-.394-.308-.695-.308-.625 0-1.111.463-1.111 1.103 0 .64.486 1.103 1.111 1.103.325 0 .556-.11.695-.309v.265h.486v-1.06zm-1.783 0c0-.375.255-.684.672-.684.394 0 .671.287.671.684a.665.665 0 01-.671.684c-.417-.023-.672-.31-.672-.684zm-16.253 0v-1.06h-.486v.265c-.162-.198-.394-.308-.695-.308-.625 0-1.111.463-1.111 1.103 0 .64.486 1.103 1.111 1.103.324 0 .556-.11.695-.309v.265h.486v-1.06zm-1.806 0c0-.375.255-.684.671-.684.394 0 .672.287.672.684a.665.665 0 01-.672.684c-.416-.023-.671-.31-.671-.684z" fill="#000"/><path d="M10.072 1.7h7.293v12.487h-7.293V1.699z" fill="#FF5F00"/><path d="M10.536 7.943c0-2.538 1.25-4.788 3.171-6.244A8.545 8.545 0 008.567 0C3.96 0 .233 3.552.233 7.943c0 4.39 3.728 7.942 8.336 7.942a8.55 8.55 0 005.14-1.699c-1.922-1.434-3.172-3.706-3.172-6.243z" fill="#EB001B"/><path d="M27.206 7.943c0 4.39-3.728 7.942-8.336 7.942a8.545 8.545 0 01-5.14-1.699c1.945-1.456 3.172-3.706 3.172-6.243 0-2.538-1.25-4.788-3.172-6.244A8.545 8.545 0 0118.87 0c4.608 0 8.335 3.574 8.335 7.943z" fill="#F79E1B"/></g><defs><clipPath id="clip0_22_15446"><path fill="#fff" transform="translate(.232)" d="M0 0h27v20H0z"/></clipPath></defs></svg>