<svg width="30" height="28" fill="none" xmlns="http://www.w3.org/2000/svg"><path d="M25.232 10.347l1.584 7.302h-1.815c-.072-.306-.13-.625-.202-.93-.072-.306 0-.154-.187-.154H22.41a.179.179 0 00-.135.033.167.167 0 00-.067.119c-.101.28-.201.558-.316.821-.116.264-.102.125-.145.125h-1.943v-.167c.96-2.197 1.92-4.398 2.88-6.604a.808.808 0 01.29-.374.854.854 0 01.459-.155c.633-.028 1.21-.014 1.8-.014m-1.353 2.046l-1.024 2.656h1.613l-.59-2.656zM7.62 15.312v-.166c.575-1.544 1.165-3.088 1.727-4.631 0-.125.116-.18.26-.18h1.915v.18L8.54 17.468a.237.237 0 01-.1.142.253.253 0 01-.174.038h-1.67c-.145 0-.202 0-.245-.18-.532-2.003-1.08-4.005-1.614-6.02a.41.41 0 00-.187-.252 8.63 8.63 0 00-1.756-.709s-.101-.07-.145-.097a.374.374 0 01.188 0h2.88a.894.894 0 01.681.182.84.84 0 01.224.274.81.81 0 01.089.338l.821 4.072a.338.338 0 000 .098l.086-.042zm6.71 2.058l.289-1.627.202.112a3.74 3.74 0 002.39.32.762.762 0 00.42-.17.72.72 0 00.242-.373.658.658 0 00-.096-.417.694.694 0 00-.335-.278c-.29-.181-.604-.32-.879-.5a4.829 4.829 0 01-.979-.696 1.88 1.88 0 01-.462-1.231c0-.45.163-.886.462-1.23a3.203 3.203 0 011.627-.918 5.122 5.122 0 012.88.139h.073l-.274 1.502a8.719 8.719 0 00-1.11-.25 7.528 7.528 0 00-1.123 0 .734.734 0 00-.36.18.422.422 0 00-.152.32.408.408 0 00.153.32c.172.153.36.288.56.404.375.221.764.402 1.124.639.298.176.545.421.718.714a1.948 1.948 0 01.034 1.928 2.028 2.028 0 01-.694.737 3.86 3.86 0 01-1.988.751 5.74 5.74 0 01-2.722-.376zm-3.197.278l1.239-7.3h1.973l-1.239 7.3h-1.973z" fill="#000"/></svg>