<svg width="29" height="28" fill="none" xmlns="http://www.w3.org/2000/svg"><path d="M13.566 5.46v4.527a2.859 2.859 0 01-1.76 2.634 2.8 2.8 0 01-1.087.212H6.192a2.847 2.847 0 01-2.835-2.846V5.472a2.847 2.847 0 012.835-2.847h4.527a2.847 2.847 0 012.847 2.835zm12.541.012v4.515a2.798 2.798 0 01-.828 2.006 2.775 2.775 0 01-2.007.84h-4.526a2.858 2.858 0 01-2.632-1.752 2.798 2.798 0 01-.215-1.094V5.472a2.8 2.8 0 01.84-2.007 2.823 2.823 0 012.007-.84h4.526a2.847 2.847 0 012.835 2.847zM13.566 18.025v4.515a2.847 2.847 0 01-2.847 2.835H6.192a2.859 2.859 0 01-2.006-.828 2.8 2.8 0 01-.829-2.007v-4.515a2.8 2.8 0 01.829-2.007 2.881 2.881 0 012.006-.851h4.527a2.87 2.87 0 012.847 2.858zm12.541 2.252a5.098 5.098 0 11-5.11-5.11 5.134 5.134 0 014.724 3.158 5.07 5.07 0 01.386 1.952z" fill="#15C4CA"/></svg>