<svg width="29" height="28" fill="none" xmlns="http://www.w3.org/2000/svg"><path d="M14.232 25.666c-1.613 0-3.13-.306-4.55-.92a11.8 11.8 0 01-3.704-2.492 11.755 11.755 0 01-2.493-3.705 11.386 11.386 0 01-.92-4.55c0-1.458.283-2.887.847-4.287.564-1.4 1.351-2.65 2.362-3.748 1.011-1.1 2.227-1.984 3.646-2.655 1.42-.67 2.975-1.005 4.667-1.005.408 0 .826.02 1.254.058.428.039.865.107 1.312.204-.175.875-.116 1.702.175 2.48a4.78 4.78 0 001.313 1.938 4.81 4.81 0 002.086 1.066c.807.195 1.638.146 2.493-.146-.506 1.147-.432 2.245.22 3.296.651 1.05 1.618 1.594 2.9 1.633.02.214.035.413.045.597.01.184.015.384.014.599 0 1.594-.306 3.096-.92 4.505a12.034 12.034 0 01-2.492 3.704 11.628 11.628 0 01-3.704 2.509c-1.42.612-2.937.918-4.55.92zm-1.75-14c.487 0 .9-.17 1.24-.51a1.68 1.68 0 00.51-1.24c0-.487-.17-.9-.51-1.239a1.686 1.686 0 00-1.24-.51c-.487-.002-.9.168-1.239.51a1.71 1.71 0 00-.51 1.24c-.003.483.167.896.51 1.24.343.342.756.512 1.24.51zM10.15 17.5c.486 0 .9-.17 1.24-.51.341-.34.51-.754.51-1.24 0-.487-.17-.9-.51-1.24a1.692 1.692 0 00-1.24-.51c-.488-.002-.9.168-1.239.51a1.71 1.71 0 00-.51 1.24c-.003.483.167.897.51 1.24.343.343.756.513 1.24.51zm7.584 1.166c.33 0 .607-.112.831-.336.224-.224.336-.5.335-.83 0-.33-.113-.607-.336-.831a1.126 1.126 0 00-.83-.336c-.331 0-.608.112-.831.336-.223.224-.335.5-.336.83-.001.33.111.608.336.832.225.225.502.337.83.335z" fill="#15C4CA"/></svg>