<svg width="29" height="28" fill="none" xmlns="http://www.w3.org/2000/svg"><path d="M14.483 18.172c-.156 0-.302-.024-.438-.072a1.01 1.01 0 01-.379-.249l-4.2-4.2a1.07 1.07 0 01-.336-.816c.01-.312.121-.584.336-.817.233-.233.51-.355.832-.364.321-.01.598.102.83.335l2.188 2.187V5.835c0-.33.112-.608.336-.831.224-.223.501-.335.83-.336.33 0 .608.111.833.336.224.225.336.502.334.83v8.342l2.188-2.187c.233-.234.51-.346.832-.336.321.01.598.13.83.365.214.233.326.505.336.817.01.31-.102.583-.336.816l-4.2 4.2a1.03 1.03 0 01-.379.249 1.262 1.262 0 01-.437.072zm-7 5.163a2.25 2.25 0 01-1.648-.685A2.251 2.251 0 015.15 21v-2.333c0-.33.112-.607.336-.83.224-.224.501-.336.831-.337.33 0 .607.111.832.336.225.225.336.502.335.831V21h14v-2.333c0-.33.112-.607.336-.83.224-.224.5-.336.83-.337.33 0 .607.111.832.336.225.225.337.502.335.831V21a2.25 2.25 0 01-.685 1.649 2.241 2.241 0 01-1.648.685h-14z" fill="#555659"/></svg>