<svg width="25" height="25" fill="none" xmlns="http://www.w3.org/2000/svg"><path d="M12.182 18.05c.35 0 .646-.12.888-.362s.363-.538.362-.887c0-.35-.12-.645-.362-.888a1.195 1.195 0 00-.888-.362 1.21 1.21 0 00-.887.363c-.24.24-.36.536-.363.887-.002.35.12.647.363.888.244.241.54.362.887.362zm-.9-3.85h1.85c0-.55.063-.982.188-1.3.126-.316.48-.75 1.062-1.3a7.478 7.478 0 001.025-1.237c.25-.392.375-.863.375-1.412 0-.934-.341-1.65-1.025-2.15-.683-.5-1.491-.75-2.425-.75-.95 0-1.72.25-2.312.75-.59.5-1.004 1.1-1.238 1.8l1.65.65c.084-.3.271-.625.563-.975.292-.35.738-.525 1.337-.525.534 0 .934.146 1.2.438.267.292.4.612.4.962 0 .333-.1.646-.3.938-.2.292-.45.563-.75.812-.733.65-1.183 1.142-1.35 1.475-.166.333-.25.942-.25 1.825zm.95 7.85a9.742 9.742 0 01-3.9-.786 10.083 10.083 0 01-3.175-2.138c-.9-.9-1.612-1.96-2.137-3.175a9.75 9.75 0 01-.788-3.9c0-1.384.262-2.684.788-3.9a10.152 10.152 0 012.137-3.175 10.04 10.04 0 013.175-2.137 9.787 9.787 0 013.9-.788 9.696 9.696 0 013.9.788 10.128 10.128 0 013.175 2.137 10.103 10.103 0 012.138 3.175 9.688 9.688 0 01.787 3.9 9.814 9.814 0 01-.788 3.9 10 10 0 01-2.137 3.175c-.9.898-1.96 1.61-3.175 2.138a9.643 9.643 0 01-3.9.787z" fill="#8C9097"/></svg>