<svg width="49" height="48" fill="none" xmlns="http://www.w3.org/2000/svg"><path d="M25.254 46.516l-.024.004-.142.07-.04.008-.028-.008-.142-.072c-.022-.005-.038-.002-.048.012l-.008.02-.034.856.01.04.02.026.208.148.03.008.024-.008.208-.148.024-.032.008-.034-.034-.854c-.006-.021-.016-.033-.032-.036zm.528-.226l-.028.004-.368.186-.02.02-.006.022.036.86.01.024.016.016.402.184c.025.006.044.001.058-.016l.008-.028-.068-1.228c-.007-.026-.02-.04-.04-.044zm-1.43.004a.04.04 0 00-.054.012l-.012.028-.068 1.228c.001.024.012.04.034.048l.03-.004.402-.186.02-.016.006-.022.036-.86-.006-.024-.02-.02-.368-.184zM18.28 10.896c1.196-3.5 6.032-3.606 7.45-.318l.12.32 1.614 4.72a8 8 0 004.552 4.822l.434.162 4.72 1.612c3.5 1.196 3.606 6.032.32 7.45l-.32.12-4.72 1.614a8 8 0 00-4.824 4.552l-.162.432-1.612 4.722c-1.196 3.5-6.032 3.606-7.448.32l-.124-.32-1.612-4.72a8.001 8.001 0 00-4.552-4.824l-.432-.162-4.72-1.612c-3.502-1.196-3.608-6.032-.32-7.448l.32-.124 4.72-1.612a8 8 0 004.822-4.552l.162-.432 1.612-4.722zM38.066 4a2 2 0 011.796 1.12l.096.234.7 2.052 2.054.7a2 2 0 01.236 3.69l-.236.096-2.052.7-.7 2.054a2 2 0 01-3.69.234l-.096-.234-.7-2.052-2.054-.7a2 2 0 01-.236-3.69l.236-.096 2.052-.7.7-2.054A2 2 0 0138.066 4z" fill="#15C4CA"/></svg>