<svg width="282" height="67" fill="none" xmlns="http://www.w3.org/2000/svg"><path d="M139.732 65c4.038-.67 8.263-3.158 12.203-4.222C194.228 49.35 237.087 48.153 279.732 43" stroke="#00AEEF" stroke-width="4" stroke-linecap="round"/><mask id="a" maskUnits="userSpaceOnUse" x=".732" y="3" width="237" height="42" fill="#000"><path fill="#fff" d="M.732 3h237v42h-237z"/><path d="M5.212 34.832c-.81 0-1.482-.373-2.016-1.12-.512-.768-.768-1.76-.768-2.976 0-1.13.278-2.25.832-3.36.576-1.11 1.334-2.176 2.272-3.2a24.05 24.05 0 013.072-2.816 27.946 27.946 0 013.328-2.272c1.131-.64 2.166-1.141 3.104-1.504.94-.363 1.686-.544 2.24-.544.3 0 .544.064.736.192.192.107.288.31.288.608a.815.815 0 01-.224.544h.064c.47 0 .704.277.704.832 0 .192-.074.587-.224 1.184-.149.576-.32 1.301-.512 2.176a38.679 38.679 0 00-.512 2.912 22.606 22.606 0 00-.224 3.2c0 .917.352 1.376 1.056 1.376.79 0 1.59-.181 2.4-.544.811-.363 1.6-.8 2.368-1.312a38.929 38.929 0 002.112-1.568c.64-.533 1.184-.981 1.632-1.344.448-.363.768-.544.96-.544.171 0 .32.053.448.16.128.107.192.277.192.512 0 .213-.213.597-.64 1.152-.426.555-.992 1.184-1.696 1.888a22.71 22.71 0 01-2.368 2.048 14.834 14.834 0 01-2.688 1.632c-.917.427-1.792.64-2.624.64-.64 0-1.226-.192-1.76-.576-.512-.405-.928-1.088-1.248-2.048-.298-.96-.448-2.283-.448-3.968v-.8a43.004 43.004 0 01-3.296 4.736c-1.13 1.43-2.26 2.57-3.392 3.424-1.109.853-2.165 1.28-3.168 1.28zm11.456-15.488a16.39 16.39 0 00-.448.192 27.689 27.689 0 00-3.072 1.664 32.66 32.66 0 00-3.072 2.208 25.102 25.102 0 00-2.656 2.528c-.789.875-1.418 1.76-1.888 2.656-.469.896-.704 1.77-.704 2.624 0 .277.054.49.16.64.128.15.342.224.64.224.427 0 .982-.267 1.664-.8.683-.555 1.43-1.28 2.24-2.176a40.754 40.754 0 002.496-2.976 67.145 67.145 0 002.368-3.296 51.282 51.282 0 001.984-3.072c.086-.15.182-.288.288-.416zM32.394 35.28c-1.643 0-2.933-.533-3.872-1.6-.917-1.088-1.376-2.603-1.376-4.544 0-1.195.16-2.592.48-4.192a74.768 74.768 0 011.28-5.12c.533-1.813 1.11-3.605 1.728-5.376.619-1.77 1.216-3.413 1.792-4.928.597-1.536 1.12-2.816 1.568-3.84.256-.576.619-.864 1.088-.864.64 0 .96.395.96 1.184 0 .256-.117.779-.352 1.568-.235.79-.544 1.77-.928 2.944-.384 1.152-.8 2.432-1.248 3.84a1239.45 1239.45 0 00-1.376 4.352 124.294 124.294 0 00-1.248 4.384 53.163 53.163 0 00-.928 4.032c-.235 1.259-.352 2.336-.352 3.232 0 .576.15 1.035.448 1.376.32.32.747.48 1.28.48.981 0 1.963-.192 2.944-.576a18.306 18.306 0 002.88-1.472 38.338 38.338 0 002.496-1.76 68.078 68.078 0 011.952-1.472c.533-.405.907-.608 1.12-.608.47 0 .704.256.704.768 0 .17-.17.49-.512.96-.341.448-.8.981-1.376 1.6a25.404 25.404 0 01-2.016 1.92 28.983 28.983 0 01-2.368 1.824 13.32 13.32 0 01-2.464 1.344c-.81.363-1.579.544-2.304.544zm14.812 0c-1.642 0-2.933-.533-3.872-1.6-.917-1.088-1.376-2.603-1.376-4.544 0-1.195.16-2.592.48-4.192a74.768 74.768 0 011.28-5.12c.534-1.813 1.11-3.605 1.728-5.376a199.89 199.89 0 011.792-4.928c.598-1.536 1.12-2.816 1.568-3.84.256-.576.62-.864 1.088-.864.64 0 .96.395.96 1.184 0 .256-.117.779-.352 1.568-.234.79-.544 1.77-.928 2.944-.384 1.152-.8 2.432-1.248 3.84-.448 1.408-.906 2.859-1.376 4.352a124.294 124.294 0 00-1.248 4.384 53.163 53.163 0 00-.928 4.032c-.234 1.259-.352 2.336-.352 3.232 0 .576.15 1.035.448 1.376.32.32.747.48 1.28.48.982 0 1.963-.192 2.944-.576a18.306 18.306 0 002.88-1.472 38.338 38.338 0 002.496-1.76 68.078 68.078 0 011.952-1.472c.534-.405.907-.608 1.12-.608.47 0 .704.256.704.768 0 .17-.17.49-.512.96-.34.448-.8.981-1.376 1.6a25.404 25.404 0 01-2.016 1.92 28.983 28.983 0 01-2.368 1.824 13.32 13.32 0 01-2.464 1.344c-.81.363-1.578.544-2.304.544zm24.496 8.224c-.363 0-.651-.128-.864-.384-.192-.256-.288-.747-.288-1.472 0-1.045.074-2.261.224-3.648.149-1.387.352-2.859.608-4.416.277-1.557.576-3.115.896-4.672.341-1.557.693-3.04 1.056-4.448a71.15 71.15 0 011.12-3.744c.362-1.11.693-1.984.992-2.624.32-.64.597-.96.832-.96.405 0 .725.117.96.352.256.235.384.587.384 1.056 0 .597-.182 1.568-.544 2.912-.363 1.323-.832 3.05-1.408 5.184.533-.981 1.109-2.005 1.728-3.072a50.752 50.752 0 011.952-3.104 30.765 30.765 0 012.048-2.752c.704-.81 1.386-1.461 2.048-1.952.661-.49 1.301-.736 1.92-.736a2.67 2.67 0 011.76.64c.512.405.906.96 1.184 1.664.298.683.448 1.45.448 2.304 0 1.77-.299 3.488-.896 5.152a15.432 15.432 0 01-2.496 4.448 12.03 12.03 0 01-3.712 3.104 9.404 9.404 0 01-4.576 1.152 12.966 12.966 0 01-2.944-.32 183.809 183.809 0 00-.736 4.352c-.235 1.493-.47 3.083-.704 4.768-.064.448-.171.757-.32.928-.15.192-.374.288-.672.288zm14.24-26.048c-.448 0-.982.256-1.6.768-.598.512-1.248 1.195-1.952 2.048a41.105 41.105 0 00-2.08 2.784 76.818 76.818 0 00-2.048 3.072 349.07 349.07 0 00-1.824 2.912c-.534.896-.971 1.643-1.312 2.24 1.664-.043 3.125-.373 4.384-.992a11.202 11.202 0 003.232-2.432 13.874 13.874 0 002.176-3.232c.576-1.173.992-2.304 1.248-3.392.256-1.11.384-2.07.384-2.88 0-.597-.203-.896-.608-.896zm7.74 17.376c-.811 0-1.484-.373-2.017-1.12-.512-.768-.768-1.76-.768-2.976 0-1.13.277-2.25.832-3.36.576-1.11 1.334-2.176 2.272-3.2a24.041 24.041 0 013.072-2.816 27.949 27.949 0 013.328-2.272c1.131-.64 2.166-1.141 3.104-1.504.939-.363 1.686-.544 2.24-.544.299 0 .544.064.736.192.192.107.288.31.288.608a.812.812 0 01-.224.544h.064c.47 0 .704.277.704.832 0 .192-.074.587-.224 1.184-.149.576-.32 1.301-.512 2.176a38.985 38.985 0 00-.512 2.912 22.65 22.65 0 00-.224 3.2c0 .917.352 1.376 1.056 1.376.79 0 1.59-.181 2.4-.544.811-.363 1.6-.8 2.368-1.312a38.929 38.929 0 002.112-1.568c.64-.533 1.184-.981 1.632-1.344.448-.363.768-.544.96-.544.171 0 .32.053.448.16.128.107.192.277.192.512 0 .213-.213.597-.64 1.152-.426.555-.992 1.184-1.696 1.888a22.678 22.678 0 01-2.368 2.048 14.793 14.793 0 01-2.688 1.632c-.917.427-1.792.64-2.624.64-.64 0-1.226-.192-1.76-.576-.512-.405-.928-1.088-1.248-2.048-.298-.96-.448-2.283-.448-3.968v-.8a42.964 42.964 0 01-3.296 4.736c-1.13 1.43-2.261 2.57-3.392 3.424-1.11.853-2.165 1.28-3.168 1.28zm11.455-15.488a16.39 16.39 0 00-.448.192 27.743 27.743 0 00-3.072 1.664 32.684 32.684 0 00-3.072 2.208 25.09 25.09 0 00-2.656 2.528c-.79.875-1.418 1.76-1.888 2.656-.47.896-.704 1.77-.704 2.624 0 .277.053.49.16.64.128.15.342.224.64.224.427 0 .982-.267 1.664-.8.683-.555 1.43-1.28 2.24-2.176a40.698 40.698 0 002.496-2.976 66.748 66.748 0 002.368-3.296 50.986 50.986 0 001.984-3.072c.086-.15.182-.288.288-.416zm13.697 22.88c-1.066 0-2.048-.075-2.944-.224a13.966 13.966 0 01-2.592-.64 28.475 28.475 0 01-2.784-1.088 3.547 3.547 0 01-.8-.544c-.234-.192-.352-.416-.352-.672 0-.32.203-.661.608-1.024.384-.341.747-.512 1.088-.512.363 0 .811.128 1.344.384.555.256 1.195.555 1.92.896.726.363 1.526.672 2.4.928.896.256 1.856.384 2.88.384 1.11 0 2.155-.459 3.136-1.376.982-.917 1.782-2.24 2.4-3.968.619-1.707.928-3.765.928-6.176 0-.725-.021-1.525-.064-2.4a67.744 67.744 0 00-.128-2.816 37.476 37.476 0 01-1.728 3.296 24.185 24.185 0 01-1.952 2.944c-.661.875-1.354 1.579-2.08 2.112-.704.512-1.418.768-2.144.768-.917 0-1.578-.235-1.984-.704-.405-.47-.608-1.195-.608-2.176 0-1.024.075-2.133.224-3.328.15-1.195.342-2.4.576-3.616.256-1.237.555-2.41.896-3.52.342-1.11.704-2.07 1.088-2.88.214-.427.534-.64.96-.64.299 0 .587.16.864.48.299.299.448.693.448 1.184 0 .384-.085.928-.256 1.632-.17.704-.384 1.504-.64 2.4a126.48 126.48 0 00-.768 2.816c-.256.96-.469 1.91-.64 2.848a13.96 13.96 0 00-.256 2.528c0 .32.214.48.64.48.235 0 .566-.213.992-.64.448-.448.939-1.024 1.472-1.728a37.51 37.51 0 001.664-2.368 128.42 128.42 0 001.664-2.592c.534-.875.992-1.675 1.376-2.4a3.949 3.949 0 01-.032-.48v-.416c0-1.045.107-1.696.32-1.952.235-.277.534-.416.896-.416.619 0 1.056.139 1.312.416.256.277.384.757.384 1.44 0 .256-.032.533-.096.832-.064.277-.17.683-.32 1.216.171 1.685.31 3.2.416 4.544.128 1.344.192 2.699.192 4.064 0 2.581-.416 4.821-1.248 6.72-.81 1.899-1.962 3.37-3.456 4.416-1.472 1.045-3.21 1.568-5.216 1.568zm40.018-9.184c-.021.341-.16.619-.416.832-.256.213-.554.32-.896.32-.384 0-.704-.128-.96-.384s-.384-.65-.384-1.184c0-1.387.064-2.89.192-4.512.128-1.643.288-3.264.48-4.864.192-1.621.384-3.115.576-4.48a336.994 336.994 0 00-2.304 3.328 133.212 133.212 0 01-2.496 3.616 69.067 69.067 0 01-2.496 3.296c-.81.981-1.546 1.781-2.208 2.4-.661.597-1.205.896-1.632.896-.789 0-1.472-.31-2.048-.928-.576-.64-.864-1.44-.864-2.4 0-.384.043-.907.128-1.568.086-.683.182-1.397.288-2.144.107-.747.203-1.44.288-2.08.086-.661.128-1.152.128-1.472 0-.299-.032-.555-.096-.768-.042-.235-.149-.352-.32-.352-.256 0-.608.288-1.056.864-.448.555-.949 1.27-1.504 2.144-.533.875-1.088 1.803-1.664 2.784-.554.981-1.077 1.91-1.568 2.784-.49.853-.906 1.525-1.248 2.016-.277.47-.533.81-.768 1.024-.234.213-.522.32-.864.32-.405 0-.778-.213-1.12-.64-.32-.427-.48-.95-.48-1.568 0-.363.064-.928.192-1.696.128-.79.288-1.653.48-2.592.214-.939.416-1.856.608-2.752l.544-2.336c.171-.725.384-1.216.64-1.472s.534-.384.832-.384c.406 0 .726.15.96.448.256.277.384.715.384 1.312 0 .107-.064.395-.192.864a403.05 403.05 0 01-.48 1.664 59.23 59.23 0 01-.576 2.016 36.665 36.665 0 00-.48 1.952c.47-.79.96-1.643 1.472-2.56.534-.917 1.067-1.824 1.6-2.72a32.093 32.093 0 011.6-2.496c.534-.768 1.056-1.376 1.568-1.824.512-.448 1.003-.672 1.472-.672.555 0 1.067.17 1.536.512.491.341.886.8 1.184 1.376.299.576.448 1.216.448 1.92 0 .49-.085 1.184-.256 2.08-.17.875-.352 1.824-.544 2.848a24.964 24.964 0 00-.32 2.912c0 .213.064.32.192.32.107 0 .235-.075.384-.224a42.808 42.808 0 002.048-2.464c.747-.981 1.504-2.016 2.272-3.104.79-1.088 1.568-2.155 2.336-3.2a103.048 103.048 0 012.144-2.88c.683-.875 1.28-1.568 1.792-2.08.534-.512.95-.768 1.248-.768.64 0 1.131.181 1.472.544.342.363.512.97.512 1.824 0 .683-.053 1.568-.16 2.656a92.679 92.679 0 01-.352 3.552c-.128 1.28-.277 2.57-.448 3.872-.149 1.28-.298 2.475-.448 3.584a192.075 192.075 0 00-.352 2.688zm19.222-12.832c0 .683-.213 1.355-.64 2.016-.427.64-.992 1.259-1.696 1.856a19.659 19.659 0 01-2.336 1.632c-.853.512-1.707.96-2.56 1.344a25.08 25.08 0 01-2.336.928c-.171.832-.256 1.568-.256 2.208 0 .405.096.693.288.864.192.17.491.256.896.256.896 0 1.845-.16 2.848-.48a22.629 22.629 0 003.072-1.248 40.348 40.348 0 003.008-1.632 88.34 88.34 0 002.624-1.632c.811-.512 1.483-.928 2.016-1.248.533-.32.885-.48 1.056-.48.256 0 .448.085.576.256.149.15.224.33.224.544 0 .17-.267.501-.8.992-.512.49-1.205 1.067-2.08 1.728a50.163 50.163 0 01-2.944 1.984 43.604 43.604 0 01-3.392 1.92 23.406 23.406 0 01-3.36 1.44c-1.067.363-2.027.544-2.88.544-1.109 0-1.973-.416-2.592-1.248-.619-.832-.928-2.123-.928-3.872 0-1.173.149-2.357.448-3.552.32-1.195.747-2.336 1.28-3.424a17.795 17.795 0 011.824-2.944c.683-.875 1.397-1.557 2.144-2.048.747-.512 1.472-.768 2.176-.768 1.344 0 2.4.373 3.168 1.12.768.747 1.152 1.728 1.152 2.944zm-8.896 5.312a142.14 142.14 0 002.048-1.28 24.05 24.05 0 001.952-1.376c.597-.47 1.077-.96 1.44-1.472.384-.533.576-1.077.576-1.632 0-.79-.427-1.184-1.28-1.184-.533 0-1.099.341-1.696 1.024-.576.661-1.131 1.525-1.664 2.592a25.418 25.418 0 00-1.376 3.328zm16.135 7.744c-.619 0-1.173-.352-1.664-1.056-.491-.704-.736-1.61-.736-2.72 0-1.216.16-2.517.48-3.904a49.085 49.085 0 011.248-4.224 480.3 480.3 0 011.44-4.192c.107-.277.256-.48.448-.608.213-.15.533-.224.96-.224.768 0 1.152.373 1.152 1.12 0 .17-.085.555-.256 1.152a85.238 85.238 0 01-.672 2.208 145.09 145.09 0 00-.8 2.848 48.53 48.53 0 00-.736 3.04 26.804 26.804 0 00-.448 2.848c.341-.363.725-.917 1.152-1.664.448-.747.928-1.59 1.44-2.528a96.26 96.26 0 011.6-2.88 37.073 37.073 0 011.664-2.688c.576-.832 1.131-1.493 1.664-1.984.555-.512 1.067-.768 1.536-.768.683 0 1.259.213 1.728.64.491.405.864 1.13 1.12 2.176.277 1.024.416 2.475.416 4.352 0 1.003.096 1.941.288 2.816.213.875.544 1.579.992 2.112.469.512 1.067.768 1.792.768 1.088 0 2.059-.192 2.912-.576.853-.405 1.589-.853 2.208-1.344.64-.512 1.173-.96 1.6-1.344.427-.405.757-.608.992-.608.491 0 .736.256.736.768 0 .213-.16.555-.48 1.024-.299.448-.725.96-1.28 1.536a15.79 15.79 0 01-1.856 1.632c-.683.512-1.419.939-2.208 1.28a5.704 5.704 0 01-2.336.512c-1.472 0-2.677-.288-3.616-.864-.917-.576-1.6-1.525-2.048-2.848-.427-1.323-.64-3.093-.64-5.312 0-1.216-.075-2.101-.224-2.656-.128-.576-.373-.96-.736-1.152a34.764 34.764 0 00-.992 1.92c-.405.81-.875 1.717-1.408 2.72a85.683 85.683 0 01-1.632 3.04 37.022 37.022 0 01-1.696 2.784c-.576.853-1.131 1.547-1.664 2.08-.533.512-1.013.768-1.44.768zm20-9.504c-.576-.043-.842-.416-.8-1.12.022-.17.139-.373.352-.608.214-.256.459-.395.736-.416.662-.064 1.472-.16 2.432-.288.982-.15 2.059-.32 3.232-.512.214-1.045.47-2.144.768-3.296.299-1.152.63-2.272.992-3.36.363-1.11.747-2.112 1.152-3.008.406-.896.832-1.6 1.28-2.112.235-.235.448-.395.64-.48.192-.107.363-.16.512-.16.299 0 .534.128.704.384.192.256.288.544.288.864 0 .17-.032.341-.096.512-.426 1.195-.885 2.667-1.376 4.416-.49 1.75-1.013 3.659-1.568 5.728 1.963-.32 3.926-.661 5.888-1.024 1.963-.363 3.648-.693 5.056-.992.406-.17.715-.139.928.096.235.235.352.47.352.704 0 .299-.085.523-.256.672a2.67 2.67 0 01-.48.384l-.032.032c-.426.17-1.066.373-1.92.608-.853.213-1.834.448-2.944.704-1.109.235-2.293.47-3.552.704-1.237.235-2.464.448-3.68.64-.49 1.877-.992 3.808-1.504 5.792-.49 1.963-.981 3.893-1.472 5.792-.213.768-.458 1.248-.736 1.44-.256.213-.533.32-.832.32-.341 0-.64-.128-.896-.384-.234-.256-.266-.779-.096-1.568l2.336-10.912c-1.28.192-2.41.33-3.392.416-.96.085-1.632.096-2.016.032zm23.41 10.944c-.47 0-.832-.139-1.088-.416a1.283 1.283 0 01-.352-.896c0-.299.128-.576.384-.832.277-.277.65-.523 1.12-.736a48.676 48.676 0 002.4-1.344c.768-.448 1.386-.928 1.856-1.44.469-.512.704-1.056.704-1.632 0-.49-.16-.864-.48-1.12-.32-.277-.758-.416-1.312-.416-.32 0-.768.064-1.344.192a59.9 59.9 0 00-1.888.384c-.662.128-1.312.256-1.952.384-.64.107-1.184.16-1.632.16-.811 0-1.419-.192-1.824-.576-.406-.405-.608-.95-.608-1.632 0-.341.202-.853.608-1.536.405-.683.938-1.44 1.6-2.272a39.734 39.734 0 012.24-2.56 36.213 36.213 0 012.464-2.368c.853-.725 1.642-1.312 2.368-1.76.746-.448 1.365-.672 1.856-.672.49 0 .864.16 1.12.48.256.32.384.725.384 1.216 0 .384-.064.715-.192.992-.128.256-.395.459-.8.608-.384.15-.982.235-1.792.256a52.798 52.798 0 00-2.656 2.272 28.76 28.76 0 00-2.528 2.592c-.747.875-1.291 1.717-1.632 2.528.704-.235 1.557-.437 2.56-.608a16.802 16.802 0 013.104-.288c1.642 0 2.858.373 3.648 1.12.81.725 1.216 1.685 1.216 2.88 0 .768-.246 1.568-.736 2.4a9.667 9.667 0 01-1.856 2.272c-.768.704-1.59 1.27-2.464 1.696-.875.448-1.707.672-2.496.672z"/></mask><path d="M5.212 34.832c-.81 0-1.482-.373-2.016-1.12-.512-.768-.768-1.76-.768-2.976 0-1.13.278-2.25.832-3.36.576-1.11 1.334-2.176 2.272-3.2a24.05 24.05 0 013.072-2.816 27.946 27.946 0 013.328-2.272c1.131-.64 2.166-1.141 3.104-1.504.94-.363 1.686-.544 2.24-.544.3 0 .544.064.736.192.192.107.288.31.288.608a.815.815 0 01-.224.544h.064c.47 0 .704.277.704.832 0 .192-.074.587-.224 1.184-.149.576-.32 1.301-.512 2.176a38.679 38.679 0 00-.512 2.912 22.606 22.606 0 00-.224 3.2c0 .917.352 1.376 1.056 1.376.79 0 1.59-.181 2.4-.544.811-.363 1.6-.8 2.368-1.312a38.929 38.929 0 002.112-1.568c.64-.533 1.184-.981 1.632-1.344.448-.363.768-.544.96-.544.171 0 .32.053.448.16.128.107.192.277.192.512 0 .213-.213.597-.64 1.152-.426.555-.992 1.184-1.696 1.888a22.71 22.71 0 01-2.368 2.048 14.834 14.834 0 01-2.688 1.632c-.917.427-1.792.64-2.624.64-.64 0-1.226-.192-1.76-.576-.512-.405-.928-1.088-1.248-2.048-.298-.96-.448-2.283-.448-3.968v-.8a43.004 43.004 0 01-3.296 4.736c-1.13 1.43-2.26 2.57-3.392 3.424-1.109.853-2.165 1.28-3.168 1.28zm11.456-15.488a16.39 16.39 0 00-.448.192 27.689 27.689 0 00-3.072 1.664 32.66 32.66 0 00-3.072 2.208 25.102 25.102 0 00-2.656 2.528c-.789.875-1.418 1.76-1.888 2.656-.469.896-.704 1.77-.704 2.624 0 .277.054.49.16.64.128.15.342.224.64.224.427 0 .982-.267 1.664-.8.683-.555 1.43-1.28 2.24-2.176a40.754 40.754 0 002.496-2.976 67.145 67.145 0 002.368-3.296 51.282 51.282 0 001.984-3.072c.086-.15.182-.288.288-.416zM32.394 35.28c-1.643 0-2.933-.533-3.872-1.6-.917-1.088-1.376-2.603-1.376-4.544 0-1.195.16-2.592.48-4.192a74.768 74.768 0 011.28-5.12c.533-1.813 1.11-3.605 1.728-5.376.619-1.77 1.216-3.413 1.792-4.928.597-1.536 1.12-2.816 1.568-3.84.256-.576.619-.864 1.088-.864.64 0 .96.395.96 1.184 0 .256-.117.779-.352 1.568-.235.79-.544 1.77-.928 2.944-.384 1.152-.8 2.432-1.248 3.84a1239.45 1239.45 0 00-1.376 4.352 124.294 124.294 0 00-1.248 4.384 53.163 53.163 0 00-.928 4.032c-.235 1.259-.352 2.336-.352 3.232 0 .576.15 1.035.448 1.376.32.32.747.48 1.28.48.981 0 1.963-.192 2.944-.576a18.306 18.306 0 002.88-1.472 38.338 38.338 0 002.496-1.76 68.078 68.078 0 011.952-1.472c.533-.405.907-.608 1.12-.608.47 0 .704.256.704.768 0 .17-.17.49-.512.96-.341.448-.8.981-1.376 1.6a25.404 25.404 0 01-2.016 1.92 28.983 28.983 0 01-2.368 1.824 13.32 13.32 0 01-2.464 1.344c-.81.363-1.579.544-2.304.544zm14.812 0c-1.642 0-2.933-.533-3.872-1.6-.917-1.088-1.376-2.603-1.376-4.544 0-1.195.16-2.592.48-4.192a74.768 74.768 0 011.28-5.12c.534-1.813 1.11-3.605 1.728-5.376a199.89 199.89 0 011.792-4.928c.598-1.536 1.12-2.816 1.568-3.84.256-.576.62-.864 1.088-.864.64 0 .96.395.96 1.184 0 .256-.117.779-.352 1.568-.234.79-.544 1.77-.928 2.944-.384 1.152-.8 2.432-1.248 3.84-.448 1.408-.906 2.859-1.376 4.352a124.294 124.294 0 00-1.248 4.384 53.163 53.163 0 00-.928 4.032c-.234 1.259-.352 2.336-.352 3.232 0 .576.15 1.035.448 1.376.32.32.747.48 1.28.48.982 0 1.963-.192 2.944-.576a18.306 18.306 0 002.88-1.472 38.338 38.338 0 002.496-1.76 68.078 68.078 0 011.952-1.472c.534-.405.907-.608 1.12-.608.47 0 .704.256.704.768 0 .17-.17.49-.512.96-.34.448-.8.981-1.376 1.6a25.404 25.404 0 01-2.016 1.92 28.983 28.983 0 01-2.368 1.824 13.32 13.32 0 01-2.464 1.344c-.81.363-1.578.544-2.304.544zm24.496 8.224c-.363 0-.651-.128-.864-.384-.192-.256-.288-.747-.288-1.472 0-1.045.074-2.261.224-3.648.149-1.387.352-2.859.608-4.416.277-1.557.576-3.115.896-4.672.341-1.557.693-3.04 1.056-4.448a71.15 71.15 0 011.12-3.744c.362-1.11.693-1.984.992-2.624.32-.64.597-.96.832-.96.405 0 .725.117.96.352.256.235.384.587.384 1.056 0 .597-.182 1.568-.544 2.912-.363 1.323-.832 3.05-1.408 5.184.533-.981 1.109-2.005 1.728-3.072a50.752 50.752 0 011.952-3.104 30.765 30.765 0 012.048-2.752c.704-.81 1.386-1.461 2.048-1.952.661-.49 1.301-.736 1.92-.736a2.67 2.67 0 011.76.64c.512.405.906.96 1.184 1.664.298.683.448 1.45.448 2.304 0 1.77-.299 3.488-.896 5.152a15.432 15.432 0 01-2.496 4.448 12.03 12.03 0 01-3.712 3.104 9.404 9.404 0 01-4.576 1.152 12.966 12.966 0 01-2.944-.32 183.809 183.809 0 00-.736 4.352c-.235 1.493-.47 3.083-.704 4.768-.064.448-.171.757-.32.928-.15.192-.374.288-.672.288zm14.24-26.048c-.448 0-.982.256-1.6.768-.598.512-1.248 1.195-1.952 2.048a41.105 41.105 0 00-2.08 2.784 76.818 76.818 0 00-2.048 3.072 349.07 349.07 0 00-1.824 2.912c-.534.896-.971 1.643-1.312 2.24 1.664-.043 3.125-.373 4.384-.992a11.202 11.202 0 003.232-2.432 13.874 13.874 0 002.176-3.232c.576-1.173.992-2.304 1.248-3.392.256-1.11.384-2.07.384-2.88 0-.597-.203-.896-.608-.896zm7.74 17.376c-.811 0-1.484-.373-2.017-1.12-.512-.768-.768-1.76-.768-2.976 0-1.13.277-2.25.832-3.36.576-1.11 1.334-2.176 2.272-3.2a24.041 24.041 0 013.072-2.816 27.949 27.949 0 013.328-2.272c1.131-.64 2.166-1.141 3.104-1.504.939-.363 1.686-.544 2.24-.544.299 0 .544.064.736.192.192.107.288.31.288.608a.812.812 0 01-.224.544h.064c.47 0 .704.277.704.832 0 .192-.074.587-.224 1.184-.149.576-.32 1.301-.512 2.176a38.985 38.985 0 00-.512 2.912 22.65 22.65 0 00-.224 3.2c0 .917.352 1.376 1.056 1.376.79 0 1.59-.181 2.4-.544.811-.363 1.6-.8 2.368-1.312a38.929 38.929 0 002.112-1.568c.64-.533 1.184-.981 1.632-1.344.448-.363.768-.544.96-.544.171 0 .32.053.448.16.128.107.192.277.192.512 0 .213-.213.597-.64 1.152-.426.555-.992 1.184-1.696 1.888a22.678 22.678 0 01-2.368 2.048 14.793 14.793 0 01-2.688 1.632c-.917.427-1.792.64-2.624.64-.64 0-1.226-.192-1.76-.576-.512-.405-.928-1.088-1.248-2.048-.298-.96-.448-2.283-.448-3.968v-.8a42.964 42.964 0 01-3.296 4.736c-1.13 1.43-2.261 2.57-3.392 3.424-1.11.853-2.165 1.28-3.168 1.28zm11.455-15.488a16.39 16.39 0 00-.448.192 27.743 27.743 0 00-3.072 1.664 32.684 32.684 0 00-3.072 2.208 25.09 25.09 0 00-2.656 2.528c-.79.875-1.418 1.76-1.888 2.656-.47.896-.704 1.77-.704 2.624 0 .277.053.49.16.64.128.15.342.224.64.224.427 0 .982-.267 1.664-.8.683-.555 1.43-1.28 2.24-2.176a40.698 40.698 0 002.496-2.976 66.748 66.748 0 002.368-3.296 50.986 50.986 0 001.984-3.072c.086-.15.182-.288.288-.416zm13.697 22.88c-1.066 0-2.048-.075-2.944-.224a13.966 13.966 0 01-2.592-.64 28.475 28.475 0 01-2.784-1.088 3.547 3.547 0 01-.8-.544c-.234-.192-.352-.416-.352-.672 0-.32.203-.661.608-1.024.384-.341.747-.512 1.088-.512.363 0 .811.128 1.344.384.555.256 1.195.555 1.92.896.726.363 1.526.672 2.4.928.896.256 1.856.384 2.88.384 1.11 0 2.155-.459 3.136-1.376.982-.917 1.782-2.24 2.4-3.968.619-1.707.928-3.765.928-6.176 0-.725-.021-1.525-.064-2.4a67.744 67.744 0 00-.128-2.816 37.476 37.476 0 01-1.728 3.296 24.185 24.185 0 01-1.952 2.944c-.661.875-1.354 1.579-2.08 2.112-.704.512-1.418.768-2.144.768-.917 0-1.578-.235-1.984-.704-.405-.47-.608-1.195-.608-2.176 0-1.024.075-2.133.224-3.328.15-1.195.342-2.4.576-3.616.256-1.237.555-2.41.896-3.52.342-1.11.704-2.07 1.088-2.88.214-.427.534-.64.96-.64.299 0 .587.16.864.48.299.299.448.693.448 1.184 0 .384-.085.928-.256 1.632-.17.704-.384 1.504-.64 2.4a126.48 126.48 0 00-.768 2.816c-.256.96-.469 1.91-.64 2.848a13.96 13.96 0 00-.256 2.528c0 .32.214.48.64.48.235 0 .566-.213.992-.64.448-.448.939-1.024 1.472-1.728a37.51 37.51 0 001.664-2.368 128.42 128.42 0 001.664-2.592c.534-.875.992-1.675 1.376-2.4a3.949 3.949 0 01-.032-.48v-.416c0-1.045.107-1.696.32-1.952.235-.277.534-.416.896-.416.619 0 1.056.139 1.312.416.256.277.384.757.384 1.44 0 .256-.032.533-.096.832-.064.277-.17.683-.32 1.216.171 1.685.31 3.2.416 4.544.128 1.344.192 2.699.192 4.064 0 2.581-.416 4.821-1.248 6.72-.81 1.899-1.962 3.37-3.456 4.416-1.472 1.045-3.21 1.568-5.216 1.568zm40.018-9.184c-.021.341-.16.619-.416.832-.256.213-.554.32-.896.32-.384 0-.704-.128-.96-.384s-.384-.65-.384-1.184c0-1.387.064-2.89.192-4.512.128-1.643.288-3.264.48-4.864.192-1.621.384-3.115.576-4.48a336.994 336.994 0 00-2.304 3.328 133.212 133.212 0 01-2.496 3.616 69.067 69.067 0 01-2.496 3.296c-.81.981-1.546 1.781-2.208 2.4-.661.597-1.205.896-1.632.896-.789 0-1.472-.31-2.048-.928-.576-.64-.864-1.44-.864-2.4 0-.384.043-.907.128-1.568.086-.683.182-1.397.288-2.144.107-.747.203-1.44.288-2.08.086-.661.128-1.152.128-1.472 0-.299-.032-.555-.096-.768-.042-.235-.149-.352-.32-.352-.256 0-.608.288-1.056.864-.448.555-.949 1.27-1.504 2.144-.533.875-1.088 1.803-1.664 2.784-.554.981-1.077 1.91-1.568 2.784-.49.853-.906 1.525-1.248 2.016-.277.47-.533.81-.768 1.024-.234.213-.522.32-.864.32-.405 0-.778-.213-1.12-.64-.32-.427-.48-.95-.48-1.568 0-.363.064-.928.192-1.696.128-.79.288-1.653.48-2.592.214-.939.416-1.856.608-2.752l.544-2.336c.171-.725.384-1.216.64-1.472s.534-.384.832-.384c.406 0 .726.15.96.448.256.277.384.715.384 1.312 0 .107-.064.395-.192.864a403.05 403.05 0 01-.48 1.664 59.23 59.23 0 01-.576 2.016 36.665 36.665 0 00-.48 1.952c.47-.79.96-1.643 1.472-2.56.534-.917 1.067-1.824 1.6-2.72a32.093 32.093 0 011.6-2.496c.534-.768 1.056-1.376 1.568-1.824.512-.448 1.003-.672 1.472-.672.555 0 1.067.17 1.536.512.491.341.886.8 1.184 1.376.299.576.448 1.216.448 1.92 0 .49-.085 1.184-.256 2.08-.17.875-.352 1.824-.544 2.848a24.964 24.964 0 00-.32 2.912c0 .213.064.32.192.32.107 0 .235-.075.384-.224a42.808 42.808 0 002.048-2.464c.747-.981 1.504-2.016 2.272-3.104.79-1.088 1.568-2.155 2.336-3.2a103.048 103.048 0 012.144-2.88c.683-.875 1.28-1.568 1.792-2.08.534-.512.95-.768 1.248-.768.64 0 1.131.181 1.472.544.342.363.512.97.512 1.824 0 .683-.053 1.568-.16 2.656a92.679 92.679 0 01-.352 3.552c-.128 1.28-.277 2.57-.448 3.872-.149 1.28-.298 2.475-.448 3.584a192.075 192.075 0 00-.352 2.688zm19.222-12.832c0 .683-.213 1.355-.64 2.016-.427.64-.992 1.259-1.696 1.856a19.659 19.659 0 01-2.336 1.632c-.853.512-1.707.96-2.56 1.344a25.08 25.08 0 01-2.336.928c-.171.832-.256 1.568-.256 2.208 0 .405.096.693.288.864.192.17.491.256.896.256.896 0 1.845-.16 2.848-.48a22.629 22.629 0 003.072-1.248 40.348 40.348 0 003.008-1.632 88.34 88.34 0 002.624-1.632c.811-.512 1.483-.928 2.016-1.248.533-.32.885-.48 1.056-.48.256 0 .448.085.576.256.149.15.224.33.224.544 0 .17-.267.501-.8.992-.512.49-1.205 1.067-2.08 1.728a50.163 50.163 0 01-2.944 1.984 43.604 43.604 0 01-3.392 1.92 23.406 23.406 0 01-3.36 1.44c-1.067.363-2.027.544-2.88.544-1.109 0-1.973-.416-2.592-1.248-.619-.832-.928-2.123-.928-3.872 0-1.173.149-2.357.448-3.552.32-1.195.747-2.336 1.28-3.424a17.795 17.795 0 011.824-2.944c.683-.875 1.397-1.557 2.144-2.048.747-.512 1.472-.768 2.176-.768 1.344 0 2.4.373 3.168 1.12.768.747 1.152 1.728 1.152 2.944zm-8.896 5.312a142.14 142.14 0 002.048-1.28 24.05 24.05 0 001.952-1.376c.597-.47 1.077-.96 1.44-1.472.384-.533.576-1.077.576-1.632 0-.79-.427-1.184-1.28-1.184-.533 0-1.099.341-1.696 1.024-.576.661-1.131 1.525-1.664 2.592a25.418 25.418 0 00-1.376 3.328zm16.135 7.744c-.619 0-1.173-.352-1.664-1.056-.491-.704-.736-1.61-.736-2.72 0-1.216.16-2.517.48-3.904a49.085 49.085 0 011.248-4.224 480.3 480.3 0 011.44-4.192c.107-.277.256-.48.448-.608.213-.15.533-.224.96-.224.768 0 1.152.373 1.152 1.12 0 .17-.085.555-.256 1.152a85.238 85.238 0 01-.672 2.208 145.09 145.09 0 00-.8 2.848 48.53 48.53 0 00-.736 3.04 26.804 26.804 0 00-.448 2.848c.341-.363.725-.917 1.152-1.664.448-.747.928-1.59 1.44-2.528a96.26 96.26 0 011.6-2.88 37.073 37.073 0 011.664-2.688c.576-.832 1.131-1.493 1.664-1.984.555-.512 1.067-.768 1.536-.768.683 0 1.259.213 1.728.64.491.405.864 1.13 1.12 2.176.277 1.024.416 2.475.416 4.352 0 1.003.096 1.941.288 2.816.213.875.544 1.579.992 2.112.469.512 1.067.768 1.792.768 1.088 0 2.059-.192 2.912-.576.853-.405 1.589-.853 2.208-1.344.64-.512 1.173-.96 1.6-1.344.427-.405.757-.608.992-.608.491 0 .736.256.736.768 0 .213-.16.555-.48 1.024-.299.448-.725.96-1.28 1.536a15.79 15.79 0 01-1.856 1.632c-.683.512-1.419.939-2.208 1.28a5.704 5.704 0 01-2.336.512c-1.472 0-2.677-.288-3.616-.864-.917-.576-1.6-1.525-2.048-2.848-.427-1.323-.64-3.093-.64-5.312 0-1.216-.075-2.101-.224-2.656-.128-.576-.373-.96-.736-1.152a34.764 34.764 0 00-.992 1.92c-.405.81-.875 1.717-1.408 2.72a85.683 85.683 0 01-1.632 3.04 37.022 37.022 0 01-1.696 2.784c-.576.853-1.131 1.547-1.664 2.08-.533.512-1.013.768-1.44.768zm20-9.504c-.576-.043-.842-.416-.8-1.12.022-.17.139-.373.352-.608.214-.256.459-.395.736-.416.662-.064 1.472-.16 2.432-.288.982-.15 2.059-.32 3.232-.512.214-1.045.47-2.144.768-3.296.299-1.152.63-2.272.992-3.36.363-1.11.747-2.112 1.152-3.008.406-.896.832-1.6 1.28-2.112.235-.235.448-.395.64-.48.192-.107.363-.16.512-.16.299 0 .534.128.704.384.192.256.288.544.288.864 0 .17-.032.341-.096.512-.426 1.195-.885 2.667-1.376 4.416-.49 1.75-1.013 3.659-1.568 5.728 1.963-.32 3.926-.661 5.888-1.024 1.963-.363 3.648-.693 5.056-.992.406-.17.715-.139.928.096.235.235.352.47.352.704 0 .299-.085.523-.256.672a2.67 2.67 0 01-.48.384l-.032.032c-.426.17-1.066.373-1.92.608-.853.213-1.834.448-2.944.704-1.109.235-2.293.47-3.552.704-1.237.235-2.464.448-3.68.64-.49 1.877-.992 3.808-1.504 5.792-.49 1.963-.981 3.893-1.472 5.792-.213.768-.458 1.248-.736 1.44-.256.213-.533.32-.832.32-.341 0-.64-.128-.896-.384-.234-.256-.266-.779-.096-1.568l2.336-10.912c-1.28.192-2.41.33-3.392.416-.96.085-1.632.096-2.016.032zm23.41 10.944c-.47 0-.832-.139-1.088-.416a1.283 1.283 0 01-.352-.896c0-.299.128-.576.384-.832.277-.277.65-.523 1.12-.736a48.676 48.676 0 002.4-1.344c.768-.448 1.386-.928 1.856-1.44.469-.512.704-1.056.704-1.632 0-.49-.16-.864-.48-1.12-.32-.277-.758-.416-1.312-.416-.32 0-.768.064-1.344.192a59.9 59.9 0 00-1.888.384c-.662.128-1.312.256-1.952.384-.64.107-1.184.16-1.632.16-.811 0-1.419-.192-1.824-.576-.406-.405-.608-.95-.608-1.632 0-.341.202-.853.608-1.536.405-.683.938-1.44 1.6-2.272a39.734 39.734 0 012.24-2.56 36.213 36.213 0 012.464-2.368c.853-.725 1.642-1.312 2.368-1.76.746-.448 1.365-.672 1.856-.672.49 0 .864.16 1.12.48.256.32.384.725.384 1.216 0 .384-.064.715-.192.992-.128.256-.395.459-.8.608-.384.15-.982.235-1.792.256a52.798 52.798 0 00-2.656 2.272 28.76 28.76 0 00-2.528 2.592c-.747.875-1.291 1.717-1.632 2.528.704-.235 1.557-.437 2.56-.608a16.802 16.802 0 013.104-.288c1.642 0 2.858.373 3.648 1.12.81.725 1.216 1.685 1.216 2.88 0 .768-.246 1.568-.736 2.4a9.667 9.667 0 01-1.856 2.272c-.768.704-1.59 1.27-2.464 1.696-.875.448-1.707.672-2.496.672z" fill="#00AEEF"/><path d="M3.196 33.712l-.832.555.01.013.009.013.813-.581zm.064-6.336l-.887-.46-.004.006-.003.007.894.447zm5.344-6.016l.61.793.01-.008-.62-.785zm3.328-2.272l-.492-.87-.007.004.5.866zm3.104-1.504l.36.933-.36-.933zm2.976-.352l-.554.832.033.023.036.02.485-.875zm.064 1.152l-.752-.659-1.451 1.659h2.203v-1zm.544 2.016l.968.251.003-.009-.97-.242zm-1.024 5.088l.99.141v-.002l-.99-.139zm3.232 4.032l.409.913-.409-.913zm2.368-1.312l.555.832.008-.005.008-.006-.57-.821zm2.112-1.568l.625.78.008-.005.008-.007-.64-.768zm1.632-1.344l.63.777-.63-.777zm.96 1.28l.793.61-.793-.61zm-1.696 1.888l.707.707-.707-.707zm-2.368 2.048l.604.798-.604-.798zm-2.688 1.632l-.421-.907.421.907zm-4.384.064l-.62.784.018.014.018.014.584-.812zm-1.248-2.048l-.954.297.003.01.003.01.948-.317zm-.448-4.768h1v-3.585l-1.855 3.067.855.518zm-3.296 4.736l-.778-.628-.006.008.784.62zM8.38 33.552l-.602-.798-.007.005.61.793zm8.288-14.208l.769.64-1.14-1.569.371.929zm-.448.192l-.406-.914-.009.004.415.91zM13.148 21.2l-.527-.85-.007.005.534.845zm-3.072 2.208l-.628-.778-.008.007.636.771zM7.42 25.936l.743.67-.743-.67zm-1.888 2.656l-.885-.464.885.464zm-.544 3.264l-.813.581.025.036.03.034.758-.651zm2.304-.576l.616.788.008-.006.007-.006-.63-.776zm2.24-2.176l-.732-.68-.01.01.742.67zm2.496-2.976l.795.607-.795-.607zm2.368-3.296l-.822-.57-.007.012.83.558zm1.984-3.072l.861.509.004-.006.004-.007-.869-.496zM5.212 34.832v-1c-.441 0-.828-.177-1.202-.701l-.814.581-.813.581c.692.97 1.65 1.539 2.83 1.539v-1zm-2.016-1.12l.832-.555c-.372-.559-.6-1.34-.6-2.421h-2c0 1.352.285 2.554.936 3.53l.832-.554zm-.768-2.976h1c0-.96.235-1.929.727-2.913l-.895-.447-.894-.447c-.617 1.234-.938 2.507-.938 3.807h1zm.832-3.36l.888.46c.531-1.022 1.236-2.018 2.122-2.984l-.738-.676-.737-.676c-.991 1.082-1.801 2.22-2.422 3.415l.887.461zm2.272-3.2l.738.676a23.078 23.078 0 012.944-2.7l-.61-.792-.61-.793A25.054 25.054 0 004.796 23.5l.737.676zm3.072-2.816l.62.785a26.94 26.94 0 013.208-2.19l-.5-.867-.5-.866a28.96 28.96 0 00-3.447 2.353l.62.785zm3.328-2.272l.493.87c1.1-.622 2.09-1.1 2.972-1.441l-.36-.933-.361-.933c-.995.385-2.075.91-3.236 1.567l.492.87zm3.104-1.504l.36.933c.902-.349 1.511-.477 1.88-.477v-2c-.74 0-1.624.234-2.6.611l.36.933zm2.24-.544v1c.16 0 .196.034.182.024l.554-.832.555-.832c-.398-.266-.852-.36-1.29-.36v1zm.736.192l-.485.874a.494.494 0 01-.202-.214c-.033-.07-.025-.1-.025-.052h2c0-.513-.18-1.137-.802-1.482l-.486.874zm.288.608h-1c0-.037.008-.073.02-.1.01-.026.017-.03.004-.014l.752.658.753.659c.278-.319.471-.726.471-1.203h-1zm-.224.544v1h.064v-2h-.063v1zm.064 0v1c.021 0-.005.003-.058-.018a.456.456 0 01-.177-.128.333.333 0 01-.067-.114c-.002-.006.006.02.006.092h2c0-.395-.08-.877-.412-1.27-.36-.425-.855-.562-1.292-.562v1zm.704.832h-1c0-.003-.003.067-.038.254-.033.171-.084.399-.156.688l.97.242.97.242c.143-.57.254-1.088.254-1.426h-1zM18.62 20.4l-.968-.251a62.418 62.418 0 00-.52 2.213l.976.214.977.214c.19-.867.358-1.58.503-2.139l-.968-.251zm-.512 2.176l-.976-.214c-.199.904-.374 1.9-.526 2.987l.99.139.99.139a37.59 37.59 0 01.5-2.837l-.978-.214zm-.512 2.912l-.99-.141a23.59 23.59 0 00-.234 3.341h2c0-1.042.072-2.061.214-3.059l-.99-.141zm-.224 3.2h-1c0 .559.103 1.16.471 1.64.407.531.998.736 1.585.736v-2c-.068 0-.082-.011-.063-.003.024.01.05.03.065.05.01.014-.005.001-.023-.069a1.469 1.469 0 01-.035-.354h-1zm1.056 1.376v1c.947 0 1.886-.218 2.809-.631l-.409-.913-.408-.913c-.698.313-1.36.457-1.992.457v1zm2.4-.544l.409.913a17.17 17.17 0 002.514-1.393l-.555-.832-.554-.832c-.724.482-1.464.892-2.222 1.231l.408.913zm2.368-1.312l.57.821a39.984 39.984 0 002.167-1.608l-.625-.781-.624-.78a37.927 37.927 0 01-2.058 1.527l.57.821zm2.112-1.568l.64.768c.638-.531 1.178-.976 1.622-1.335l-.63-.777-.629-.777c-.453.366-1 .818-1.643 1.353l.64.768zm1.632-1.344l.63.777a3.51 3.51 0 01.44-.315c.045-.026.063-.032.056-.03a.512.512 0 01-.166.024v-2c-.364 0-.68.155-.877.266a5.405 5.405 0 00-.712.5l.63.778zm.96-.544v1a.318.318 0 01-.192-.072l.64-.768.64-.768a1.678 1.678 0 00-1.088-.392v1zm.448.16l-.64.768a.514.514 0 01-.152-.209c-.02-.054-.016-.077-.016-.047h2c0-.405-.113-.915-.551-1.28l-.64.768zm.192.512h-1c0-.103.024-.159.019-.144a.858.858 0 01-.053.106c-.073.131-.2.322-.398.58l.792.61.793.61c.228-.297.421-.575.562-.828.119-.215.285-.556.285-.934h-1zm-.64 1.152l-.792-.61c-.392.51-.926 1.106-1.61 1.79l.706.708.707.707c.723-.723 1.32-1.385 1.782-1.985l-.793-.61zm-1.696 1.888l-.707-.707a21.714 21.714 0 01-2.264 1.957l.603.798.604.798a23.716 23.716 0 002.471-2.139l-.707-.707zm-2.368 2.048l-.603-.798a13.838 13.838 0 01-2.506 1.523l.421.907.422.907a15.84 15.84 0 002.87-1.741l-.604-.798zm-2.688 1.632l-.421-.907c-.814.379-1.544.547-2.203.547v2c1.006 0 2.025-.258 3.046-.733l-.422-.907zm-2.624.64v-1c-.424 0-.807-.122-1.175-.387l-.585.811-.584.812a3.945 3.945 0 002.344.764v-1zm-1.76-.576l.621-.784c-.297-.235-.63-.711-.92-1.58l-.949.316-.948.316c.35 1.051.849 1.94 1.576 2.516l.62-.784zm-1.248-2.048l.955-.297c-.255-.82-.403-2.028-.403-3.671h-2c0 1.728.152 3.166.494 4.265l.954-.297zm-.448-3.968h1v-.8h-2v.8h1zm0-.8l-.855-.518a42.01 42.01 0 01-3.22 4.627l.78.627.778.628a43.986 43.986 0 003.373-4.846l-.856-.518zm-3.296 4.736l-.784-.62c-1.092 1.38-2.163 2.456-3.21 3.246l.602.798.603.798c1.215-.917 2.404-2.123 3.574-3.602l-.785-.62zM8.38 33.552l-.61-.793c-1.002.771-1.848 1.073-2.558 1.073v2c1.296 0 2.562-.552 3.778-1.487l-.61-.793zm8.288-14.208l-.371-.928c-.124.05-.287.12-.483.206l.406.914.407.914c.188-.084.324-.142.413-.177l-.372-.929zm-.448.192l-.415-.91a28.676 28.676 0 00-3.184 1.724l.527.85.527.85a26.676 26.676 0 012.96-1.604l-.415-.91zM13.148 21.2l-.534-.845a33.661 33.661 0 00-3.166 2.275l.628.778.63.778a31.32 31.32 0 012.977-2.14l-.535-.846zm-3.072 2.208l-.636-.771a26.103 26.103 0 00-2.762 2.629l.742.67.743.67a24.084 24.084 0 012.55-2.427l-.637-.771zM7.42 25.936l-.742-.67c-.837.927-1.517 1.88-2.031 2.862l.885.464.886.464c.425-.81 1.003-1.628 1.745-2.45l-.743-.67zm-1.888 2.656l-.885-.464c-.53 1.013-.819 2.046-.819 3.088h2c0-.664.182-1.38.59-2.16l-.886-.464zm-.704 2.624h-1c0 .385.071.836.347 1.221l.813-.581.814-.581c.033.045.039.075.037.067a.567.567 0 01-.01-.126h-1zm.16.64l-.759.65c.399.466.961.574 1.4.574v-2c-.071 0-.082-.01-.054 0a.425.425 0 01.173.125l-.76.651zm.64.224v1c.786 0 1.573-.46 2.28-1.012l-.616-.788-.615-.788c-.658.514-.981.588-1.049.588v1zm1.664-.8l.631.776c.734-.596 1.518-1.36 2.351-2.281l-.742-.671-.741-.67c-.788.87-1.498 1.557-2.13 2.07l.631.776zm2.24-2.176l.733.68a41.768 41.768 0 002.558-3.049l-.795-.607-.794-.608A39.722 39.722 0 018.8 28.424l.732.68zm2.496-2.976l.795.607a68.274 68.274 0 002.403-3.345l-.83-.558-.83-.558a66.148 66.148 0 01-2.332 3.246l.794.608zm2.368-3.296l.823.57a52.29 52.29 0 002.022-3.133l-.86-.509-.861-.509a50.357 50.357 0 01-1.946 3.012l.822.569zm1.984-3.072l.869.496c.057-.1.12-.19.188-.272l-.769-.64-.768-.64a3.876 3.876 0 00-.388.56l.868.496zm12.142 13.92l-.765.645.007.008.007.008.75-.661zm-.896-8.736l-.979-.206-.002.01.98.196zm1.28-5.12l-.96-.282-.002.007.962.275zm3.52-10.304l-.932-.362-.003.007.935.355zm1.568-3.84l-.914-.406-.002.005.916.401zm.768 4.832l.949.316.001-.005-.95-.311zm-2.624 8.192l-.954-.3-.003.009.957.291zm-1.248 4.384l.966.26v-.004l-.966-.256zm-.928 4.032l.983.183-.983-.183zm.096 4.608l-.753.658.022.026.024.023.707-.707zm4.224-.096l.364.931.01-.004-.374-.927zm2.88-1.472l.532.847.007-.005.007-.004-.546-.838zm2.496-1.76l.61.792.004-.003-.614-.789zm1.952-1.472l.584.811.01-.007.011-.008-.605-.796zm1.312 1.12l.795.606.007-.009.007-.009-.81-.588zm-3.392 3.52l.65.76.002-.002-.652-.758zm-2.368 1.824l.565.825.004-.003-.57-.822zm-2.464 1.344l-.38-.925-.014.006-.014.006.408.913zm-2.304.544v-1c-1.405 0-2.403-.444-3.121-1.26l-.751.66-.75.66c1.158 1.318 2.742 1.94 4.622 1.94v-1zm-3.872-1.6l.764-.645c-.717-.851-1.14-2.108-1.14-3.899h-2c0 2.091.494 3.864 1.611 5.189l.765-.645zm-1.376-4.544h1c0-1.11.15-2.439.46-3.996l-.98-.196-.98-.196c-.33 1.643-.5 3.109-.5 4.388h1zm.48-4.192l.979.206c.335-1.596.756-3.28 1.262-5.051l-.961-.275-.962-.275a75.679 75.679 0 00-1.297 5.189l.979.206zm1.28-5.12l.96.282a111.344 111.344 0 011.712-5.328l-.944-.33-.944-.33a113.736 113.736 0 00-1.743 5.424l.959.282zm1.728-5.376l.944.33c.616-1.764 1.21-3.398 1.783-4.903l-.935-.355-.935-.355a193.99 193.99 0 00-1.801 4.953l.944.33zm1.792-4.928l.932.362a101.951 101.951 0 011.552-3.801l-.916-.401-.916-.4a103.774 103.774 0 00-1.584 3.878l.932.362zm1.568-3.84l.914.406c.085-.191.154-.257.172-.27.007-.006.005-.004-.003-.001s-.008.001.005.001v-2c-1.004 0-1.651.668-2.002 1.458l.914.406zm1.088-.864v1c.059 0 .065.01.04-.001a.257.257 0 01-.096-.073c-.025-.03-.02-.04-.01 0 .012.044.026.125.026.258h2c0-.504-.098-1.067-.463-1.518-.398-.49-.961-.666-1.497-.666v1zM36.042 6h-1c0-.005 0 .022-.01.093a4.69 4.69 0 01-.054.272c-.052.23-.133.535-.247.918l.959.285.959.285c.12-.406.215-.758.28-1.05.062-.273.113-.558.113-.803h-1zm-.352 1.568l-.959-.285c-.23.777-.537 1.75-.92 2.918l.95.311.951.311c.386-1.178.698-2.169.936-2.97l-.958-.285zm-.928 2.944l-.949-.316a297.716 297.716 0 00-1.252 3.853l.953.303.953.303c.447-1.404.861-2.68 1.244-3.827l-.95-.316zm-1.248 3.84l-.953-.303c-.448 1.409-.907 2.86-1.377 4.355l.954.3.954.3c.469-1.492.927-2.942 1.375-4.349l-.953-.303zm-1.376 4.352l-.957-.291c-.451 1.483-.87 2.956-1.258 4.42l.967.255.967.256c.38-1.439.793-2.888 1.238-4.349l-.957-.291zm-1.248 4.384l-.966-.26a53.889 53.889 0 00-.945 4.109l.983.183.983.183c.23-1.23.532-2.548.91-3.956l-.965-.259zm-.928 4.032l-.983-.183c-.242 1.295-.37 2.438-.37 3.415h2c0-.815.108-1.827.336-3.049l-.983-.183zm-.352 3.232h-1c0 .75.198 1.466.695 2.034l.753-.658.753-.659c-.1-.113-.201-.316-.201-.717h-1zm.448 1.376l-.707.707c.54.54 1.24.773 1.987.773v-2c-.32 0-.474-.088-.573-.187l-.707.707zm1.28.48v1c1.115 0 2.22-.219 3.308-.645l-.364-.931-.364-.931a7.03 7.03 0 01-2.58.507v1zm2.944-.576l.375.927a19.302 19.302 0 003.037-1.552l-.532-.847-.532-.847a17.315 17.315 0 01-2.723 1.392l.375.927zm2.88-1.472l.546.838c.936-.61 1.79-1.212 2.56-1.806l-.61-.792-.61-.792a37.35 37.35 0 01-2.432 1.714l.546.838zm2.496-1.76l.614.79a67.077 67.077 0 011.922-1.45l-.584-.812-.584-.812c-.547.394-1.208.893-1.982 1.495l.614.789zm1.952-1.472l.605.796a4.59 4.59 0 01.552-.373.78.78 0 01.1-.048c.011-.004-.041.017-.137.017v-2c-.37 0-.702.156-.917.273a6.36 6.36 0 00-.808.539l.605.796zm1.12-.608v1c.029 0 .012.004-.034-.012a.456.456 0 01-.175-.12c-.117-.128-.087-.222-.087-.1h2c0-.39-.087-.868-.439-1.252-.366-.4-.853-.516-1.265-.516v1zm.704.768h-1c0-.06.007-.105.012-.13l.011-.042c.001-.003-.006.019-.033.07a4.355 4.355 0 01-.31.474l.808.588.809.588a6.27 6.27 0 00.457-.71c.094-.176.246-.487.246-.838h-1zm-.512.96l-.795-.606c-.315.412-.75.92-1.313 1.525l.732.681.732.681a23.046 23.046 0 001.44-1.675l-.796-.606zm-1.376 1.6l-.732-.681a24.426 24.426 0 01-1.937 1.843l.653.758.652.758a26.36 26.36 0 002.096-1.997l-.732-.681zm-2.016 1.92l-.65-.76a27.982 27.982 0 01-2.287 1.762l.569.822.57.822a29.985 29.985 0 002.449-1.887l-.651-.759zm-2.368 1.824l-.565-.825c-.758.518-1.517.931-2.279 1.244l.38.925.38.925c.902-.37 1.785-.853 2.649-1.444l-.565-.825zm-2.464 1.344l-.408-.913c-.71.318-1.34.457-1.896.457v2c.894 0 1.801-.224 2.712-.631l-.408-.913zm8.636-1.056l-.764.645.007.008.007.008.75-.661zm-.896-8.736l-.978-.206-.002.01.98.196zm1.28-5.12l-.959-.282-.002.007.961.275zm3.52-10.304l-.932-.362-.002.007.934.355zm1.568-3.84l-.913-.406-.003.005.916.401zm.768 4.832l.95.316v-.005l-.95-.311zm-2.624 8.192l-.954-.3-.002.009.956.291zm-1.248 4.384l.966.26.001-.004-.967-.256zm-.928 4.032l.983.183-.983-.183zm.096 4.608l-.752.658.022.026.023.023.707-.707zm4.224-.096l.365.931.01-.004-.375-.927zm2.88-1.472l.532.847.007-.005.007-.004-.546-.838zm2.496-1.76l.611.792.003-.003-.614-.789zm1.952-1.472l.585.811.01-.007.01-.008-.605-.796zm1.312 1.12l.796.606.007-.009.006-.009-.809-.588zm-3.392 3.52l.651.76.002-.002-.653-.758zm-2.368 1.824l.565.825.005-.003-.57-.822zm-2.464 1.344l-.38-.925-.014.006-.014.006.408.913zm-2.304.544v-1c-1.405 0-2.403-.444-3.12-1.26l-.752.66-.75.66c1.159 1.318 2.742 1.94 4.622 1.94v-1zm-3.872-1.6l.765-.645c-.718-.851-1.14-2.108-1.14-3.899h-2c0 2.091.494 3.864 1.61 5.189l.765-.645zm-1.376-4.544h1c0-1.11.15-2.439.461-3.996l-.98-.196-.981-.196c-.329 1.643-.5 3.109-.5 4.388h1zm.48-4.192l.979.206c.336-1.596.757-3.28 1.263-5.051l-.962-.275-.961-.275a75.679 75.679 0 00-1.297 5.189l.978.206zm1.28-5.12l.96.282c.528-1.797 1.1-3.573 1.713-5.328l-.945-.33-.944-.33a113.736 113.736 0 00-1.743 5.424l.96.282zm1.728-5.376l.945.33c.616-1.764 1.21-3.398 1.782-4.903l-.935-.355-.934-.355a193.99 193.99 0 00-1.802 4.953l.944.33zm1.792-4.928l.932.362a101.951 101.951 0 011.553-3.801l-.917-.401-.916-.4a103.774 103.774 0 00-1.584 3.878l.932.362zm1.568-3.84l.914.406c.085-.191.154-.257.172-.27.007-.006.006-.004-.003-.001-.008.003-.008.001.005.001v-2c-1.004 0-1.65.668-2.001 1.458l.913.406zm1.088-.864v1c.06 0 .065.01.04-.001a.257.257 0 01-.096-.073c-.025-.03-.02-.04-.009 0 .012.044.025.125.025.258h2c0-.504-.097-1.067-.463-1.518-.398-.49-.96-.666-1.497-.666v1zM50.854 6h-1c0-.005 0 .022-.01.093-.01.067-.028.157-.053.272-.052.23-.133.535-.247.918l.958.285.959.285c.12-.406.216-.758.281-1.05.061-.273.112-.558.112-.803h-1zm-.352 1.568l-.958-.285c-.231.777-.538 1.75-.92 2.918l.95.311.95.311c.386-1.178.699-2.169.937-2.97l-.959-.285zm-.928 2.944l-.948-.316a297.716 297.716 0 00-1.252 3.853l.952.303.953.303c.447-1.404.862-2.68 1.244-3.827l-.949-.316zm-1.248 3.84l-.953-.303c-.448 1.409-.907 2.86-1.377 4.355l.954.3.954.3c.47-1.492.928-2.942 1.375-4.349l-.953-.303zm-1.376 4.352l-.956-.291a122.828 122.828 0 00-1.258 4.42l.966.255.967.256c.38-1.439.794-2.888 1.238-4.349l-.957-.291zm-1.248 4.384l-.965-.26a53.916 53.916 0 00-.946 4.109l.983.183.983.183c.23-1.23.533-2.548.911-3.956l-.966-.259zm-.928 4.032l-.983-.183c-.241 1.295-.369 2.438-.369 3.415h2c0-.815.108-1.827.336-3.049l-.984-.183zm-.352 3.232h-1c0 .75.198 1.466.696 2.034l.752-.658.753-.659c-.1-.113-.2-.316-.2-.717h-1zm.448 1.376l-.707.707c.541.54 1.24.773 1.987.773v-2c-.319 0-.473-.088-.572-.187l-.708.707zm1.28.48v1c1.115 0 2.22-.219 3.309-.645l-.365-.931-.364-.931a7.03 7.03 0 01-2.58.507v1zm2.944-.576l.375.927a19.302 19.302 0 003.037-1.552l-.532-.847-.531-.847a17.315 17.315 0 01-2.723 1.392l.374.927zm2.88-1.472l.546.838a39.88 39.88 0 002.561-1.806l-.61-.792-.611-.792a37.35 37.35 0 01-2.431 1.714l.545.838zm2.496-1.76l.614.79a67.077 67.077 0 011.923-1.45l-.585-.812-.584-.812c-.547.394-1.208.893-1.982 1.495l.614.789zm1.952-1.472l.606.796a4.51 4.51 0 01.552-.373.78.78 0 01.099-.048c.012-.004-.04.017-.137.017v-2c-.37 0-.702.156-.917.273-.249.135-.52.32-.808.539l.605.796zm1.12-.608v1c.03 0 .012.004-.033-.012a.456.456 0 01-.176-.12c-.116-.128-.087-.222-.087-.1h2c0-.39-.087-.868-.438-1.252-.367-.4-.853-.516-1.266-.516v1zm.704.768h-1c0-.06.008-.105.013-.13l.01-.042a.405.405 0 01-.033.07 4.355 4.355 0 01-.31.474l.808.588.81.588a6.27 6.27 0 00.457-.71c.094-.176.245-.487.245-.838h-1zm-.512.96l-.795-.606c-.314.412-.749.92-1.313 1.525l.732.681.732.681a23.046 23.046 0 001.44-1.675l-.796-.606zm-1.376 1.6l-.731-.681a24.426 24.426 0 01-1.937 1.843l.652.758.653.758c.79-.681 1.49-1.346 2.095-1.997l-.732-.681zm-2.016 1.92l-.65-.76a27.982 27.982 0 01-2.287 1.762l.57.822.569.822a29.985 29.985 0 002.45-1.887l-.652-.759zm-2.368 1.824l-.564-.825c-.758.518-1.518.931-2.28 1.244l.38.925.38.925c.903-.37 1.786-.853 2.65-1.444l-.566-.825zm-2.464 1.344l-.408-.913c-.71.318-1.339.457-1.896.457v2c.894 0 1.802-.224 2.713-.631l-.409-.913zm21.328 8.384l-.8.6.015.02.017.02.768-.64zM70.774 38l.994.107-.994-.107zm.608-4.416l-.985-.175-.002.013.987.162zm.896-4.672l-.977-.214-.003.013.98.201zm1.056-4.448l-.965-.263-.002.007-.002.007.969.249zm1.12-3.744l.948.316.002-.005-.95-.311zm.992-2.624l-.895-.447-.006.012-.005.012.906.423zm1.792-.608l-.707.707.015.015.016.015.676-.737zm-.16 3.968l.964.264.001-.003-.965-.261zM75.67 26.64l-.966-.26 1.844.738-.878-.478zm1.728-3.072l.865.502-.865-.502zm1.952-3.104l.826.563.006-.008-.832-.555zm2.048-2.752l-.755-.656-.005.006-.005.006.765.644zm2.048-1.952l.596.803-.596-.803zm3.68-.096l-.64.768.01.008.009.008.62-.784zm1.184 1.664l-.93.367.006.017.008.017.916-.401zm-.448 7.456l.94.342v-.004l-.94-.338zm-2.496 4.448l-.779-.628v.002l.779.626zm-3.712 3.104l-.474-.88-.005.002.479.878zm-7.52.832l.229-.973-1.025-.242-.188 1.036.984.179zm-.736 4.352l.988.155-.988-.155zm-.704 4.768l.99.141v-.003l-.99-.138zm-.32.928l-.753-.659-.019.022-.018.023.79.614zm11.968-24.992l-.638-.77-.007.005-.006.006.65.759zm-1.952 2.048l-.772-.636-.001.002.773.634zm-2.08 2.784l.818.575.006-.009-.824-.566zm-2.048 3.072l-.845-.535.845.535zm-1.824 2.912l-.85-.526-.005.007-.005.008.86.511zm-1.312 2.24l-.869-.496-.88 1.541 1.774-.045-.025-1zm4.384-.992l.44.898.013-.007-.453-.891zm3.232-2.432l.738.674.007-.008-.745-.666zm2.176-3.232l-.898-.44-.003.006.9.434zm1.248-3.392l.973.229.001-.004-.974-.225zM71.702 43.504v-1a.34.34 0 01-.065-.005l-.017-.005a.09.09 0 01-.014-.014l-.768.64-.768.64c.421.506 1.002.744 1.632.744v-1zm-.864-.384l.8-.6c.03.041-.001.02-.035-.152a3.89 3.89 0 01-.053-.72h-2c0 .401.026.774.09 1.104.063.319.174.67.398.968l.8-.6zm-.288-1.472h1c0-1 .071-2.179.218-3.54L70.774 38l-.995-.107c-.152 1.411-.23 2.664-.23 3.755h1zM70.774 38l.994.107c.147-1.366.347-2.82.6-4.36l-.986-.163-.987-.162a81.394 81.394 0 00-.616 4.47l.995.108zm.608-4.416l.984.175c.276-1.548.573-3.097.891-4.646l-.98-.201-.979-.201a180.885 180.885 0 00-.9 4.698l.984.175zm.896-4.672l.976.214c.34-1.547.689-3.017 1.048-4.413l-.968-.249-.969-.25c-.366 1.421-.72 2.916-1.064 4.484l.977.214zm1.056-4.448l.964.263c.38-1.395.749-2.624 1.104-3.69l-.948-.317-.949-.316a72.175 72.175 0 00-1.136 3.797l.965.263zm1.12-3.744l.95.31c.357-1.091.674-1.923.948-2.511l-.906-.423-.906-.423c-.324.692-.669 1.61-1.037 2.736l.95.311zm.992-2.624l.894.447c.145-.289.25-.444.31-.512.028-.033.02-.016-.026.013a.659.659 0 01-.346.092v-2c-.57 0-.954.37-1.14.585-.218.252-.411.577-.587.928l.895.447zm.832-.96v1c.202 0 .245.052.253.06l.707-.708.707-.707c-.462-.462-1.06-.645-1.667-.645v1zm.96.352l-.676.737s.01.008.024.045a.827.827 0 01.036.274h2c0-.647-.18-1.31-.709-1.793l-.675.737zm.384 1.056h-1c0 .452-.148 1.31-.51 2.651l.966.261.965.26c.363-1.346.579-2.43.579-3.172h-1zm-.544 2.912l-.965-.264c-.363 1.324-.833 3.053-1.409 5.187l.966.261.965.26c.576-2.132 1.045-3.859 1.407-5.18l-.964-.264zM75.67 26.64l.878.477c.529-.972 1.1-1.988 1.715-3.047l-.865-.502-.865-.502a128.184 128.184 0 00-1.742 3.097l.879.477zm1.728-3.072l.865.502a49.788 49.788 0 011.913-3.043l-.826-.563-.827-.563a51.784 51.784 0 00-1.99 3.165l.865.502zm1.952-3.104l.832.555a29.791 29.791 0 011.98-2.663l-.764-.644-.765-.644a31.778 31.778 0 00-2.115 2.841l.832.555zm2.048-2.752l.755.656c.67-.772 1.3-1.368 1.888-1.805l-.595-.803-.596-.803c-.734.544-1.47 1.25-2.207 2.1l.755.655zm2.048-1.952l.596.803c.545-.405.98-.539 1.324-.539v-2c-.895 0-1.74.356-2.516.933l.596.803zm1.92-.736v1c.425 0 .786.13 1.12.408l.64-.768.64-.768a3.67 3.67 0 00-2.4-.872v1zm1.76.64l-.621.784c.353.28.651.68.874 1.247l.93-.367.931-.366c-.331-.842-.823-1.55-1.494-2.082l-.62.784zm1.184 1.664l-.916.4c.235.54.364 1.169.364 1.904h2c0-.971-.17-1.879-.532-2.705l-.916.401zm.448 2.304h-1c0 1.656-.28 3.259-.837 4.814l.94.338.942.338c.636-1.773.955-3.604.955-5.49h-1zm-.896 5.152l-.94-.342a14.43 14.43 0 01-2.335 4.162l.779.628.778.628a16.43 16.43 0 002.657-4.734l-.94-.342zm-2.496 4.448l-.78-.626a11.03 11.03 0 01-3.406 2.85l.474.88.473.88a13.03 13.03 0 004.018-3.358l-.78-.626zm-3.712 3.104l-.48-.878a8.404 8.404 0 01-4.096 1.03v2c1.805 0 3.496-.424 5.054-1.274l-.478-.878zm-4.576 1.152v-1c-.586 0-1.096-.03-1.535-.088l-.13.992-.129.992c.543.07 1.142.104 1.794.104v-1zm-1.664-.096l.129-.992c-.467-.06-.86-.13-1.18-.205l-.23.973-.228.973c.404.096.865.176 1.38.243l.129-.992zm-1.28-.224l-.984-.179a184.967 184.967 0 00-.74 4.376l.988.155.988.155c.233-1.486.477-2.928.732-4.328l-.984-.179zm-.736 4.352l-.988-.155a276.8 276.8 0 00-.707 4.785l.99.138.991.138c.234-1.68.468-3.264.702-4.75l-.988-.156zm-.704 4.768l-.99-.141a2.15 2.15 0 01-.084.383c-.028.082-.038.072.001.027l.753.659.752.658c.352-.402.489-.962.558-1.445l-.99-.141zm-.32.928l-.79-.614a.294.294 0 01.116-.09c.037-.015.045-.008.002-.008v2c.529 0 1.079-.183 1.461-.674l-.79-.614zm13.568-25.76v-1c-.805 0-1.567.442-2.238.998l.638.77.637.77c.566-.468.871-.538.963-.538v-1zm-1.6.768l-.651-.76c-.655.562-1.346 1.29-2.073 2.172l.772.636.771.636c.68-.825 1.291-1.462 1.832-1.925l-.651-.759zm-1.952 2.048l-.773-.634a42.117 42.117 0 00-2.131 2.851l.824.567.824.566a40.161 40.161 0 012.029-2.716l-.773-.634zm-2.08 2.784l-.819-.575a77.739 77.739 0 00-2.074 3.112l.845.535.845.535a75.825 75.825 0 012.021-3.032l-.818-.575zm-2.048 3.072l-.845-.535a354.785 354.785 0 00-1.83 2.92l.85.527.85.526c.554-.892 1.16-1.86 1.82-2.903l-.845-.535zm-1.824 2.912l-.86-.511c-.535.898-.975 1.65-1.32 2.255l.868.496.868.496c.337-.59.771-1.331 1.303-2.224l-.86-.512zm-1.312 2.24l.025 1c1.782-.046 3.39-.402 4.8-1.095l-.441-.897-.441-.897c-1.108.544-2.423.85-3.969.89l.026.999zm4.384-.992l.453.891a12.201 12.201 0 003.517-2.649l-.738-.674-.739-.674a10.2 10.2 0 01-2.947 2.215l.454.891zm3.232-2.432l.745.666a14.872 14.872 0 002.332-3.464l-.901-.434-.901-.434a12.876 12.876 0 01-2.021 3l.746.666zm2.176-3.232l.897.44c.604-1.23 1.048-2.43 1.324-3.603l-.973-.229-.974-.229c-.236 1.004-.624 2.063-1.172 3.18l.898.441zm1.248-3.392l.974.225c.267-1.156.41-2.195.41-3.105h-2c0 .711-.114 1.592-.359 2.655l.975.225zm.384-2.88h1c0-.38-.06-.842-.325-1.233-.313-.461-.797-.663-1.283-.663v2a.415.415 0 01-.175-.046.515.515 0 01-.197-.169c-.035-.052-.039-.082-.034-.06a.83.83 0 01.014.171h1zm5.115 15.36l-.832.555.01.013.008.013.814-.581zm.064-6.336l-.887-.46-.004.006-.003.007.894.447zm5.344-6.016l.61.793.01-.008-.62-.785zm3.328-2.272l-.492-.87-.008.004.5.866zm3.104-1.504l.361.933-.361-.933zm2.976-.352l-.555.832.034.023.036.02.485-.875zm.064 1.152l-.752-.659-1.452 1.659h2.204v-1zm.544 2.016l.968.251.002-.009-.97-.242zm-1.024 5.088l.99.141.001-.002-.991-.139zm3.232 4.032l.409.913-.409-.913zm2.368-1.312l.555.832.008-.005.008-.006-.571-.821zm2.112-1.568l.625.78.008-.005.007-.007-.64-.768zm1.632-1.344l.629.777-.629-.777zm.96 1.28l.793.61-.793-.61zm-1.696 1.888l.707.707-.707-.707zm-2.368 2.048l.603.798-.603-.798zm-2.688 1.632l-.422-.907.422.907zm-4.384.064l-.621.784.018.014.019.014.584-.812zm-1.248-2.048l-.955.297.003.01.003.01.949-.317zm-.448-4.768h1v-3.585l-1.855 3.067.855.518zm-3.296 4.736l-.778-.628-.006.008.784.62zm-3.392 3.424l-.602-.798-.007.005.61.793zm8.288-14.208l.768.64-1.139-1.569.371.929zm-.448.192l-.406-.914-.009.004.415.91zm-3.072 1.664l-.527-.85-.007.005.534.845zm-3.072 2.208l-.629-.778-.008.007.637.771zm-2.656 2.528l.743.67-.743-.67zm-1.888 2.656l-.886-.464.886.464zm-.544 3.264l-.814.581.026.036.029.034.76-.651zm2.304-.576l.616.788.007-.006.008-.006-.63-.776zm2.24-2.176l-.733-.68-.008.01.741.67zm2.496-2.976l.795.607-.795-.607zm2.368-3.296l-.822-.57-.007.012.829.558zm1.984-3.072l.861.509.004-.006.003-.007-.868-.496zM93.681 34.832v-1c-.441 0-.828-.177-1.202-.701l-.814.581-.814.581c.693.97 1.65 1.539 2.83 1.539v-1zm-2.016-1.12l.832-.555c-.372-.559-.6-1.34-.6-2.421h-2c0 1.352.285 2.554.936 3.53l.832-.554zm-.768-2.976h1c0-.96.234-1.929.727-2.913l-.895-.447-.894-.447c-.617 1.234-.938 2.507-.938 3.807h1zm.832-3.36l.888.46c.531-1.022 1.236-2.018 2.121-2.984l-.737-.676-.737-.676c-.992 1.082-1.802 2.22-2.422 3.415l.887.461zm2.272-3.2l.737.676c.9-.981 1.881-1.881 2.945-2.7l-.61-.792-.61-.793a25.053 25.053 0 00-3.199 2.933l.737.676zm3.072-2.816l.62.785a26.94 26.94 0 013.208-2.19l-.5-.867-.5-.866a28.958 28.958 0 00-3.447 2.353l.62.785zm3.328-2.272l.493.87c1.099-.622 2.089-1.1 2.972-1.441l-.361-.933-.36-.933c-.995.385-2.075.91-3.236 1.567l.492.87zm3.104-1.504l.361.933c.901-.349 1.51-.477 1.879-.477v-2c-.74 0-1.625.234-2.6.611l.36.933zm2.24-.544v1c.159 0 .196.034.181.024l.555-.832.555-.832c-.398-.266-.852-.36-1.291-.36v1zm.736.192l-.485.874a.493.493 0 01-.203-.214c-.032-.07-.024-.1-.024-.052h2c0-.513-.181-1.137-.802-1.482l-.486.874zm.288.608h-1c0-.037.008-.073.019-.1.011-.026.018-.03.005-.014l.752.658.753.659c.278-.319.471-.726.471-1.203h-1zm-.224.544v1h.064v-2h-.064v1zm.064 0v1c.021 0-.005.003-.058-.018a.446.446 0 01-.244-.242c-.002-.006.006.02.006.092h2c0-.395-.08-.877-.412-1.27-.36-.425-.855-.562-1.292-.562v1zm.704.832h-1c0-.003-.003.067-.038.254-.033.171-.084.399-.156.688l.97.242.97.242c.143-.57.254-1.088.254-1.426h-1zm-.224 1.184l-.968-.251a64.872 64.872 0 00-.521 2.213l.977.214.977.214c.19-.867.358-1.58.503-2.139l-.968-.251zm-.512 2.176l-.977-.214c-.198.904-.373 1.9-.525 2.987l.99.139.991.139c.146-1.046.312-1.991.498-2.837l-.977-.214zm-.512 2.912l-.99-.141a23.634 23.634 0 00-.234 3.341h2c0-1.042.072-2.061.214-3.059l-.99-.141zm-.224 3.2h-1c0 .559.102 1.16.471 1.64.407.531.998.736 1.585.736v-2c-.069 0-.082-.011-.063-.003.024.01.05.03.064.05.011.014-.004.001-.022-.069a1.482 1.482 0 01-.035-.354h-1zm1.056 1.376v1c.947 0 1.886-.218 2.809-.631l-.409-.913-.408-.913c-.698.313-1.36.457-1.992.457v1zm2.4-.544l.409.913a17.22 17.22 0 002.514-1.393l-.555-.832-.555-.832c-.723.482-1.463.892-2.221 1.231l.408.913zm2.368-1.312l.571.821a40.01 40.01 0 002.166-1.608l-.625-.781-.625-.78a37.859 37.859 0 01-2.057 1.527l.57.821zm2.112-1.568l.64.768c.638-.531 1.178-.976 1.621-1.335l-.629-.777-.629-.777c-.453.366-1.001.818-1.643 1.353l.64.768zm1.632-1.344l.629.777c.203-.163.347-.262.44-.315.046-.026.064-.032.057-.03a.511.511 0 01-.166.024v-2c-.365 0-.681.155-.877.266a5.41 5.41 0 00-.712.5l.629.778zm.96-.544v1a.318.318 0 01-.192-.072l.64-.768.64-.768a1.675 1.675 0 00-1.088-.392v1zm.448.16l-.64.768a.509.509 0 01-.152-.209c-.02-.054-.016-.077-.016-.047h2c0-.405-.114-.915-.552-1.28l-.64.768zm.192.512h-1c0-.103.023-.159.018-.144a.71.71 0 01-.052.106c-.073.131-.2.322-.398.58l.792.61.793.61c.228-.297.421-.575.561-.828.119-.215.286-.556.286-.934h-1zm-.64 1.152l-.792-.61c-.392.51-.926 1.106-1.611 1.79l.707.708.707.707c.723-.723 1.32-1.385 1.782-1.985l-.793-.61zm-1.696 1.888l-.707-.707a21.632 21.632 0 01-2.264 1.957l.603.798.603.798a23.634 23.634 0 002.472-2.139l-.707-.707zm-2.368 2.048l-.603-.798a13.813 13.813 0 01-2.507 1.523l.422.907.422.907a15.841 15.841 0 002.869-1.741l-.603-.798zm-2.688 1.632l-.422-.907c-.813.379-1.544.547-2.202.547v2c1.006 0 2.024-.258 3.046-.733l-.422-.907zm-2.624.64v-1a1.95 1.95 0 01-1.176-.387l-.584.811-.584.812a3.944 3.944 0 002.344.764v-1zm-1.76-.576l.621-.784c-.297-.235-.63-.711-.92-1.58l-.949.316-.949.316c.351 1.051.85 1.94 1.576 2.516l.621-.784zm-1.248-2.048l.955-.297c-.255-.82-.403-2.028-.403-3.671h-2c0 1.728.151 3.166.493 4.265l.955-.297zm-.448-3.968h1v-.8h-2v.8h1zm0-.8l-.855-.518a42.08 42.08 0 01-3.22 4.627l.779.627.779.628a44.067 44.067 0 003.373-4.846l-.856-.518zm-3.296 4.736l-.784-.62c-1.092 1.38-2.164 2.456-3.21 3.246l.602.798.603.798c1.214-.917 2.404-2.123 3.573-3.602l-.784-.62zm-3.392 3.424l-.61-.793c-1.002.771-1.848 1.073-2.558 1.073v2c1.296 0 2.562-.552 3.778-1.487l-.61-.793zm8.288-14.208l-.371-.928c-.124.05-.287.12-.483.206l.406.914.406.914c.189-.084.324-.142.414-.177l-.372-.929zm-.448.192l-.415-.91a28.626 28.626 0 00-3.184 1.724l.527.85.527.85a26.754 26.754 0 012.96-1.604l-.415-.91zm-3.072 1.664l-.534-.845a33.575 33.575 0 00-3.166 2.275l.628.778.629.778a31.332 31.332 0 012.978-2.14l-.535-.846zm-3.072 2.208l-.637-.771a26.1 26.1 0 00-2.761 2.629l.742.67.743.67a24.07 24.07 0 012.55-2.427l-.637-.771zm-2.656 2.528l-.742-.67c-.837.927-1.518 1.88-2.032 2.862l.886.464.886.464c.425-.81 1.002-1.628 1.745-2.45l-.743-.67zm-1.888 2.656l-.886-.464c-.53 1.013-.818 2.046-.818 3.088h2c0-.664.182-1.38.59-2.16l-.886-.464zm-.704 2.624h-1c0 .385.071.836.346 1.221l.814-.581.814-.581c.032.045.038.075.036.067a.566.566 0 01-.01-.126h-1zm.16.64l-.76.65c.4.466.962.574 1.4.574v-2c-.07 0-.08-.01-.053 0a.425.425 0 01.172.125l-.759.651zm.64.224v1c.786 0 1.572-.46 2.28-1.012l-.616-.788-.615-.788c-.658.514-.981.588-1.049.588v1zm1.664-.8l.63.776c.735-.596 1.518-1.36 2.352-2.281L98 29.104l-.741-.67c-.788.87-1.498 1.557-2.13 2.07l.631.776zm2.24-2.176l.733.68a42.024 42.024 0 002.558-3.049l-.795-.607-.794-.608a39.73 39.73 0 01-2.435 2.904l.733.68zm2.496-2.976l.795.607a68.74 68.74 0 002.403-3.345l-.83-.558-.829-.558a66.63 66.63 0 01-2.333 3.246l.794.608zm2.368-3.296l.822.57a51.958 51.958 0 002.023-3.133l-.861-.509-.861-.509a50.542 50.542 0 01-1.945 3.012l.822.569zm1.984-3.072l.868.496c.058-.1.12-.19.188-.272l-.768-.64-.768-.64a3.868 3.868 0 00-.388.56l.868.496zM115.89 42l.165-.986-.01-.002-.01-.002-.145.99zm-2.592-.64l.331-.944-.011-.004-.011-.003-.309.951zm-2.784-1.088l-.447.894.019.01.02.009.408-.913zm-.8-.544l.673-.74-.019-.017-.021-.017-.633.774zm.256-1.696l-.664-.747-.003.002.667.745zm2.432-.128l-.433.901.007.004.007.003.419-.908zm1.92.896l.447-.894-.01-.006-.011-.005-.426.905zm2.4.928l-.281.96.006.002.275-.962zm6.016-.992l-.683-.73.683.73zm2.4-3.968l-.94-.34-.001.003.941.337zm.864-8.576l-1 .024.001.012v.013l.999-.049zm-.128-2.816l.998-.065-1.906-.354.908.419zm-1.728 3.296l-.862-.507-.003.006-.004.007.869.494zm-1.952 2.944l-.788-.615-.005.006-.004.006.797.603zm-2.08 2.112l.588.809.005-.003-.593-.806zm-4.128.064l.757-.654-.757.654zm-.384-5.504l.992.124-.992-.124zm.576-3.616l-.979-.203-.003.014.982.189zm.896-3.52l.956.294-.956-.294zm1.088-2.88l-.894-.447-.005.01-.005.009.904.428zm1.824-.16l-.756.655.024.027.025.025.707-.707zm.192 2.816l-.972-.236.972.236zm-.64 2.4l-.961-.275.961.275zm-.768 2.816l.966.258.002-.006-.968-.252zm-.64 2.848l.983.183.001-.004-.984-.179zm1.376 2.368l-.707-.707.707.707zm1.472-1.728l-.794-.608-.003.004.797.604zm1.664-2.368l-.835-.55-.003.005.838.545zm1.664-2.592l.848.53.006-.01-.854-.52zm1.376-2.4l.884.468.148-.279-.04-.313-.992.124zm.288-2.848l-.763-.646-.005.006.768.64zm2.208 0l.735-.678-.735.678zm.288 2.272l.975.225.001-.008.002-.008-.978-.209zm-.32 1.216l-.963-.27-.051.183.019.188.995-.101zm.416 4.544l-.997.08.001.007.001.008.995-.095zm-1.056 10.784l-.916-.401-.004.008.92.393zm-3.456 4.416l-.573-.82-.006.005.579.815zm-5.216 1.568v-1c-1.021 0-1.946-.071-2.779-.21l-.165.986-.164.986c.959.16 1.996.238 3.108.238v-1zM115.89 42l.145-.99a12.924 12.924 0 01-2.406-.594l-.331.944-.33.944c.912.32 1.838.548 2.777.685l.145-.989zm-2.592-.64l.309-.951a27.461 27.461 0 01-2.685-1.05l-.408.913-.408.913c1.028.46 1.99.836 2.883 1.126l.309-.951zm-2.784-1.088l.447-.894a2.519 2.519 0 01-.574-.39l-.673.74-.673.74c.306.278.65.51 1.026.698l.447-.894zm-.8-.544l.633-.774c-.033-.027-.026-.03-.011-.002a.216.216 0 01.026.104h-2c0 .612.3 1.103.719 1.446l.633-.774zm-.352-.672h1c0 .058-.019.068.012.015a1.36 1.36 0 01.263-.294l-.667-.745-.667-.745c-.476.426-.941 1.018-.941 1.769h1zm.608-1.024l.665.747a1.41 1.41 0 01.321-.226.417.417 0 01.102-.033v-2c-.684 0-1.275.34-1.752.765l.664.747zm1.088-.512v1c.147 0 .438.058.911.285l.433-.901.433-.902c-.593-.284-1.199-.482-1.777-.482v1zm1.344.384l-.419.908c.552.255 1.19.552 1.913.893l.426-.905.426-.905c-.727-.342-1.369-.642-1.927-.899l-.419.908zm1.92.896l-.447.894c.785.393 1.641.723 2.566.994l.281-.96.281-.96a13.437 13.437 0 01-2.234-.862l-.447.894zm2.4.928l-.275.962c.994.283 2.047.422 3.155.422v-2a9.44 9.44 0 01-2.605-.346l-.275.962zm2.88.384v1c1.414 0 2.694-.594 3.819-1.645l-.683-.731-.683-.73c-.837.782-1.648 1.106-2.453 1.106v1zm3.136-1.376l.683.73c1.132-1.058 2.005-2.535 2.659-4.36l-.942-.338-.941-.337c-.584 1.63-1.311 2.798-2.142 3.575l.683.73zm2.4-3.968l.94.34c.669-1.844.988-4.025.988-6.516h-2c0 2.33-.3 4.267-.868 5.835l.94.341zm.928-6.176h1c0-.744-.022-1.561-.065-2.449l-.999.049-.999.049c.042.861.063 1.645.063 2.351h1zm-.064-2.4l1-.024a69.554 69.554 0 00-.13-2.857l-.998.065-.998.065c.063.969.105 1.894.126 2.775l1-.024zm-.128-2.816l-.908-.42a36.229 36.229 0 01-1.682 3.209l.862.507.862.507a38.455 38.455 0 001.774-3.384l-.908-.419zm-1.728 3.296l-.869-.494A23.372 23.372 0 01121.406 29l.788.615.788.615a25.109 25.109 0 002.033-3.065l-.869-.494zm-1.952 2.944l-.797-.603c-.616.814-1.243 1.444-1.875 1.91l.592.805.593.806c.818-.602 1.577-1.38 2.285-2.315l-.798-.603zm-2.08 2.112l-.588-.809c-.568.413-1.081.577-1.556.577v2c.976 0 1.892-.348 2.732-.96l-.588-.808zm-2.144.768v-1c-.768 0-1.088-.197-1.227-.358l-.757.654-.757.654c.672.777 1.675 1.05 2.741 1.05v-1zm-1.984-.704l.757-.654c-.179-.207-.365-.648-.365-1.522h-2c0 1.089.22 2.099.851 2.83l.757-.654zm-.608-2.176h1c0-.976.071-2.043.216-3.204l-.992-.124-.992-.124a27.867 27.867 0 00-.232 3.452h1zm.224-3.328l.992.124c.147-1.172.335-2.356.566-3.55l-.982-.19-.982-.19a56.64 56.64 0 00-.586 3.682l.992.124zm.576-3.616l.979.203c.251-1.21.542-2.352.873-3.429l-.956-.294-.956-.294a39.671 39.671 0 00-.919 3.611l.979.203zm.896-3.52l.956.294c.331-1.076.677-1.989 1.036-2.746l-.904-.428-.904-.428c-.409.864-.788 1.871-1.14 3.014l.956.294zm1.088-2.88l.895.447c.047-.095.076-.105.06-.095a.083.083 0 01-.02.01c-.004 0 .002-.002.025-.002v-2c-.388 0-.773.1-1.115.328a2.208 2.208 0 00-.739.865l.894.447zm.96-.64v1a.162.162 0 01-.041-.005c-.01-.003-.012-.005-.004 0a.606.606 0 01.153.14l.756-.655.756-.655c-.385-.444-.926-.825-1.62-.825v1zm.864.48l-.707.707c.081.08.155.205.155.477h2c0-.71-.224-1.374-.741-1.891l-.707.707zm.448 1.184h-1c0 .263-.062.714-.228 1.396l.972.236.972.236c.176-.726.284-1.363.284-1.868h-1zm-.256 1.632l-.972-.236a60.2 60.2 0 01-.629 2.361l.961.275.962.275c.258-.906.475-1.72.65-2.44l-.972-.235zm-.64 2.4l-.961-.275c-.259.904-.517 1.85-.774 2.839l.967.252.968.252c.254-.974.508-1.905.762-2.793l-.962-.275zm-.768 2.816l-.966-.258a37.08 37.08 0 00-.658 2.927l.984.179.984.179a35.46 35.46 0 01.622-2.77l-.966-.257zm-.64 2.848l-.983-.183a14.86 14.86 0 00-.273 2.711h2c0-.695.078-1.476.239-2.345l-.983-.183zm-.256 2.528h-1c0 .404.15.852.56 1.16.356.267.771.32 1.08.32v-2c-.117 0-.023-.027.12.08.081.06.15.146.194.244a.497.497 0 01.046.196h-1zm.64.48v1c.4 0 .737-.172.966-.32.248-.16.493-.373.733-.613l-.707-.707-.707-.707c-.187.187-.32.293-.403.347-.04.026-.053.029-.041.024a.46.46 0 01.159-.024v1zm.992-.64l.707.707c.49-.49 1.011-1.104 1.562-1.831l-.797-.604-.797-.604c-.516.68-.976 1.219-1.382 1.625l.707.707zm1.472-1.728l.795.607a39.285 39.285 0 001.708-2.43l-.839-.545-.838-.545a37.418 37.418 0 01-1.62 2.305l.794.608zm1.664-2.368l.835.55c.581-.881 1.139-1.752 1.677-2.612l-.848-.53-.848-.53c-.529.846-1.079 1.704-1.651 2.572l.835.55zm1.664-2.592l.854.52a47.004 47.004 0 001.406-2.452l-.884-.468-.884-.468a44.11 44.11 0 01-1.346 2.347l.854.521zm1.376-2.4l.992-.124a3.08 3.08 0 01-.024-.356h-2c0 .196.014.398.04.604l.992-.124zm-.032-.48h1v-.416h-2v.417h1zm0-.416h1c0-.496.026-.86.067-1.11.02-.124.041-.202.056-.243.017-.047.014-.017-.035.041l-.768-.64-.768-.64c-.287.344-.4.798-.459 1.158a9.2 9.2 0 00-.093 1.434h1zm.32-1.952l.764.646c.033-.04.053-.049.057-.051.005-.002.024-.011.075-.011v-2a2.12 2.12 0 00-1.659.77l.763.646zm.896-.416v1c.24 0 .396.028.49.057.089.028.1.051.087.037l.735-.678.735-.678c-.537-.582-1.321-.738-2.047-.738v1zm1.312.416l-.735.678c-.011-.012.022.017.057.148.035.13.062.33.062.614h2c0-.75-.129-1.555-.649-2.118l-.735.678zm.384 1.44h-1c0 .174-.022.38-.074.622l.978.21.978.21c.076-.355.118-.704.118-1.042h-1zm-.096.832l-.974-.225c-.059.254-.161.642-.309 1.171l.963.27.963.27c.151-.537.262-.96.332-1.261l-.975-.225zm-.32 1.216l-.995.1c.17 1.68.308 3.188.414 4.523l.997-.079.997-.08a212.254 212.254 0 00-.418-4.565l-.995.101zm.416 4.544l-.995.095a41.83 41.83 0 01.187 3.969h2c0-1.397-.065-2.783-.196-4.159l-.996.095zm.192 4.064h-1c0 2.476-.399 4.573-1.164 6.319l.916.401.916.401c.899-2.052 1.332-4.434 1.332-7.121h-1zm-1.248 6.72l-.92-.393c-.747 1.75-1.788 3.065-3.109 3.99l.573.819.574.82c1.665-1.167 2.928-2.796 3.802-4.843l-.92-.393zm-3.456 4.416l-.579-.815c-1.284.912-2.815 1.383-4.637 1.383v2c2.189 0 4.135-.574 5.795-1.753l-.579-.815zm34.802-7.616l-.993-.12-.003.029-.002.029.998.062zm-.416.832l-.64-.768.64.768zm-1.856-.064l.707-.707-.707.707zm-.192-5.696l.997.079v-.001l-.997-.078zm.48-4.864l.993.12v-.002l-.993-.118zm.576-4.48l.99.14-1.808-.715.818.575zm-2.304 3.328l-.825-.565-.007.01.832.555zm-2.496 3.616l.814.581-.814-.581zm-2.496 3.296l.771.637.007-.008-.778-.629zm-2.208 2.4l.67.742.007-.006.006-.006-.683-.73zm-3.68-.032l-.743.669.006.006.005.006.732-.681zm-.736-3.968l.992.128v-.004l-.992-.124zm.288-2.144l.99.141-.99-.141zm.288-2.08l.991.132.001-.004-.992-.128zm.032-2.24l-.984.179.01.055.016.053.958-.287zm-1.376.512l.778.628.006-.007.006-.007-.79-.614zm-1.504 2.144l-.844-.536-.005.008-.005.007.854.521zm-1.664 2.784l-.862-.506-.004.007-.004.007.87.492zm-1.568 2.784l.867.498.005-.009-.872-.489zm-1.248 2.016l-.821-.571-.021.03-.019.032.861.509zm-.768 1.024l.673.74-.673-.74zm-1.984-.32l-.8.6.01.013.009.012.781-.625zm-.288-3.264l.987.164v-.004l-.987-.16zm.48-2.592l-.975-.222-.002.011-.003.01.98.201zm.608-2.752l-.974-.227-.002.009-.002.008.978.21zm.544-2.336l-.973-.229-.001.002.974.227zm.64-1.472l.707.707-.707-.707zm1.792.064l-.786.618.024.031.027.03.735-.679zm.192 2.176l.962.275.003-.012-.965-.263zm-.48 1.664l-.96-.279-.003.01-.003.011.966.258zm-.576 2.016l-.957-.29-.004.013-.004.014.965.263zm-.48 1.952l-.978-.21 1.838.721-.86-.511zm1.472-2.56l-.864-.503-.005.008-.004.008.873.487zm1.6-2.72l.86.512.005-.01-.865-.502zm1.6-2.496l.814.581.008-.01-.822-.571zm1.568-1.824l.659.753-.659-.753zm3.008-.16l-.588.809.008.006.009.006.571-.821zm1.184 1.376l.888-.46-.888.46zm.192 4l.982.191.001-.004-.983-.187zm-.544 2.848l-.983-.184-.002.01-.001.01.986.164zm-.32 2.912l-.999-.046-.001.023v.023h1zm.576.096l.707.707.018-.017.016-.018-.741-.672zm2.048-2.464l.79.614.006-.009-.796-.605zm2.272-3.104l-.809-.587-.008.01.817.577zm2.336-3.2l.806.592.006-.008-.812-.584zm2.144-2.88l-.788-.615-.002.002.79.613zm1.792-2.08l-.692-.721-.008.007-.007.007.707.707zm2.72-.224l.728-.685-.728.685zm.352 4.48l-.995-.098-.001.01-.001.01.997.078zm-.352 3.552l-.993-.116-.001.008-.001.009.995.099zm-.448 3.872l-.991-.13-.001.007-.001.007.993.116zm-.448 3.584l.991.136v-.003l-.991-.133zm-.352 2.688l-.998-.062c-.003.05-.013.072-.016.079a.152.152 0 01-.042.047l.64.768.64.768c.474-.394.736-.93.774-1.538l-.998-.062zm-.416.832l-.64-.768a.361.361 0 01-.256.088v2c.569 0 1.096-.185 1.536-.552l-.64-.768zm-.896.32v-1c-.136 0-.197-.035-.253-.091l-.707.707-.707.707a2.302 2.302 0 001.667.677v-1zm-.96-.384l.707-.707c-.001-.001-.021-.02-.044-.09a1.288 1.288 0 01-.047-.387h-2c0 .674.161 1.375.677 1.891l.707-.707zm-.384-1.184h1c0-1.356.063-2.834.189-4.433l-.997-.079-.997-.079a58.938 58.938 0 00-.195 4.591h1zm.192-4.512l.997.078c.127-1.63.286-3.237.476-4.823l-.993-.119-.993-.12c-.193 1.615-.355 3.25-.484 4.906l.997.078zm.48-4.864l.993.118c.192-1.616.383-3.102.573-4.459l-.99-.139-.99-.14a211.984 211.984 0 00-.579 4.502l.993.118zm.576-4.48l-.818-.575a334.818 334.818 0 00-2.311 3.338l.825.565.825.565c.831-1.214 1.596-2.32 2.298-3.318l-.819-.575zm-2.304 3.328l-.832-.555a134.033 134.033 0 01-2.478 3.59l.814.581.814.581a136.847 136.847 0 002.514-3.642l-.832-.555zm-2.496 3.616l-.814-.581a68.757 68.757 0 01-2.459 3.248l.777.629.778.629a70.112 70.112 0 002.532-3.344l-.814-.581zm-2.496 3.296l-.771-.637c-.793.96-1.5 1.726-2.12 2.307l.683.73.683.73c.703-.657 1.468-1.49 2.296-2.493l-.771-.637zm-2.208 2.4l-.67-.742a3.991 3.991 0 01-.715.537c-.187.103-.261.101-.247.101v2c.441 0 .852-.151 1.209-.347a5.9 5.9 0 001.093-.807l-.67-.742zm-1.632.896v-1c-.49 0-.914-.178-1.316-.61l-.732.682-.732.681c.75.806 1.692 1.247 2.78 1.247v-1zm-2.048-.928l.743-.669c-.391-.435-.607-.988-.607-1.731h-2c0 1.177.36 2.224 1.121 3.069l.743-.669zm-.864-2.4h1c0-.321.037-.795.12-1.44l-.992-.128-.992-.128c-.087.678-.136 1.25-.136 1.696h1zm.128-1.568l.992.124c.085-.676.18-1.385.286-2.127l-.99-.141-.99-.141c-.107.752-.204 1.472-.29 2.161l.992.124zm.288-2.144l.99.141c.107-.749.204-1.445.289-2.089l-.991-.132-.991-.132c-.085.636-.18 1.326-.287 2.07l.99.142zm.288-2.08l.992.128c.086-.669.136-1.212.136-1.6h-2c0 .252-.035.69-.12 1.344l.992.128zm.128-1.472h1c0-.365-.038-.723-.138-1.055l-.958.287-.958.287c.029.095.054.249.054.481h1zm-.096-.768l.984-.179a1.512 1.512 0 00-.356-.758 1.267 1.267 0 00-.948-.415v2a.746.746 0 01-.532-.24c-.121-.132-.135-.249-.132-.23l.984-.178zm-.32-.352v-1c-.48 0-.858.253-1.089.442-.258.211-.51.492-.756.808l.789.614.79.614c.202-.26.349-.411.443-.488.046-.037.059-.04.041-.032a.516.516 0 01-.218.042v-1zm-1.056.864l-.778-.628c-.48.594-1.004 1.343-1.57 2.236l.844.536.845.535c.542-.855 1.021-1.536 1.437-2.05l-.778-.629zm-1.504 2.144l-.854-.52a193.18 193.18 0 00-1.672 2.798l.862.506.863.506c.573-.977 1.125-1.9 1.655-2.77l-.854-.52zm-1.664 2.784l-.87-.492c-.556.982-1.079 1.911-1.57 2.787l.872.489.872.49c.49-.874 1.013-1.801 1.567-2.782l-.871-.492zm-1.568 2.784l-.867-.498a27.814 27.814 0 01-1.202 1.943l.821.571.821.571c.365-.524.797-1.224 1.294-2.088l-.867-.499zm-1.248 2.016l-.861-.509c-.257.436-.453.678-.58.793l.673.74.673.74c.343-.312.659-.752.956-1.255l-.861-.509zm-.768 1.024l-.673-.74c-.035.033-.078.06-.191.06v2c.57 0 1.103-.186 1.537-.58l-.673-.74zm-.864.32v-1c-.004 0-.117.013-.339-.265l-.781.625-.781.625c.461.575 1.095 1.015 1.901 1.015v-1zm-1.12-.64l.8-.6c-.17-.227-.28-.53-.28-.968h-2c0 .8.21 1.541.68 2.168l.8-.6zm-.48-1.568h1c0-.275.052-.77.179-1.532l-.987-.164-.986-.164c-.129.775-.206 1.41-.206 1.86h1zm.192-1.696l.987.16c.126-.773.283-1.624.473-2.552l-.98-.2-.98-.2c-.194.95-.356 1.827-.487 2.632l.987.16zm.48-2.592l.975.222c.215-.943.418-1.864.611-2.765l-.978-.209-.978-.21c-.191.892-.392 1.805-.605 2.74l.975.222zm.608-2.752l.974.226.544-2.335-.974-.227-.974-.227-.544 2.337.974.226zm.544-2.336l.974.229c.164-.7.328-.949.373-.994l-.707-.707-.707-.707c-.467.467-.729 1.199-.906 1.95l.973.229zm.64-1.472l.707.707a.43.43 0 01.112-.087c.011-.005.012-.004.013-.004v-2c-.618 0-1.138.276-1.539.677l.707.707zm.832-.384v1c.078 0 .112.014.121.018.008.004.025.012.053.048l.786-.618.786-.618c-.438-.558-1.057-.83-1.746-.83v1zm.96.448l-.735.678c.01.01.119.148.119.634h2c0-.709-.147-1.446-.649-1.99l-.735.678zm.384 1.312h-1c0-.055.007-.08.001-.046a2.076 2.076 0 01-.025.125c-.027.122-.07.294-.133.522l.965.263.965.263c.066-.241.118-.448.155-.614.03-.132.072-.334.072-.513h-1zm-.192.864l-.961-.275c-.128.446-.287 1-.479 1.66l.96.279.961.279c.192-.662.352-1.218.481-1.668l-.962-.275zm-.48 1.664l-.966-.258a61.11 61.11 0 01-.567 1.984l.957.29.957.29a61.95 61.95 0 00.585-2.048l-.966-.258zm-.576 2.016l-.965-.263a38.04 38.04 0 00-.493 2.005l.978.21.978.21c.123-.577.279-1.21.467-1.899l-.965-.263zm-.48 1.952l.86.511c.474-.798.97-1.66 1.485-2.584l-.873-.487-.873-.487c-.508.91-.994 1.755-1.458 2.536l.859.511zm1.472-2.56l.865.503c.531-.915 1.063-1.819 1.594-2.711l-.859-.512-.859-.512c-.535.9-1.07 1.81-1.605 2.73l.864.502zm1.6-2.72l.865.503a30.69 30.69 0 011.549-2.418l-.814-.581-.814-.581a32.586 32.586 0 00-1.65 2.574l.864.503zm1.6-2.496l.822.57c.502-.724.972-1.263 1.405-1.641l-.659-.753-.658-.753c-.592.518-1.167 1.195-1.731 2.007l.821.57zm1.568-1.824l.659.753c.41-.36.675-.425.813-.425v-2c-.8 0-1.517.382-2.13.92l.658.752zm1.472-.672v1c.333 0 .641.098.948.32l.588-.808.588-.809a3.554 3.554 0 00-2.124-.703v1zm1.536.512l-.571.82c.346.242.637.572.867 1.016l.888-.46.888-.46a4.735 4.735 0 00-1.501-1.737l-.571.821zm1.184 1.376l-.888.46c.219.422.336.902.336 1.46h2c0-.85-.182-1.65-.56-2.38l-.888.46zm.448 1.92h-1c0 .396-.071 1.016-.238 1.893l.982.187.983.187c.174-.915.273-1.681.273-2.267h-1zm-.256 2.08l-.981-.192c-.172.878-.353 1.83-.546 2.856l.983.184.983.184c.192-1.022.373-1.969.543-2.84l-.982-.192zm-.544 2.848l-.986-.164a25.672 25.672 0 00-.333 3.03l.999.046.999.047c.041-.874.143-1.805.308-2.795l-.987-.164zm-.32 2.912h-1c0 .174.02.47.191.755.219.365.598.565 1.001.565v-2a.838.838 0 01.714.405c.106.177.094.314.094.275h-1zm.192.32v1c.535 0 .915-.34 1.091-.517l-.707-.707-.707-.707c-.037.037-.039.031-.005.011a.66.66 0 01.328-.08v1zm.384-.224l.741.672a44.295 44.295 0 002.097-2.522l-.79-.614-.789-.614a42.1 42.1 0 01-2 2.407l.741.671zm2.048-2.464l.796.605c.754-.991 1.519-2.035 2.293-3.132l-.817-.577-.817-.577a105.396 105.396 0 01-2.251 3.076l.796.605zm2.272-3.104l.81.587a630.629 630.629 0 012.332-3.195l-.806-.592-.806-.592a643.767 643.767 0 00-2.339 3.205l.809.587zm2.336-3.2l.812.584a99.99 99.99 0 012.123-2.851l-.791-.613-.79-.613c-.67.865-1.392 1.834-2.165 2.909l.811.584zm2.144-2.88l.788.615c.67-.857 1.239-1.516 1.711-1.988l-.707-.707-.707-.707c-.552.552-1.177 1.28-1.873 2.172l.788.615zm1.792-2.08l.693.721c.238-.229.418-.368.543-.445.141-.087.131-.044.012-.044v-2c-.417 0-.784.17-1.06.34a5.42 5.42 0 00-.88.707l.692.721zm1.248-.768v1c.447 0 .642.12.744.23l.728-.686.728-.685c-.58-.617-1.367-.859-2.2-.859v1zm1.472.544l-.728.685c.078.083.24.372.24 1.139h2c0-.94-.179-1.867-.784-2.51l-.728.686zm.512 1.824h-1c0 .637-.05 1.486-.155 2.558l.995.098.995.098c.109-1.104.165-2.025.165-2.754h-1zm-.16 2.656l-.997-.078a93.562 93.562 0 01-.348 3.514l.993.116.993.116a93.7 93.7 0 00.356-3.59l-.997-.078zm-.352 3.552l-.995-.1a127.21 127.21 0 01-.444 3.842l.991.13.992.13c.172-1.311.322-2.612.451-3.902l-.995-.1zm-.448 3.872l-.993-.116a201.164 201.164 0 01-.446 3.567l.991.133.991.133c.15-1.116.301-2.316.45-3.601l-.993-.116zm-.448 3.584l-.991-.136c-.149 1.09-.267 1.992-.354 2.704l.993.12.993.12c.084-.696.201-1.587.35-2.672l-.991-.136zm18.23-8.128l.832.555.004-.007.004-.006-.84-.542zm-1.696 1.856l.633.774.007-.006.007-.005-.647-.763zm-2.336 1.632l.514.858-.514-.858zm-2.56 1.344l.41.912-.41-.912zm-2.336.928l-.316-.949-.548.183-.116.565.98.201zm.032 3.072l.664-.747-.664.747zm6.816-1.472l-.44-.898.44.898zm3.008-1.632l.514.857-.514-.857zm2.624-1.632l-.534-.846-.01.007.544.839zm2.016-1.248l-.515-.857.515.857zm1.632-.224l-.8.6.043.057.05.05.707-.707zm-.576 1.536l-.677-.736-.008.007-.007.007.692.722zm-2.08 1.728l.59.807.007-.005.006-.004-.603-.798zm-2.944 1.984l-.532-.847.532.847zm-3.392 1.92l-.454-.891-.006.003.46.888zm-3.36 1.44l-.316-.949-.006.002.322.947zm-5.472-.704l.802-.597-.802.597zm-.48-7.424l-.966-.259-.002.008-.002.008.97.243zm1.28-3.424l-.895-.447-.003.007.898.44zm1.824-2.944l-.788-.615-.002.002.79.613zm2.144-2.048l.549.836.008-.006.008-.005-.565-.825zm5.344.352l-.697.717.697-.717zm-7.744 8.256l-.949-.316-.867 2.602 2.338-1.433-.522-.853zm2.048-1.28l.537.844-.537-.844zm1.952-1.376l-.618-.786.618.786zm1.44-1.472l-.812-.584-.004.006.816.578zm-2.4-1.792l-.753-.659-.001.002.754.657zm-1.664 2.592l.894.447-.894-.447zm7.52-1.984h-1c0 .462-.142.949-.48 1.474l.84.542.84.542c.515-.797.8-1.655.8-2.558h-1zm-.64 2.016l-.832-.555c-.366.55-.864 1.1-1.511 1.648l.647.763.647.763c.761-.646 1.393-1.333 1.881-2.064l-.832-.555zm-1.696 1.856l-.633-.774a18.672 18.672 0 01-2.218 1.549l.515.857.514.858a20.66 20.66 0 002.455-1.716l-.633-.774zm-2.336 1.632l-.515-.857c-.821.493-1.64.922-2.455 1.29l.41.911.41.912c.892-.401 1.78-.868 2.664-1.398l-.514-.858zm-2.56 1.344l-.41-.912c-.831.374-1.577.67-2.242.891l.316.949.316.949c.743-.248 1.554-.57 2.43-.965l-.41-.912zm-2.336.928l-.98-.2c-.18.877-.276 1.683-.276 2.408h2c0-.555.074-1.221.236-2.007l-.98-.201zm-.256 2.208h-1c0 .528.121 1.165.624 1.611l.664-.747.664-.747a.313.313 0 01.057.065c.011.018.013.027.012.022a.698.698 0 01-.021-.204h-1zm.288.864l-.664.747c.455.405 1.044.509 1.56.509v-2a.966.966 0 01-.253-.026c-.035-.01-.016-.01.021.023l-.664.747zm.896.256v1c1.015 0 2.068-.181 3.152-.527l-.304-.953-.304-.953c-.921.294-1.767.433-2.544.433v1zm2.848-.48l.304.953a23.69 23.69 0 003.208-1.303l-.44-.898-.44-.898c-1.006.493-1.985.89-2.936 1.193l.304.953zm3.072-1.248l.44.898a41.201 41.201 0 003.082-1.672l-.514-.858-.515-.858a39.076 39.076 0 01-2.933 1.592l.44.898zm3.008-1.632l.514.857a89.063 89.063 0 002.654-1.65l-.544-.839-.544-.839a87.745 87.745 0 01-2.595 1.613l.515.858zm2.624-1.632l.534.846c.807-.51 1.472-.922 1.996-1.236l-.514-.858-.515-.857c-.542.325-1.221.745-2.035 1.26l.534.845zm2.016-1.248l.514.858c.252-.151.437-.25.564-.308a.998.998 0 01.109-.044c.02-.006-.033.014-.131.014v-2c-.32 0-.624.127-.806.21a7.962 7.962 0 00-.765.413l.515.857zm1.056-.48v1c.018 0-.014.003-.07-.022a.397.397 0 01-.154-.122l.8-.6.8-.6c-.356-.474-.876-.656-1.376-.656v1zm.576.256l-.707.707a.242.242 0 01-.05-.078.249.249 0 01-.019-.085h2a1.74 1.74 0 00-.517-1.251l-.707.707zm.224.544h-1c0-.106.02-.186.034-.23.014-.046.029-.074.033-.082.007-.013-.001.005-.045.06-.089.11-.247.276-.499.508l.677.736.677.736c.281-.26.523-.503.701-.724a2.45 2.45 0 00.255-.376c.065-.123.167-.347.167-.628h-1zm-.8.992l-.692-.722c-.473.453-1.133 1.003-1.991 1.652l.603.798.603.798c.891-.674 1.618-1.276 2.169-1.804l-.692-.722zm-2.08 1.728l-.591-.807a48.737 48.737 0 01-2.885 1.944l.532.847.531.847a50.873 50.873 0 003.003-2.024l-.59-.807zm-2.944 1.984l-.532-.847a42.395 42.395 0 01-3.314 1.876l.454.891.454.891a44.457 44.457 0 003.469-1.964l-.531-.847zm-3.392 1.92l-.46-.888a22.436 22.436 0 01-3.216 1.38l.316.948.316.949a24.353 24.353 0 003.504-1.501l-.46-.888zm-3.36 1.44l-.322-.947c-.994.338-1.843.491-2.558.491v2c.991 0 2.063-.21 3.202-.597l-.322-.947zm-2.88.544v-1c-.819 0-1.374-.286-1.79-.845l-.802.597-.803.597c.823 1.105 1.995 1.651 3.395 1.651v-1zm-2.592-1.248l.802-.597c-.428-.576-.73-1.607-.73-3.275h-2c0 1.83.317 3.381 1.125 4.469l.803-.597zm-.928-3.872h1c0-1.088.138-2.19.418-3.31l-.97-.242-.97-.242a15.578 15.578 0 00-.478 3.794h1zm.448-3.552l.966.259a17.796 17.796 0 011.212-3.243l-.898-.44-.898-.44a19.827 19.827 0 00-1.348 3.605l.966.259zm1.28-3.424l.894.447a16.771 16.771 0 011.72-2.778l-.79-.613-.79-.613a18.754 18.754 0 00-1.929 3.11l.895.447zm1.824-2.944l.788.615c.631-.808 1.269-1.409 1.905-1.827l-.549-.836-.549-.836c-.857.563-1.649 1.328-2.383 2.269l.788.615zm2.144-2.048l.565.825c.628-.43 1.16-.593 1.611-.593v-2c-.957 0-1.876.35-2.742.943l.566.825zm2.176-.768v1c1.153 0 1.934.315 2.471.837l.697-.717.697-.717c-.999-.972-2.33-1.403-3.865-1.403v1zm3.168 1.12l-.697.717c.547.532.849 1.241.849 2.227h2c0-1.446-.466-2.7-1.455-3.661l-.697.717zm-7.744 8.256l.522.853c.667-.409 1.354-.838 2.063-1.29l-.537-.843-.537-.844c-.7.445-1.377.87-2.034 1.271l.523.853zm2.048-1.28l.537.844a25.186 25.186 0 002.033-1.434l-.618-.786-.618-.786c-.569.447-1.192.886-1.871 1.318l.537.844zm1.952-1.376l.618.786c.657-.516 1.209-1.075 1.638-1.68l-.816-.578-.816-.578c-.297.419-.705.842-1.242 1.264l.618.786zm1.44-1.472l.811.584c.484-.67.765-1.415.765-2.216h-2c0 .308-.103.652-.388 1.048l.812.584zm.576-1.632h1c0-.57-.158-1.175-.641-1.622-.469-.434-1.077-.562-1.639-.562v2c.291 0 .323.069.281.03-.021-.019-.025-.035-.022-.025.006.016.021.07.021.179h1zm-1.28-1.184v-1c-.971 0-1.789.611-2.449 1.366l.753.658.753.659c.534-.612.847-.683.943-.683v-1zm-1.696 1.024l-.754-.657c-.647.743-1.246 1.685-1.804 2.802l.894.447.894.447c.508-1.016 1.019-1.803 1.524-2.382l-.754-.657zm-1.664 2.592l-.894-.447a26.395 26.395 0 00-1.431 3.459l.949.316.949.316c.369-1.108.81-2.173 1.321-3.197l-.894-.447zm12.839 3.392l-.971-.239-.002.007-.001.007.974.225zm1.248-4.224l.946.325.001-.005-.947-.32zm1.44-4.192l-.933-.359-.006.015-.005.014.944.33zm.448-.608l.555.832.009-.006.009-.007-.573-.819zm1.856 2.048l-.962-.275.962.275zm-.672 2.208l-.953-.302-.004.01-.003.011.96.281zm-.8 2.848l.964.267.001-.006-.965-.261zm-.736 3.04l.979.204-.979-.204zm-.448 2.848l-.995-.097-.285 2.916 2.008-2.134-.728-.685zm1.152-1.664l-.858-.515-.005.01-.005.009.868.496zm1.44-2.528l.878.479.004-.008-.882-.471zm1.6-2.88l.866.5.004-.008-.87-.492zm1.664-2.688l-.822-.57-.003.005.825.565zm1.664-1.984l.677.736.001-.001-.678-.735zm3.264-.128l-.673.74.018.016.018.015.637-.771zm1.12 2.176l-.971.238.003.012.003.011.965-.261zm.704 7.168l-.977.214.003.012.002.011.972-.237zm.992 2.112l-.766.643.014.017.015.016.737-.676zm4.704.192l.41.912.01-.004.009-.005-.429-.903zm2.208-1.344l.621.783.004-.002-.625-.781zm1.6-1.344l.669.743.01-.009.01-.009-.689-.725zm1.248 1.184l-.826-.563-.006.008.832.555zm-1.28 1.536l-.72-.694h-.001l.721.694zm-1.856 1.632l.6.8.004-.003-.604-.797zm-2.208 1.28l-.397-.918-.009.004.406.914zm-5.952-.352l-.532.847.009.005.523-.852zm-2.048-2.848l-.952.307.002.007.003.007.947-.321zm-.864-7.968l-.976.217.005.022.005.021.966-.26zm-.736-1.152l.468-.884-.856-.453-.48.84.868.497zm-.992 1.92l.894.447.005-.009-.899-.438zm-1.408 2.72l-.883-.47-.004.008-.004.007.891.455zm-1.632 3.04l-.872-.49-.003.006.875.484zm-1.696 2.784l.829.56-.829-.56zm-1.664 2.08l.692.721.008-.007.007-.007-.707-.707zm-1.44.768v-1c-.175 0-.462-.08-.844-.628l-.82.572-.82.572c.599.86 1.422 1.484 2.484 1.484v-1zm-1.664-1.056l.82-.572c-.343-.493-.556-1.184-.556-2.148h-2c0 1.254.278 2.377.916 3.292l.82-.572zm-.736-2.72h1c0-1.129.149-2.354.454-3.68l-.974-.224-.974-.225c-.335 1.448-.506 2.826-.506 4.129h1zm.48-3.904l.971.239a48.244 48.244 0 011.223-4.138l-.946-.325-.946-.325a50.306 50.306 0 00-1.273 4.31l.971.239zm1.248-4.224l.947.32c.49-1.447.969-2.842 1.437-4.182l-.944-.33-.944-.33a421.988 421.988 0 00-1.443 4.202l.947.32zm1.44-4.192l.933.359c.054-.14.093-.15.07-.135l-.555-.832-.555-.832c-.407.272-.667.666-.826 1.081l.933.359zm.448-.608l.573.82c-.021.014-.013.002.054-.014s.175-.03.333-.03v-2c-.513 0-1.076.084-1.534.405l.574.819zm.96-.224v1c.114 0 .174.014.196.021.017.006-.002.003-.029-.024-.028-.027-.036-.05-.033-.043a.562.562 0 01.018.166h2c0-.535-.139-1.118-.591-1.557-.447-.434-1.03-.563-1.561-.563v1zm1.152 1.12h-1c0-.034.002.01-.04.2-.037.164-.095.388-.178.677l.962.275.961.275c.089-.308.158-.575.207-.794a3.04 3.04 0 00.088-.633h-1zm-.256 1.152l-.962-.275a83.352 83.352 0 01-.663 2.18l.953.303.953.302c.279-.88.506-1.625.68-2.235l-.961-.275zm-.672 2.208l-.96-.28c-.258.881-.526 1.837-.805 2.867l.965.261.965.261c.276-1.018.541-1.96.795-2.828l-.96-.281zm-.8 2.848l-.964-.267a49.81 49.81 0 00-.751 3.103l.979.204.979.204c.209-1.003.449-1.996.721-2.977l-.964-.267zm-.736 3.04l-.979-.204a27.78 27.78 0 00-.464 2.955l.995.097.995.097a25.82 25.82 0 01.432-2.741l-.979-.204zm-.448 2.848l.728.685c.421-.446.85-1.08 1.292-1.853l-.868-.496-.868-.496c-.412.72-.75 1.196-1.012 1.475l.728.685zm1.152-1.664l.857.514c.457-.76.944-1.615 1.461-2.563l-.878-.479-.878-.479c-.507.93-.98 1.76-1.42 2.492l.858.515zm1.44-2.528l.882.47c.507-.95 1.035-1.9 1.584-2.85l-.866-.5-.866-.5a97.48 97.48 0 00-1.616 2.91l.882.47zm1.6-2.88l.87.492a36.326 36.326 0 011.619-2.615l-.825-.565-.825-.565a38.147 38.147 0 00-1.71 2.76l.871.493zm1.664-2.688l.822.57c.549-.794 1.057-1.393 1.519-1.818l-.677-.736-.677-.736c-.605.556-1.206 1.28-1.809 2.15l.822.57zm1.664-1.984l.678.735c.477-.44.755-.503.858-.503v-2c-.836 0-1.582.45-2.214 1.033l.678.735zm1.536-.768v1c.455 0 .785.134 1.055.38l.673-.74.673-.74c-.669-.607-1.49-.9-2.401-.9v1zm1.728.64l-.637.771c.245.202.549.676.786 1.643l.971-.238.971-.238c-.275-1.124-.718-2.1-1.454-2.709l-.637.771zm1.12 2.176l-.965.261c.243.898.381 2.245.381 4.091h2c0-1.909-.139-3.463-.451-4.613l-.965.261zm.416 4.352h-1c0 1.066.102 2.078.311 3.03l.977-.214.977-.214a12.11 12.11 0 01-.265-2.602h-1zm.288 2.816l-.972.237c.24.982.627 1.838 1.198 2.518l.766-.643.766-.643c-.325-.386-.599-.938-.787-1.706l-.971.237zm.992 2.112l-.737.676c.668.729 1.537 1.092 2.529 1.092v-2c-.459 0-.784-.148-1.055-.444l-.737.676zm1.792.768v1c1.207 0 2.321-.213 3.322-.664l-.41-.912-.41-.912c-.705.317-1.533.488-2.502.488v1zm2.912-.576l.429.903a12.378 12.378 0 002.4-1.464l-.621-.783-.621-.784c-.55.436-1.218.846-2.016 1.225l.429.903zm2.208-1.344l.625.78c.649-.519 1.198-.98 1.644-1.38l-.669-.744-.669-.743c-.408.367-.925.802-1.556 1.306l.625.781zm1.6-1.344l.689.725c.185-.176.318-.277.401-.328.041-.025.055-.029.045-.026a.43.43 0 01-.143.021v-2c-.386 0-.716.158-.947.3a4.564 4.564 0 00-.734.583l.689.725zm.992-.608v1c.038 0 .03.005-.007-.008a.426.426 0 01-.163-.108c-.122-.127-.094-.228-.094-.116h2c0-.4-.095-.885-.462-1.268-.375-.39-.864-.5-1.274-.5v1zm.736.768h-1c0-.067.012-.102.009-.093-.002.006-.01.033-.035.085a3.617 3.617 0 01-.28.469l.826.563.826.563c.177-.259.328-.51.439-.747.102-.216.215-.514.215-.84h-1zm-.48 1.024l-.832-.555c-.254.381-.637.846-1.168 1.397l.72.694.72.694c.578-.6 1.049-1.16 1.392-1.675l-.832-.555zm-1.28 1.536l-.721-.693a14.827 14.827 0 01-1.739 1.528l.604.797.604.797a16.926 16.926 0 001.973-1.736l-.721-.693zm-1.856 1.632l-.6-.8a9.818 9.818 0 01-2.005 1.162l.397.918.397.918a11.83 11.83 0 002.411-1.398l-.6-.8zm-2.208 1.28l-.406-.914a4.708 4.708 0 01-1.93.426v2a6.7 6.7 0 002.742-.598l-.406-.914zm-2.336.512v-1c-1.348 0-2.356-.264-3.093-.716l-.523.852-.523.852c1.14.7 2.543 1.012 4.139 1.012v-1zm-3.616-.864l.532-.847c-.672-.422-1.237-1.153-1.633-2.322l-.947.321-.947.32c.5 1.477 1.301 2.645 2.463 3.375l.532-.847zm-2.048-2.848l.952-.307c-.382-1.182-.592-2.836-.592-5.005h-2c0 2.269.216 4.156.688 5.619l.952-.307zm-.64-5.312h1c0-1.229-.073-2.226-.258-2.916l-.966.26-.966.26c.113.42.19 1.193.19 2.396h1zm-.224-2.656l.976-.217c-.163-.733-.525-1.438-1.244-1.819l-.468.884-.468.884c.006.003.135.066.228.485l.976-.217zm-.736-1.152l-.868-.496c-.273.476-.614 1.14-1.023 1.978l.899.438.899.438c.402-.825.721-1.442.961-1.862l-.868-.496zm-.992 1.92l-.895-.447c-.4.801-.866 1.7-1.396 2.697l.883.47.883.47a125.341 125.341 0 001.419-2.743l-.894-.447zm-1.408 2.72l-.891-.455a83.218 83.218 0 01-1.613 3.005l.872.49.871.49a86.678 86.678 0 001.652-3.075l-.891-.455zm-1.632 3.04l-.875-.484a35.86 35.86 0 01-1.65 2.709l.829.559.829.56a37.895 37.895 0 001.742-2.86l-.875-.484zm-1.696 2.784l-.829-.56c-.552.819-1.067 1.458-1.542 1.933l.707.707.707.707c.592-.591 1.186-1.339 1.786-2.228l-.829-.559zm-1.664 2.08l-.693-.721c-.473.454-.712.489-.747.489v2c.818 0 1.539-.477 2.132-1.047l-.692-.721zm18.56-8.736l.165-.986-.045-.008-.046-.003-.074.997zm-.8-1.12l-.992-.124-.004.032-.002.032.998.06zm.352-.608l.74.673.015-.016.014-.017-.769-.64zm.736-.416l.077.997h.01l.01-.002-.097-.995zm2.432-.288l.133.991.009-.001.009-.001-.151-.989zm3.232-.512l.162.987.68-.111.138-.676-.98-.2zm.768-3.296l-.968-.251.968.251zm.992-3.36l.949.316.002-.005-.951-.311zm1.152-3.008l.912.412-.912-.412zm1.28-2.112l-.707-.707-.023.023-.022.025.752.659zm.64-.48l.407.914.04-.018.039-.022-.486-.874zm1.216.224l-.832.555.016.023.016.022.8-.6zm.192 1.376l-.936-.351-.003.007-.002.008.941.336zm-1.376 4.416l-.962-.27.962.27zm-1.568 5.728l-.965-.259-.401 1.495 1.527-.249-.161-.987zm5.888-1.024l.182.983-.182-.983zm5.056-.992l.208.978.093-.02.087-.036-.388-.922zm.928.096l-.74.673.016.017.017.017.707-.707zm.096 1.376l-.658-.753-.025.022-.024.024.707.707zm-.48.384l-.53-.848-.096.06-.081.08.707.708zm-.032.032l.372.929.19-.077.146-.145-.708-.707zm-1.92.608l.243.97.011-.003.012-.003-.266-.964zm-2.944.704l.207.978.009-.002.009-.002-.225-.974zm-3.552.704l-.183-.983h-.003l.186.983zm-3.68.64l-.156-.988-.646.102-.165.633.967.253zm-1.504 5.792l-.968-.25-.002.008.97.242zm-1.472 5.792l.964.268.002-.01.003-.008-.969-.25zm-.736 1.44l-.569-.822-.036.025-.035.029.64.768zm-1.728-.064l-.737.676.015.016.015.015.707-.707zm-.096-1.568l.978.211v-.002l-.978-.209zm2.336-10.912l.978.21.303-1.413-1.429.214.148.989zm-3.392.416l-.086-.996h-.002l.088.996zm-2.016.032l.074-.997c-.044-.004-.038-.01-.005.006a.309.309 0 01.113.098c.029.04.029.06.023.035a.853.853 0 01-.006-.201l-.999-.061-.998-.06c-.028.464.031 1 .353 1.45.349.488.871.69 1.372.727l.073-.997zm-.8-1.12l.993.124a.46.46 0 01-.021.09c-.006.015-.008.017-.002.007.013-.023.048-.074.122-.156l-.74-.673-.74-.673c-.25.276-.543.671-.604 1.157l.992.124zm.352-.608l.769.64c.043-.052.067-.065.067-.065l-.009.003a.063.063 0 01-.014.003l-.077-.997-.076-.997c-.599.046-1.078.354-1.428.773l.768.64zm.736-.416l.097.995a70.495 70.495 0 002.468-.292l-.133-.991-.132-.991c-.953.127-1.751.221-2.396.284l.096.995zm2.432-.288l.151.989c.986-.15 2.067-.322 3.243-.514l-.162-.987-.161-.987c-1.17.192-2.244.362-3.221.51l.15.989zm3.232-.512l.98.2a65.18 65.18 0 01.756-3.245l-.968-.251-.968-.251a66.142 66.142 0 00-.779 3.347l.979.2zm.768-3.296l.968.251c.294-1.13.618-2.23.973-3.295l-.949-.316-.948-.316a53.075 53.075 0 00-1.012 3.425l.968.251zm.992-3.36l.951.31a28.63 28.63 0 011.113-2.906l-.912-.412-.911-.412a30.936 30.936 0 00-1.191 3.11l.95.31zm1.152-3.008l.912.412c.381-.842.759-1.452 1.121-1.866l-.753-.658-.752-.659c-.535.611-1.009 1.41-1.439 2.359l.911.412zm1.28-2.112l.708.707c.192-.192.305-.258.339-.273l-.407-.914-.406-.914c-.35.156-.664.41-.941.687l.707.707zm.64-.48l.486.874a.468.468 0 01.085-.04c.007-.002-.014.006-.059.006v-2c-.38 0-.722.133-.997.286l.485.874zm.512-.16v1l-.021-.004a.223.223 0 01-.057-.022c-.045-.025-.059-.049-.05-.035l.832-.555.832-.555a1.8 1.8 0 00-1.536-.829v1zm.704.384l-.8.6c.063.083.088.16.088.264h2c0-.536-.166-1.035-.488-1.464l-.8.6zm.288.864h-1a.445.445 0 01-.032.16l.936.352.937.351a2.45 2.45 0 00.159-.863h-1zm-.096.512l-.941-.336c-.437 1.223-.903 2.719-1.397 4.482l.962.27.963.27c.487-1.736.939-3.184 1.355-4.35l-.942-.336zm-1.376 4.416l-.962-.27a503.998 503.998 0 00-1.571 5.74l.965.258.966.259a528.589 528.589 0 011.565-5.717l-.963-.27zm-1.568 5.728l.161.987c1.97-.321 3.94-.664 5.909-1.028l-.182-.983-.181-.983c-1.956.361-3.912.701-5.868 1.02l.161.987zm5.888-1.024l.182.983a198.08 198.08 0 005.082-.997l-.208-.978-.207-.978c-1.397.296-3.073.625-5.03.987l.181.983zm5.056-.992l.388.922c.109-.046.113-.024.046-.031a.4.4 0 01-.246-.122l.74-.673.74-.673a1.595 1.595 0 00-1.029-.522 2.097 2.097 0 00-1.027.177l.388.922zm.928.096l-.707.707a.58.58 0 01.061.069c.013.016.016.024.016.023a.148.148 0 01-.01-.029.307.307 0 01-.008-.066h2c0-.593-.301-1.067-.644-1.411l-.708.707zm.352.704h-1c0 .056-.008.062.002.036a.318.318 0 01.084-.117l.658.753.659.753c.451-.395.597-.935.597-1.425h-1zm-.256.672l-.707-.707a1.674 1.674 0 01-.303.243l.53.848.53.848a3.74 3.74 0 00.658-.525l-.708-.707zm-.48.384l-.707-.707-.032.032.707.707.708.707.032-.032-.708-.707zm-.032.032l-.371-.928c-.373.149-.97.34-1.814.572l.265.964.266.964c.862-.237 1.546-.452 2.026-.643l-.372-.929zm-1.92.608l-.242-.97c-.846.211-1.821.445-2.926.7l.224.974.225.974c1.114-.257 2.101-.493 2.962-.708l-.243-.97zm-2.944.704l-.207-.978c-1.1.232-2.276.466-3.528.699l.183.983.184.983c1.265-.236 2.457-.472 3.575-.709l-.207-.978zm-3.552.704l-.186-.983a119.54 119.54 0 01-3.65.635l.156.988.156.988a122.08 122.08 0 003.711-.646l-.187-.982zm-3.68.64l-.967-.253c-.491 1.878-.993 3.81-1.505 5.795l.968.25.969.25a1830.55 1830.55 0 011.503-5.79l-.968-.252zm-1.504 5.792l-.97-.242a750.8 750.8 0 01-1.47 5.784l.968.25.969.25c.491-1.901.982-3.834 1.474-5.8l-.971-.242zm-1.472 5.792l-.963-.268c-.096.347-.19.59-.271.749-.088.172-.126.175-.071.137l.569.822.57.822c.332-.23.555-.563.713-.87.164-.322.3-.703.417-1.124l-.964-.268zm-.736 1.44l-.64-.768c-.098.082-.154.088-.192.088v2c.56 0 1.059-.207 1.473-.552l-.641-.768zm-.832.32v-1c-.058 0-.107-.01-.188-.091l-.708.707-.707.707c.431.431.98.677 1.603.677v-1zm-.896-.384l.738-.676c.099.108.069.175.061.03-.009-.134.008-.363.083-.71l-.978-.212-.977-.211c-.095.441-.148.868-.125 1.256.023.379.128.835.461 1.199l.737-.676zm-.096-1.568l.978.21 2.336-10.913-.978-.209-.977-.21-2.336 10.913.977.209zm2.336-10.912l-.148-.989c-1.265.19-2.375.326-3.33.409l.086.996.087.996a56.73 56.73 0 003.454-.423l-.149-.989zm-3.392.416l-.088-.996c-.964.086-1.519.082-1.763.042l-.165.986-.164.986c.524.088 1.312.063 2.269-.022l-.089-.996zm20.306 10.56l-.737.676.002.002.735-.678zm.032-1.728l.707.707-.707-.707zm1.12-.736l.413.91.026-.011.026-.014-.465-.885zm2.4-1.344l-.504-.864-.011.006.515.858zm1.856-1.44l-.737-.676.737.676zm.224-2.752l-.655.756.015.013.015.012.625-.781zm-2.656-.224l.182.983.017-.003.018-.004-.217-.976zm-1.888.384l.19.982.012-.003.011-.002-.213-.977zm-1.952.384l.164.986.016-.002.016-.003-.196-.981zm-3.456-.416l-.707.707.009.01.01.009.688-.726zm0-3.168l-.86-.51.86.51zm1.6-2.272l-.781-.625-.002.003.783.622zm2.24-2.56l.725.689-.725-.689zm2.464-2.368l-.648-.762-.009.008.657.754zm2.368-1.76l-.515-.858-.011.007.526.851zm2.976-.192l-.781.625.781-.625zm.192 2.208l.894.447.007-.014.007-.014-.908-.419zm-.8.608l-.346-.938-.008.003-.009.003.363.932zm-1.792.256l-.027-1-.334.01-.262.207.623.783zm-2.656 2.272l.671.74h.001l-.672-.74zm-2.528 2.592l-.76-.65h-.001l.761.65zm-1.632 2.528l-.922-.388-.857 2.035 2.095-.698-.316-.949zm2.56-.608l.167.986.009-.002.008-.001-.184-.983zm6.752.832l-.688.727.011.009.01.01.667-.746zm.48 5.28l-.862-.508-.004.007.866.501zm-4.32 3.968l-.439-.899-.009.005-.008.004.456.89zm-2.496.672v-1c-.263 0-.331-.07-.354-.094l-.734.678-.735.678c.489.53 1.147.738 1.823.738v-1zm-1.088-.416l.737-.676a.288.288 0 01-.089-.22h-2c0 .596.214 1.135.615 1.572l.737-.676zm-.352-.896h1c0-.001-.001-.003.004-.013a.404.404 0 01.087-.112l-.707-.707-.707-.707c-.402.401-.677.92-.677 1.539h1zm.384-.832l.707.707c.17-.17.434-.354.826-.533l-.413-.91-.414-.91c-.546.248-1.029.555-1.413.939l.707.707zm1.12-.736l.465.885a49.288 49.288 0 002.449-1.372l-.514-.857-.515-.858a47.56 47.56 0 01-2.35 1.317l.465.885zm2.4-1.344l.504.864c.831-.485 1.536-1.025 2.089-1.628l-.737-.676-.737-.676c-.386.42-.919.841-1.623 1.252l.504.864zm1.856-1.44l.737.676c.602-.657.967-1.432.967-2.308h-2c0 .276-.105.589-.441.956l.737.676zm.704-1.632h1c0-.728-.251-1.417-.856-1.9l-.624.78-.625.78c.035.029.105.086.105.34h1zm-.48-1.12l.655-.756c-.552-.478-1.248-.66-1.967-.66v2c.39 0 .569.095.657.172l.655-.756zm-1.312-.416v-1c-.43 0-.963.083-1.561.216l.217.976.217.976c.553-.123.917-.168 1.127-.168v-1zm-1.344.192l-.182-.983a61.25 61.25 0 00-1.92.39l.214.977.213.977a58.796 58.796 0 011.857-.378l-.182-.983zm-1.888.384l-.19-.982c-.664.129-1.316.257-1.958.385l.196.981.196.98c.638-.127 1.286-.255 1.946-.382l-.19-.982zm-1.952.384l-.165-.986a9.203 9.203 0 01-1.467.146v2c.521 0 1.124-.062 1.796-.174l-.164-.986zm-1.632.16v-1c-.67 0-.986-.16-1.137-.302l-.687.726-.688.726c.66.626 1.56.85 2.512.85v-1zm-1.824-.576l.707-.707c-.183-.183-.315-.453-.315-.925h-2c0 .894.272 1.711.901 2.34l.707-.708zm-.608-1.632h1c0 .009.002-.07.081-.272.076-.19.2-.44.387-.753l-.86-.511-.86-.51a7.426 7.426 0 00-.526 1.038c-.123.31-.222.658-.222 1.008h1zm.608-1.536l.86.51c.376-.633.881-1.352 1.522-2.16l-.782-.622-.783-.622c-.681.856-1.243 1.651-1.677 2.384l.86.51zm1.6-2.272l.781.625a38.73 38.73 0 012.184-2.496l-.725-.689-.725-.689a40.765 40.765 0 00-2.296 2.624l.781.625zm2.24-2.56l.725.689c.79-.832 1.589-1.6 2.396-2.303l-.657-.754-.657-.754a37.234 37.234 0 00-2.532 2.433l.725.689zm2.464-2.368l.647.762c.826-.702 1.575-1.256 2.246-1.671l-.525-.851-.526-.85c-.779.48-1.609 1.1-2.49 1.848l.648.762zm2.368-1.76l.514.857c.696-.417 1.124-.529 1.342-.529v-2c-.764 0-1.573.336-2.371.815l.515.857zm1.856-.672v1c.253 0 .311.07.339.105l.781-.625.781-.625c-.484-.604-1.174-.855-1.901-.855v1zm1.12.48l-.781.625c.087.11.165.28.165.591h2c0-.671-.179-1.31-.603-1.84l-.781.624zm.384 1.216h-1c0 .275-.046.456-.1.573l.908.419.908.42c.202-.439.284-.92.284-1.412h-1zm-.192.992l-.895-.447c.015-.03.026-.03-.006-.005a.985.985 0 01-.245.122l.346.938.345.938c.526-.193 1.061-.523 1.349-1.099l-.894-.447zm-.8.608l-.363-.932c-.217.084-.671.168-1.456.188l.027 1 .026 1c.837-.022 1.577-.11 2.128-.324l-.362-.932zm-1.792.256l-.623-.783a54.163 54.163 0 00-2.706 2.315l.673.74.672.74a52.33 52.33 0 012.606-2.23l-.622-.782zm-2.656 2.272l-.672-.74a29.888 29.888 0 00-2.616 2.681l.76.651.759.65a27.902 27.902 0 012.44-2.501l-.671-.741zm-2.528 2.592l-.761-.65c-.794.931-1.402 1.86-1.793 2.79l.922.388.921.388c.292-.692.772-1.448 1.471-2.267l-.76-.649zm-1.632 2.528l.316.949c.641-.214 1.442-.406 2.411-.571l-.167-.986-.168-.986c-1.036.176-1.942.39-2.709.645l.317.949zm2.56-.608l.184.983c.963-.18 1.936-.271 2.92-.271v-2c-1.107 0-2.204.102-3.289.305l.185.983zm3.104-.288v1c1.515 0 2.433.347 2.96.846l.688-.726.687-.726c-1.051-.994-2.565-1.394-4.335-1.394v1zm3.648 1.12l-.667.745c.576.516.883 1.194.883 2.135h2c0-1.448-.505-2.69-1.55-3.625l-.666.745zm1.216 2.88h-1c0 .549-.175 1.175-.598 1.892l.862.508.861.508c.558-.947.875-1.92.875-2.908h-1zm-.736 2.4l-.866-.501a8.661 8.661 0 01-1.666 2.036l.676.737.675.737a10.62 10.62 0 002.046-2.508l-.865-.501zm-1.856 2.272l-.676-.737a9.36 9.36 0 01-2.227 1.534l.439.899.438.899a11.374 11.374 0 002.701-1.858l-.675-.737zm-2.464 1.696l-.456-.89c-.768.393-1.444.562-2.04.562v2c.982 0 1.97-.279 2.952-.782l-.456-.89z" fill="#00AEEF" mask="url(#a)"/></svg>