<svg width="80" height="20" fill="none" xmlns="http://www.w3.org/2000/svg"><path d="M30.259 4.662H25.88c-.3 0-.554.218-.6.513L23.51 16.4a.364.364 0 00.361.421h2.09c.3 0 .554-.217.6-.514l.478-3.027a.608.608 0 01.6-.514h1.386c2.884 0 4.548-1.395 4.983-4.16.195-1.21.008-2.16-.559-2.826-.622-.731-1.725-1.118-3.19-1.118zm.505 4.1c-.24 1.57-1.44 1.57-2.6 1.57h-.66l.463-2.933a.365.365 0 01.36-.308h.303c.79 0 1.536 0 1.921.45.23.27.3.669.213 1.22zm12.58-.052h-2.096a.365.365 0 00-.36.309l-.094.586-.146-.213c-.454-.658-1.466-.878-2.476-.878-2.316 0-4.295 1.754-4.68 4.215-.2 1.228.084 2.402.78 3.22.64.753 1.554 1.067 2.641 1.067 1.867 0 2.901-1.2 2.901-1.2l-.093.582a.365.365 0 00.36.422h1.888c.3 0 .553-.217.6-.514l1.134-7.174a.363.363 0 00-.36-.421zm-2.922 4.08c-.202 1.198-1.153 2.002-2.365 2.002-.609 0-1.095-.195-1.408-.565-.31-.367-.427-.89-.329-1.473.19-1.187 1.156-2.017 2.35-2.017.595 0 1.078.197 1.397.57.32.377.446.904.355 1.484zm14.086-4.08H52.4c-.2 0-.39.1-.504.268l-2.905 4.28-1.231-4.113a.61.61 0 00-.584-.434h-2.07a.365.365 0 00-.346.483l2.32 6.809-2.181 3.079a.365.365 0 00.297.576H47.3c.2 0 .387-.097.5-.261l7.006-10.113a.365.365 0 00-.3-.573z" fill="#253B80"/><path d="M61.481 4.662h-4.378a.608.608 0 00-.6.513L54.733 16.4a.364.364 0 00.36.421h2.246a.426.426 0 00.42-.36l.502-3.181a.608.608 0 01.6-.514h1.386c2.884 0 4.547-1.395 4.983-4.16.196-1.21.007-2.16-.56-2.826-.62-.731-1.724-1.118-3.189-1.118zm.505 4.1c-.238 1.57-1.438 1.57-2.6 1.57h-.66l.465-2.933a.363.363 0 01.36-.308h.302c.79 0 1.536 0 1.922.45.23.27.3.669.212 1.22zm12.58-.052H72.47a.364.364 0 00-.36.309l-.093.586-.147-.213c-.454-.658-1.465-.878-2.475-.878-2.317 0-4.294 1.754-4.68 4.215-.2 1.228.084 2.402.78 3.22.64.753 1.553 1.067 2.64 1.067 1.867 0 2.902-1.2 2.902-1.2l-.093.582a.365.365 0 00.36.422h1.888a.608.608 0 00.6-.514l1.134-7.174a.366.366 0 00-.361-.421zm-2.922 4.08c-.201 1.198-1.153 2.002-2.365 2.002-.608 0-1.095-.195-1.408-.565-.31-.367-.426-.89-.329-1.473.19-1.187 1.156-2.017 2.35-2.017.595 0 1.078.197 1.397.57.32.377.448.904.355 1.484zm5.393-7.821l-1.797 11.43a.364.364 0 00.36.421h1.806c.3 0 .555-.218.601-.514L79.78 5.082a.365.365 0 00-.36-.422h-2.022a.366.366 0 00-.36.309z" fill="#179BD7"/><path d="M5.331 19.002l.335-2.126-.745-.018H1.36l2.474-15.69a.202.202 0 01.201-.172h6.004c1.993.001 3.369.416 4.087 1.234.337.385.551.786.655 1.227.108.464.11 1.018.004 1.693l-.008.05v.432l.337.19c.284.15.509.323.682.52.288.329.474.746.553 1.24.081.51.054 1.115-.079 1.8-.154.79-.402 1.476-.737 2.038a4.191 4.191 0 01-1.168 1.28 4.74 4.74 0 01-1.574.71 7.844 7.844 0 01-1.966.227h-.467c-.334 0-.659.12-.914.336-.255.22-.424.521-.476.85l-.035.191-.591 3.748-.027.138c-.007.043-.02.065-.037.08a.099.099 0 01-.062.022H5.331z" fill="#253B80"/><path d="M15.433 5.25a10.55 10.55 0 01-.062.352c-.791 4.065-3.5 5.47-6.96 5.47H6.65a.855.855 0 00-.846.724l-.901 5.72-.256 1.62a.45.45 0 00.445.522h3.124c.37 0 .684-.269.743-.634l.03-.159.589-3.732.037-.205a.751.751 0 01.743-.635h.467c3.027 0 5.396-1.23 6.089-4.785.29-1.486.14-2.726-.626-3.599a2.987 2.987 0 00-.855-.659z" fill="#179BD7"/><path d="M14.604 4.919a6.261 6.261 0 00-.77-.17 9.782 9.782 0 00-1.552-.114H7.576a.747.747 0 00-.742.635l-1.001 6.34-.029.185a.855.855 0 01.846-.724h1.76c3.46 0 6.168-1.405 6.96-5.47.024-.12.044-.237.062-.352a4.225 4.225 0 00-.829-.33z" fill="#222D65"/><path d="M6.834 5.27a.748.748 0 01.742-.635h4.706c.557 0 1.078.037 1.553.114a6.246 6.246 0 01.948.226 4.3 4.3 0 01.65.274c.236-1.502-.002-2.525-.814-3.451C13.724.778 12.108.342 10.04.342H4.037a.858.858 0 00-.848.725l-2.5 15.851a.516.516 0 00.508.597h3.707l.93-5.905 1.001-6.34z" fill="#253B80"/></svg>