<svg width="52" height="52" fill="none" xmlns="http://www.w3.org/2000/svg"><rect width="52" height="52" rx="26" fill="#E2391F" fill-opacity=".2"/><g clip-path="url(#clip0_22_14225)"><path d="M26 10c-8.832 0-16 7.168-16 16s7.168 16 16 16 16-7.168 16-16-7.168-16-16-16zm0 17.6c-.88 0-1.6-.72-1.6-1.6v-6.4c0-.88.72-1.6 1.6-1.6.88 0 1.6.72 1.6 1.6V26c0 .88-.72 1.6-1.6 1.6zm1.6 6.4h-3.2v-3.2h3.2V34z" fill="#E2391F"/></g><defs><clipPath id="clip0_22_14225"><path fill="#fff" transform="translate(10 10)" d="M0 0h32v32H0z"/></clipPath></defs></svg>