<svg width="25" height="24" fill="none" xmlns="http://www.w3.org/2000/svg"><path d="M15.123 7.3c.37.167.739.336 1.106.506a4.382 4.382 0 01-.087.221 6.531 6.531 0 00-2.761.91 6.83 6.83 0 00-2.137 2.035 4.682 4.682 0 01-2.159-.815A4.932 4.932 0 017.537 8.39a5.164 5.164 0 01-.583-2.313 5.172 5.172 0 01.515-2.33A4.95 4.95 0 018.964 1.93a4.693 4.693 0 012.133-.884 4.62 4.62 0 012.284.25c.73.274 1.386.729 1.91 1.325-.942.431-1.619 1.275-1.619 2.378 0 .994.577 1.904 1.451 2.3zM12.86 17.946a7.245 7.245 0 00.624-2.945 7.246 7.246 0 00-.624-2.945 4.814 4.814 0 012.401-1.812 4.617 4.617 0 012.965.003 4.815 4.815 0 012.398 1.817c.595.854.915 1.882.915 2.937 0 1.056-.32 2.084-.915 2.938a4.815 4.815 0 01-2.398 1.816 4.617 4.617 0 01-2.965.003 4.813 4.813 0 01-2.4-1.812zm-6.605-7.92a6.83 6.83 0 002.136 2.036 6.52 6.52 0 002.76.911c.41.965.518 2.04.306 3.072a5.05 5.05 0 01-1.485 2.673 4.711 4.711 0 01-2.71 1.254 4.642 4.642 0 01-2.9-.643 4.935 4.935 0 01-1.984-2.296 5.192 5.192 0 01-.31-3.07 5.051 5.051 0 011.48-2.677 4.712 4.712 0 012.707-1.259m10.178-4.313l-.542-.246a.49.49 0 01-.217-.186.52.52 0 010-.561.49.49 0 01.217-.187l.542-.246a4.273 4.273 0 002.161-2.22l.325-.759a.524.524 0 01.188-.225.494.494 0 01.549 0 .524.524 0 01.187.225l.308.717a4.278 4.278 0 002.233 2.251l.585.253a.49.49 0 01.224.186.52.52 0 010 .57.49.49 0 01-.224.186l-.585.253a4.278 4.278 0 00-2.235 2.25l-.306.718a.524.524 0 01-.188.225.494.494 0 01-.548 0 .524.524 0 01-.188-.225l-.325-.76a4.273 4.273 0 00-2.16-2.219" fill="#14C4CA"/></svg>