<svg width="29" height="28" fill="none" xmlns="http://www.w3.org/2000/svg"><g clip-path="url(#clip0_22_15168)"><path d="M24.11 10.143l.288-.66a5.087 5.087 0 012.59-2.626l.885-.395a.618.618 0 000-1.124l-.836-.372a5.098 5.098 0 01-2.627-2.714l-.295-.712a.59.59 0 00-1.099 0l-.295.711a5.098 5.098 0 01-2.625 2.715l-.837.373a.619.619 0 000 1.123l.886.394a5.087 5.087 0 012.589 2.626l.287.66a.59.59 0 001.09 0zm-.544 2.69c.782 0 1.532-.128 2.234-.364.066.502.1 1.012.1 1.53 0 6.444-5.224 11.667-11.667 11.667-6.444 0-11.667-5.223-11.667-11.666 0-6.444 5.223-11.667 11.666-11.667 1.058 0 2.08.14 3.054.404a7.001 7.001 0 006.28 10.096zm-8.167 0V7l-5.833 8.166h3.5V21l5.833-8.167h-3.5z" fill="#15C4CA"/></g><defs><clipPath id="clip0_22_15168"><path fill="#fff" transform="translate(.232)" d="M0 0h28v28H0z"/></clipPath></defs></svg>