<svg width="25" height="24" fill="none" xmlns="http://www.w3.org/2000/svg"><path fill-rule="evenodd" clip-rule="evenodd" d="M12.232 15.75a.75.75 0 00.75-.75V4.027l1.68 1.961a.75.75 0 101.14-.976l-3-3.5a.75.75 0 00-1.14 0l-3 3.5a.75.75 0 101.14.976l1.68-1.96V15c0 .414.336.75.75.75z" fill="#DDB33C"/><path d="M16.232 9c-.702 0-1.053 0-1.306.169a1 1 0 00-.275.275c-.169.253-.169.604-.169 1.306V15a2.25 2.25 0 11-4.5 0v-4.25c0-.702 0-1.053-.169-1.306a1 1 0 00-.275-.275C9.285 9 8.934 9 8.232 9c-2.828 0-4.243 0-5.12.879-.88.878-.88 2.291-.88 5.12v1c0 2.83 0 4.243.88 5.122.877.879 2.292.879 5.12.879h8c2.828 0 4.243 0 5.121-.879.878-.879.88-2.293.88-5.121v-1c0-2.829 0-4.243-.88-5.121C20.475 9 19.06 9 16.233 9z" fill="#DDB33C"/></svg>