<svg width="25" height="25" fill="none" xmlns="http://www.w3.org/2000/svg"><path d="M14.467 19.05c.865 0 1.322 1.025.745 1.669a4.001 4.001 0 01-5.96 0 1 1 0 01.634-1.661l.11-.006 4.471-.001zm-2.235-17c1.358 0 2.506.904 2.875 2.142l.046.17.008.044a8.01 8.01 0 014.024 6.069l.028.287.02.289v2.93l.02.137a3 3 0 001.143 1.847l.167.117.162.099c.86.487.56 1.766-.377 1.864l-.116.006h-16c-1.028 0-1.387-1.364-.493-1.87a3 3 0 001.472-2.063l.021-.143.001-2.97A8 8 0 019.054 4.55l.248-.146.01-.043a3 3 0 012.562-2.29l.182-.017.176-.004z" fill="#000"/></svg>