<svg width="24" height="25" fill="none" xmlns="http://www.w3.org/2000/svg"><path d="M14.235 19.336c.865 0 1.322 1.024.745 1.668a3.998 3.998 0 01-5.96 0 1 1 0 01.634-1.661l.11-.006 4.47-.001zM12 2.336c1.358 0 2.506.903 2.875 2.14l.046.172.008.043a8.01 8.01 0 014.024 6.069l.028.287.019.289v2.93l.02.137a3 3 0 001.144 1.847l.167.117.162.099c.86.487.56 1.766-.377 1.864l-.116.006H4c-1.028 0-1.387-1.364-.493-1.87a3 3 0 001.472-2.063L5 14.26v-2.97a8 8 0 013.822-6.454l.248-.146.01-.043a3 3 0 012.562-2.29l.182-.017.176-.004z" fill="#555659"/></svg>