<svg width="25" height="24" fill="none" xmlns="http://www.w3.org/2000/svg"><path d="M19.936 8.588c-2.064.688-4.787 1.079-7.704 1.079s-5.64-.391-7.704-1.08c-.826-.274-1.622-.622-2.296-1.061v4.305c0 1.84 4.477 3.333 10 3.333s10-1.492 10-3.333V7.525c-.674.44-1.469.787-2.297 1.063" fill="#14C4CA"/><path d="M22.232 15.022c-.674.439-1.469.787-2.297 1.062-2.063.688-4.786 1.08-7.703 1.08-2.917 0-5.64-.392-7.704-1.08-.826-.274-1.622-.622-2.296-1.062v4.645c0 1.84 4.477 3.333 10 3.333s10-1.492 10-3.333v-4.645zm-10-7.355c-5.523 0-10-1.493-10-3.334V4.33c.005-1.84 4.48-3.33 10-3.33 4.142 0 7.696.84 9.214 2.036.506.399.786.837.786 1.297 0 1.841-4.477 3.334-10 3.334z" fill="#14C4CA"/></svg>