<svg width="25" height="25" fill="none" xmlns="http://www.w3.org/2000/svg"><path fill-rule="evenodd" clip-rule="evenodd" d="M9.019 14.55h6.428c.726 0 1.222 0 1.654.077a5 5 0 014.056 4.056c.076.432.076.927.076 1.654 0 .158.005.318-.023.474a1.5 1.5 0 01-1.217 1.217c-.136.024-.28.023-.35.023-4.94-.027-9.88-.027-14.82 0-.071 0-.215.001-.35-.023a1.5 1.5 0 01-1.217-1.217c-.028-.156-.023-.316-.023-.474 0-.727 0-1.222.076-1.654a5 5 0 014.056-4.056c.432-.077.927-.076 1.654-.076zm-2.286-7a5.5 5.5 0 1111 0 5.5 5.5 0 01-11 0z" fill="#000"/></svg>